<?xml version="1.0" encoding="UTF-8" standalone="no"?>
<!DOCTYPE svg PUBLIC "-//W3C//DTD SVG 1.1//EN" "http://www.w3.org/Graphics/SVG/1.1/DTD/svg11.dtd">
<!-- 由 Microsoft Visio, SVG Export 生成 DecoderChinese.svg transformer_chinese -->
<svg xmlns="http://www.w3.org/2000/svg" xmlns:xlink="http://www.w3.org/1999/xlink" xmlns:ev="http://www.w3.org/2001/xml-events"
		xmlns:v="http://schemas.microsoft.com/visio/2003/SVGExtensions/" width="2.84235in" height="5.43605in"
		viewBox="0 0 204.649 391.396" xml:space="preserve" color-interpolation-filters="sRGB" class="st11">
	<v:documentProperties v:langID="2052"/>

	<style type="text/css">
	<![CDATA[
		.st1 {fill:none;stroke:#000000;stroke-dasharray:3,3;stroke-linecap:round;stroke-linejoin:round;stroke-width:0.999999}
		.st2 {fill:#66bfff;stroke:none;stroke-linecap:butt;stroke-width:0.749999}
		.st3 {fill:none;stroke:#000000;stroke-linecap:round;stroke-linejoin:round;stroke-width:0.999999}
		.st4 {fill:#000000;stroke:none;stroke-linecap:butt;stroke-width:0.749999}
		.st5 {fill:none;stroke:none;stroke-width:0.999999}
		.st6 {fill:none}
		.st7 {stroke:#000000;stroke-linecap:round;stroke-linejoin:round;stroke-width:0.999999}
		.st8 {stroke:#000000;stroke-linecap:butt;stroke-width:0.999999}
		.st9 {fill:#b2d9ff;stroke:none;stroke-linecap:butt;stroke-width:0.749999}
		.st10 {fill:#bad8fb;stroke:none;stroke-linecap:butt;stroke-width:0.749999}
		.st11 {fill:none;fill-rule:evenodd;font-size:12px;overflow:visible;stroke-linecap:square;stroke-miterlimit:3}
	]]>
	</style>

	<g v:mID="0" v:index="1" v:groupContext="foregroundPage">
		<title>transformer_chinese</title>
		<v:pageProperties v:drawingScale="1" v:pageScale="1" v:drawingUnits="19" v:shadowOffsetX="8.99999"
				v:shadowOffsetY="-8.99999"/>
		<g id="shape1-1" v:mID="1" v:groupContext="shape" transform="translate(58.749,-102.454)">
			<title>工作表.2</title>
			<path d="M8 164 L88.61 164 C93.03 164 96.62 167.58 96.62 172 L96.62 383.4 C96.62 387.82 93.03 391.4 88.61 391.4 L8 391.4
						 C3.58 391.4 0 387.82 0 383.4 L0 172 C0 167.58 3.58 164 8 164 Z" class="st1"/>
		</g>
		<g id="shape2-3" v:mID="2" v:groupContext="shape" transform="translate(72.964,-201.381)">
			<title>工作表.45</title>
			<path d="M0 391.4 L62.2 391.4 L62.2 365.2 L0 365.2 L0 391.4 Z" class="st2"/>
		</g>
		<g id="shape3-5" v:mID="3" v:groupContext="shape" transform="translate(72.964,-201.381)">
			<title>工作表.46</title>
			<path d="M0 365.2 L62.2 365.2 L62.2 391.4 L0 391.4 L0 365.2 Z" class="st3"/>
		</g>
		<g id="shape4-7" v:mID="4" v:groupContext="shape" transform="translate(82.4239,-210.231)">
			<title>工作表.47</title>
			<path d="M3.61 383.27 C2.81 384.13 1.61 384.71 0.01 385.01 L0.39 385.6 C1.36 385.4 2.19 385.07 2.89 384.66 L5.52 384.66
						 C5.02 385.4 4.28 385.96 3.34 386.35 C3.06 385.99 2.75 385.66 2.42 385.35 L1.86 385.63 C2.17 385.9 2.47 386.23
						 2.73 386.55 C2.09 386.76 1.37 386.87 0.56 386.93 L0.84 387.51 C3.47 387.3 5.28 386.34 6.25 384.6 L6.25 384.09
						 L3.67 384.09 C3.84 383.93 4.02 383.76 4.19 383.57 L3.61 383.27 ZM3.27 388.9 L2.69 389.16 C3.01 389.49 3.33
						 389.85 3.64 390.26 C2.63 390.6 1.41 390.77 0 390.79 L0.27 391.4 C3.75 391.32 6.14 390.23 7.41 388.1 L7.41
						 387.59 L4.95 387.59 C5.2 387.4 5.42 387.2 5.64 386.98 L5.08 386.67 C4.14 387.66 2.7 388.26 0.74 388.46 L1.12
						 389.04 C2.2 388.85 3.14 388.56 3.94 388.18 L6.61 388.18 C6.03 388.98 5.25 389.6 4.25 390.02 C3.94 389.62
						 3.61 389.24 3.27 388.9 Z" class="st4"/>
		</g>
		<g id="shape5-9" v:mID="5" v:groupContext="shape" transform="translate(91.1749,-210.091)">
			<title>工作表.48</title>
			<path d="M0.01 387.38 L0.01 388.01 L3.81 388.01 C3.67 388.37 3.5 388.7 3.28 389.01 C2.67 389.77 1.56 390.38 0 390.85
						 L0.36 391.4 C1.92 390.93 3.05 390.29 3.73 389.46 C3.84 389.34 3.94 389.18 4.03 389.04 C5.41 389.87 6.5 390.66
						 7.31 391.4 L7.78 390.95 C6.83 390.15 5.67 389.35 4.29 388.54 C4.37 388.37 4.45 388.19 4.51 388.01 L7.83
						 388.01 L7.83 387.38 L4.69 387.38 C4.78 386.93 4.84 386.45 4.86 385.9 L4.86 383.18 L4.2 383.18 L4.2 385.9
						 C4.19 386.41 4.13 386.91 4.01 387.38 L0.01 387.38 ZM0.73 385.1 L0.4 385.6 C1.09 385.9 1.76 386.31 2.42 386.81
						 L2.78 386.27 C2.16 385.8 1.48 385.43 0.73 385.1 ZM1.73 383.65 L1.39 384.15 C1.98 384.4 2.56 384.74 3.12
						 385.19 L3.47 384.68 C2.95 384.27 2.36 383.95 1.73 383.65 Z" class="st4"/>
		</g>
		<g id="shape6-11" v:mID="6" v:groupContext="shape" transform="translate(100.063,-210.155)">
			<title>工作表.49</title>
			<path d="M0.67 383.36 L0.22 383.81 C0.88 384.27 1.41 384.73 1.78 385.15 L2.25 384.68 C1.83 384.25 1.3 383.81 0.67 383.36
						 ZM0.45 385.48 L0 385.92 C0.63 386.4 1.12 386.85 1.49 387.27 L1.94 386.81 C1.55 386.36 1.05 385.92 0.45 385.48
						 ZM1.59 387.96 C1.19 389.04 0.7 390.09 0.17 391.12 L0.81 391.4 C1.31 390.4 1.77 389.34 2.16 388.2 L1.59 387.96
						 ZM2.6 384.74 L2.6 385.39 L4.94 385.39 L4.94 387.54 L2.84 387.54 L2.84 388.17 L4.94 388.17 L4.94 390.53 L2.38
						 390.53 L2.38 391.17 L8.09 391.17 L8.09 390.53 L5.6 390.53 L5.6 388.17 L7.67 388.17 L7.67 387.54 L5.6 387.54
						 L5.6 385.39 L7.92 385.39 L7.92 384.74 L5.24 384.74 L5.61 384.6 C5.47 384.17 5.27 383.7 5.02 383.18 L4.41
						 383.34 C4.64 383.79 4.85 384.26 5.02 384.74 L2.6 384.74 Z" class="st4"/>
		</g>
		<g id="shape7-13" v:mID="7" v:groupContext="shape" transform="translate(109.017,-210.231)">
			<title>工作表.50</title>
			<path d="M2.02 384.4 L2.3 385.12 L0.14 385.12 L0.14 385.68 L7.95 385.68 L7.95 385.12 L5.72 385.12 L6.06 384.4 L7.53 384.4
						 L7.53 383.85 L4.36 383.85 C4.27 383.62 4.17 383.4 4.08 383.21 L3.39 383.32 C3.49 383.48 3.56 383.65 3.66
						 383.85 L0.56 383.85 L0.56 384.4 L2.02 384.4 ZM2.97 385.12 L2.69 384.4 L5.39 384.4 L5.03 385.12 L2.97 385.12
						 ZM1.17 386.21 L1.17 388.88 L6.92 388.88 L6.92 386.21 L1.17 386.21 ZM6.3 388.37 L1.8 388.37 L1.8 387.77 L6.3
						 387.77 L6.3 388.37 ZM1.8 387.3 L1.8 386.73 L6.3 386.73 L6.3 387.3 L1.8 387.3 ZM0.81 389.31 C0.64 389.9 0.36
						 390.44 0 390.93 L0.56 391.29 C0.94 390.76 1.22 390.15 1.44 389.43 L0.81 389.31 ZM5.28 391.4 C5.63 391.4
						 5.86 391.34 6.03 391.23 C6.21 391.09 6.33 390.71 6.39 390.09 L5.78 389.9 C5.75 390.34 5.67 390.62 5.56 390.71
						 C5.5 390.79 5.36 390.82 5.16 390.82 L3.27 390.82 C2.99 390.82 2.84 390.68 2.84 390.43 L2.84 389.38 L2.17
						 389.38 L2.17 390.57 C2.17 391.13 2.47 391.4 3.08 391.4 L5.28 391.4 ZM4.14 389.04 L3.59 389.38 C3.97 389.77
						 4.27 390.12 4.49 390.44 L5.02 390.07 C4.83 389.77 4.53 389.43 4.14 389.04 ZM6.97 389.21 L6.45 389.54 C6.94
						 390.13 7.31 390.68 7.61 391.17 L8.14 390.79 C7.88 390.34 7.47 389.82 6.97 389.21 Z" class="st4"/>
		</g>
		<g id="shape8-15" v:mID="8" v:groupContext="shape" transform="translate(118.143,-210.091)">
			<title>工作表.51</title>
			<path d="M3.17 383.18 L3.17 384.09 C3.17 384.38 3.16 384.7 3.14 384.99 L0.47 384.99 L0.47 385.63 L3.08 385.63 C2.99 386.68
						 2.78 387.59 2.48 388.34 C2.02 389.37 1.19 390.23 0 390.85 L0.36 391.4 C1.56 390.79 2.42 389.93 2.97 388.84
						 C3.36 387.98 3.61 386.91 3.75 385.63 L6.59 385.63 C6.55 387.76 6.44 389.15 6.27 389.81 C6.11 390.43 5.78
						 390.74 5.26 390.74 C4.94 390.74 4.59 390.73 4.23 390.71 L4.41 391.35 L5.59 391.35 C6.06 391.31 6.39 391.12
						 6.61 390.76 C6.83 390.38 6.98 389.71 7.08 388.77 C7.16 387.81 7.22 386.55 7.25 384.99 L3.81 384.99 C3.83
						 384.7 3.83 384.4 3.84 384.09 L3.84 383.18 L3.17 383.18 Z" class="st4"/>
		</g>
		<g id="shape9-17" v:mID="9" v:groupContext="shape" transform="translate(72.964,-237.688)">
			<title>工作表.52</title>
			<path d="M0 375.4 L62.2 375.4 L62.2 391.4 L0 391.4 L0 375.4 Z" class="st3"/>
		</g>
		<g id="shape10-19" v:mID="10" v:groupContext="shape" transform="translate(83.4699,-242.361)">
			<title>工作表.53</title>
			<path d="M6.98 385.23 L4.38 385.23 L4.38 391.26 L4.92 391.26 L4.92 390.71 L6.44 390.71 L6.44 391.26 L6.98 391.26 L6.98
						 385.23 ZM4.92 390.17 L4.92 385.78 L6.44 385.78 L6.44 390.17 L4.92 390.17 ZM1.44 384.06 L1.44 385.68 L0.16
						 385.68 L0.16 386.23 L1.44 386.23 C1.41 388.43 0.92 390.03 0 391.02 L0.42 391.4 C1.45 390.32 1.97 388.6 2
						 386.23 L3.08 386.23 C3.06 388.39 3.02 389.67 2.97 390.09 C2.91 390.54 2.67 390.78 2.27 390.78 C2.08 390.78
						 1.85 390.76 1.59 390.74 L1.73 391.27 C2.02 391.29 2.22 391.31 2.34 391.31 C3.05 391.31 3.44 390.96 3.52
						 390.31 C3.59 389.71 3.64 388.17 3.64 385.68 L2 385.68 L2 384.06 L1.44 384.06 Z" class="st4"/>
		</g>
		<g id="shape11-21" v:mID="11" v:groupContext="shape" transform="translate(93.7409,-243.05)">
			<title>工作表.54</title>
			<path d="M3.45 390.59 C3.22 390.84 2.97 391.03 2.7 391.17 C2.43 391.29 2.13 391.35 1.81 391.35 C1.22 391.35 0.76 391.16
						 0.42 390.76 C0.14 390.44 0 390.08 0 389.68 C0 389.33 0.11 389.01 0.34 388.73 C0.57 388.44 0.91 388.18 1.36
						 387.96 C1.11 387.67 0.94 387.43 0.84 387.25 C0.76 387.06 0.72 386.88 0.72 386.71 C0.72 386.37 0.85 386.07
						 1.12 385.82 C1.39 385.56 1.73 385.43 2.14 385.43 C2.53 385.43 2.85 385.55 3.09 385.79 C3.34 386.03 3.47
						 386.32 3.47 386.65 C3.47 387.2 3.11 387.67 2.39 388.06 L3.42 389.36 C3.53 389.13 3.62 388.86 3.69 388.56
						 L4.42 388.71 C4.29 389.21 4.13 389.63 3.92 389.95 C4.18 390.3 4.48 390.6 4.81 390.84 L4.34 391.4 C4.05 391.21
						 3.75 390.94 3.45 390.59 ZM2.03 387.6 C2.33 387.42 2.52 387.26 2.61 387.12 C2.7 386.99 2.75 386.84 2.75 386.68
						 C2.75 386.49 2.69 386.32 2.56 386.2 C2.44 386.07 2.3 386.01 2.11 386.01 C1.92 386.01 1.76 386.07 1.62 386.2
						 C1.5 386.32 1.44 386.48 1.44 386.65 C1.44 386.74 1.46 386.83 1.5 386.93 C1.55 387.03 1.62 387.13 1.72 387.23
						 L2.03 387.6 ZM3.01 390.03 L1.73 388.43 C1.35 388.66 1.08 388.88 0.95 389.07 C0.83 389.26 0.76 389.45 0.76
						 389.64 C0.76 389.86 0.85 390.11 1.03 390.35 C1.22 390.6 1.48 390.73 1.83 390.73 C2.03 390.73 2.25 390.67
						 2.47 390.54 C2.7 390.41 2.88 390.24 3.01 390.03 Z" class="st4"/>
		</g>
		<g id="shape12-23" v:mID="12" v:groupContext="shape" transform="translate(101.314,-242.361)">
			<title>工作表.55</title>
			<path d="M0.2 385.2 L0.2 385.74 L1.36 385.74 L1.36 387.07 L0.09 387.07 L0.09 387.64 L1.33 387.64 C1.2 389.14 0.76 390.28
						 0 391.02 L0.42 391.4 C1.08 390.76 1.51 389.89 1.75 388.76 C2.06 389.1 2.44 389.57 2.89 390.18 L3.2 389.68
						 C2.75 389.14 2.28 388.65 1.83 388.23 C1.86 388.04 1.88 387.84 1.89 387.64 L3.11 387.64 L3.11 387.07 L1.92
						 387.07 L1.92 385.74 L3 385.74 L3 385.2 L1.92 385.2 L1.92 384.1 L1.36 384.1 L1.36 385.2 L0.2 385.2 ZM6.7
						 384.37 L3.47 384.37 L3.47 388.76 L4.02 388.76 L4.02 384.92 L6.16 384.92 L6.16 388.76 L6.7 388.76 L6.7 384.37
						 ZM6.48 391.27 C6.75 391.27 6.92 391.2 7.06 391.09 C7.19 390.95 7.28 390.54 7.33 389.89 L6.83 389.73 C6.8
						 390.21 6.75 390.52 6.69 390.64 C6.62 390.71 6.53 390.74 6.39 390.74 L5.99 390.74 C5.81 390.74 5.73 390.66
						 5.73 390.48 L5.73 388.81 L5.2 388.81 L5.2 390.6 C5.2 391.04 5.41 391.27 5.83 391.27 L6.48 391.27 ZM4.83
						 385.57 L4.83 386.99 C4.8 387.99 4.63 388.82 4.3 389.45 C3.94 390.06 3.33 390.54 2.45 390.92 L2.75 391.4
						 C3.66 391.02 4.3 390.49 4.7 389.84 C5.11 389.14 5.33 388.18 5.34 386.99 L5.34 385.57 L4.83 385.57 Z"
					class="st4"/>
		</g>
		<g id="shape13-25" v:mID="13" v:groupContext="shape" transform="translate(109.438,-242.329)">
			<title>工作表.56</title>
			<path d="M0 384.71 L0 385.26 L1.89 385.26 L1.89 386.01 L2.47 386.01 L2.47 385.26 L4.56 385.26 L4.56 386.01 L5.14 386.01
						 L5.14 385.26 L7.03 385.26 L7.03 384.71 L5.14 384.71 L5.14 383.99 L4.56 383.99 L4.56 384.71 L2.47 384.71
						 L2.47 383.99 L1.89 383.99 L1.89 384.71 L0 384.71 ZM1.03 385.93 L0.64 386.31 C1.17 386.68 1.61 387.04 1.91
						 387.38 L2.3 386.99 C1.97 386.63 1.55 386.29 1.03 385.93 ZM0.53 387.29 L0.14 387.66 C0.67 388.04 1.1 388.38
						 1.41 388.73 L1.8 388.34 C1.45 387.98 1.03 387.63 0.53 387.29 ZM1.47 389.02 C1.16 389.71 0.75 390.42 0.23
						 391.12 L0.77 391.4 C1.27 390.71 1.66 389.99 1.95 389.26 L1.47 389.02 ZM5.78 386.81 L5.78 388.31 C5.78 388.49
						 5.67 388.6 5.46 388.6 C5.17 388.6 4.86 388.59 4.52 388.56 L4.66 389.1 C4.99 389.12 5.31 389.12 5.67 389.12
						 C6.11 389.1 6.35 388.9 6.35 388.48 L6.35 386.29 L2.89 386.29 L2.89 390.44 C2.89 390.95 3.14 391.19 3.66
						 391.19 L5.8 391.19 C6.22 391.19 6.5 391.12 6.66 390.98 C6.81 390.81 6.92 390.34 6.98 389.57 L6.44 389.38
						 C6.39 389.9 6.33 390.24 6.25 390.42 C6.17 390.57 5.97 390.65 5.66 390.65 L3.89 390.65 C3.61 390.65 3.47
						 390.51 3.47 390.26 L3.47 386.81 L5.78 386.81 Z" class="st4"/>
		</g>
		<g id="shape14-27" v:mID="14" v:groupContext="shape" transform="translate(117.252,-242.376)">
			<title>工作表.57</title>
			<path d="M2.48 383.99 C1.97 385.26 1.14 386.38 0 387.35 L0.19 387.96 C0.61 387.6 1 387.23 1.36 386.84 L1.36 391.4 L1.94
						 391.4 L1.94 386.13 C2.38 385.54 2.73 384.91 3.01 384.24 L2.48 383.99 ZM6.17 391.26 C6.55 391.26 6.81 391.17
						 6.95 390.98 C7.09 390.77 7.19 390.21 7.25 389.31 L6.72 389.12 C6.67 389.91 6.62 390.38 6.53 390.51 C6.44
						 390.63 6.28 390.71 6.08 390.71 L4.78 390.71 C4.5 390.71 4.37 390.57 4.37 390.34 L4.37 387.63 C5.36 387.01
						 6.23 386.29 6.98 385.49 L6.58 385.04 C5.95 385.74 5.22 386.38 4.37 386.95 L4.37 384.09 L3.8 384.09 L3.8
						 387.3 C3.39 387.54 2.95 387.76 2.52 387.96 L2.77 388.51 C3.13 388.34 3.47 388.17 3.8 387.98 L3.8 390.42
						 C3.8 390.98 4.08 391.26 4.64 391.26 L6.17 391.26 Z" class="st4"/>
		</g>
		<g id="group15-29" transform="translate(104.065,-227.584)" v:mID="15" v:groupContext="group">
			<title>工作表.58</title>
			<g id="shape16-30" v:mID="16" v:groupContext="shape">
				<title>工作表.16</title>
				<path d="M0 391.4 L0 387.19 L0 391.4 Z" class="st5"/>
			</g>
			<g id="shape17-32" v:mID="17" v:groupContext="shape">
				<title>工作表.17</title>
				<path d="M0 391.4 L0 387.19 L0 391.4 Z" class="st6"/>
				<path d="M0 391.4 L0 387.19" class="st7"/>
			</g>
		</g>
		<g id="group18-35" transform="translate(102.565,-231.791)" v:mID="18" v:groupContext="group">
			<title>工作表.59</title>
			<g id="shape19-36" v:mID="19" v:groupContext="shape">
				<title>工作表.19</title>
				<path d="M1.5 387.4 L1.5 391.4 L1.5 387.4 ZM0 391.4 L1.5 387.4 L3 391.4 L0 391.4 Z" class="st5"/>
			</g>
			<g id="shape20-38" v:mID="20" v:groupContext="shape">
				<title>工作表.20</title>
				<path d="M1.5 387.4 L1.5 391.4 L1.5 387.4 ZM0 391.4 L1.5 387.4 L3 391.4 L0 391.4 Z" class="st6"/>
				<path d="M1.5 387.4 L1.5 391.4M0 391.4 L1.5 387.4 L3 391.4" class="st8"/>
			</g>
		</g>
		<g id="shape21-41" v:mID="21" v:groupContext="shape" transform="translate(72.765,-268.89)">
			<title>工作表.60</title>
			<path d="M0 391.4 L62.2 391.4 L62.2 365.2 L0 365.2 L0 391.4 Z" class="st9"/>
		</g>
		<g id="shape22-43" v:mID="22" v:groupContext="shape" transform="translate(72.764,-268.89)">
			<title>工作表.61</title>
			<path d="M0 365.2 L62.2 365.2 L62.2 391.4 L0 391.4 L0 365.2 Z" class="st3"/>
		</g>
		<g id="shape23-45" v:mID="23" v:groupContext="shape" transform="translate(80.3029,-278.675)">
			<title>工作表.62</title>
			<path d="M4.75 387.57 C4.05 388.23 3.17 388.74 2.16 389.1 L2.48 389.55 C3.36 389.23 4.12 388.76 4.81 388.13 C4.83 388.29
						 4.83 388.46 4.83 388.65 C4.81 389.15 4.75 389.45 4.64 389.54 C4.53 389.62 4.36 389.65 4.09 389.65 L3.47
						 389.65 L3.64 390.16 L4.01 390.16 C4.53 390.16 4.89 390.09 5.09 389.95 C5.26 389.79 5.36 389.37 5.37 388.65
						 C5.36 388.38 5.34 388.13 5.33 387.91 C5.77 388.27 6.3 388.76 6.92 389.38 L7.22 388.93 C6.54 388.31 5.89
						 387.76 5.25 387.27 C5.23 387.23 5.22 387.2 5.2 387.15 C5.86 386.81 6.42 386.37 6.87 385.85 L6.52 385.45
						 C6.12 385.93 5.64 386.34 5.06 386.67 C4.92 386.32 4.7 385.98 4.39 385.65 C4.7 385.41 4.97 385.17 5.17 384.91
						 L7.01 384.91 L7.01 384.38 L2.31 384.38 L2.31 384.91 L4.59 384.91 C4.05 385.45 3.19 385.87 2.03 386.21 L2.33
						 386.68 C2.94 386.46 3.47 386.21 3.94 385.94 C4.08 386.1 4.22 386.27 4.33 386.45 C3.81 386.9 3.09 387.29
						 2.17 387.6 L2.44 388.04 C3.31 387.74 4.01 387.35 4.55 386.87 C4.55 386.87 4.56 386.88 4.58 386.9 C4.66 387.1
						 4.7 387.32 4.75 387.57 ZM0.58 384.18 L0.17 384.56 C0.76 385.01 1.22 385.43 1.55 385.82 L1.97 385.43 C1.59
						 385.01 1.12 384.6 0.58 384.18 ZM5.25 391.24 L7.06 391.24 L7.2 390.66 C7 390.68 6.7 390.7 6.31 390.7 C5.92
						 390.71 5.53 390.71 5.17 390.71 C4.53 390.71 4.01 390.71 3.59 390.7 C3.11 390.68 2.75 390.62 2.48 390.51
						 C2.26 390.4 2.06 390.23 1.86 390.01 C1.8 389.93 1.73 389.87 1.67 389.82 L1.67 386.82 L0 386.82 L0 387.35
						 L1.12 387.35 L1.12 389.79 C0.8 389.93 0.42 390.34 0 391.01 L0.44 391.4 C0.87 390.66 1.19 390.3 1.39 390.3
						 C1.48 390.3 1.59 390.37 1.7 390.49 C1.95 390.79 2.23 390.99 2.55 391.09 C2.87 391.17 3.3 391.21 3.81 391.23
						 C4.33 391.23 4.81 391.24 5.25 391.24 Z" class="st4"/>
		</g>
		<g id="shape24-47" v:mID="24" v:groupContext="shape" transform="translate(88.1459,-278.675)">
			<title>工作表.63</title>
			<path d="M1.87 384.01 C1.49 385.24 0.86 386.34 0 387.3 L0.19 387.91 C0.5 387.59 0.8 387.24 1.06 386.88 L1.06 391.4 L1.63
						 391.4 L1.63 386.01 C1.94 385.46 2.2 384.87 2.41 384.26 L1.87 384.01 ZM2.36 385.34 L2.36 385.88 L7.19 385.88
						 L7.19 385.34 L5.09 385.34 C4.98 384.85 4.86 384.43 4.73 384.07 L4.12 384.16 C4.27 384.52 4.41 384.91 4.51
						 385.34 L2.36 385.34 ZM2.24 390.44 L2.24 391.01 L7.39 391.01 L7.39 390.44 L5.58 390.44 C5.97 389.32 6.31
						 388.02 6.59 386.55 L6.05 386.41 C5.75 388.02 5.39 389.37 4.98 390.44 L2.24 390.44 ZM3.34 386.49 L2.83 386.67
						 C3.16 387.79 3.44 388.98 3.66 390.18 L4.19 390.04 C3.94 388.71 3.66 387.52 3.34 386.49 Z" class="st4"/>
		</g>
		<g id="shape25-49" v:mID="25" v:groupContext="shape" transform="translate(96.2869,-278.675)">
			<title>工作表.64</title>
			<path d="M4.98 383.99 C4.8 384.37 4.59 384.71 4.36 385.05 L2.79 385.05 C2.63 384.68 2.45 384.34 2.28 384.04 L1.67 384.15
						 C1.86 384.42 2.03 384.71 2.19 385.05 L0 385.05 L0 385.62 L7.15 385.62 L7.15 385.05 L5 385.05 C5.19 384.79
						 5.37 384.51 5.53 384.18 L4.98 383.99 ZM2.77 391.34 C3.22 391.34 3.45 391.07 3.45 390.52 L3.45 386.26 L0.54
						 386.26 L0.54 391.4 L1.11 391.4 L1.11 389.65 L2.89 389.65 L2.89 390.4 C2.89 390.66 2.79 390.79 2.59 390.79
						 L1.98 390.77 L2.14 391.34 L2.77 391.34 ZM1.11 389.13 L1.11 388.23 L2.89 388.23 L2.89 389.13 L1.11 389.13
						 ZM1.11 387.71 L1.11 386.79 L2.89 386.79 L2.89 387.71 L1.11 387.71 ZM5.87 391.32 C6.36 391.32 6.59 391.07
						 6.59 390.57 L6.59 386.04 L6.01 386.04 L6.01 390.43 C6.01 390.68 5.91 390.81 5.69 390.81 C5.36 390.81 5.03
						 390.79 4.7 390.76 L4.81 391.32 L5.87 391.32 ZM4.36 386.63 L4.36 390.09 L4.9 390.09 L4.9 386.63 L4.36 386.63
						 Z" class="st4"/>
		</g>
		<g id="shape26-51" v:mID="26" v:groupContext="shape" transform="translate(104.145,-278.645)">
			<title>工作表.65</title>
			<path d="M3.28 384.46 L3.28 386.03 L4.78 386.03 L4.78 386.53 L2.84 386.53 L2.84 387.03 L7.28 387.03 L7.28 386.53 L5.34
						 386.53 L5.34 386.03 L6.86 386.03 L6.86 384.46 L5.34 384.46 L5.34 384.01 L4.78 384.01 L4.78 384.46 L3.28
						 384.46 ZM6.35 385.57 L5.34 385.57 L5.34 384.93 L6.35 384.93 L6.35 385.57 ZM4.78 385.57 L3.8 385.57 L3.8
						 384.93 L4.78 384.93 L4.78 385.57 ZM6.77 387.56 L3.3 387.56 L3.3 389.93 L3.84 389.93 L3.84 388.04 L6.22 388.04
						 L6.22 389.93 L6.77 389.93 L6.77 387.56 ZM5.63 389.96 L5.33 390.39 C5.91 390.62 6.49 390.95 7.03 391.37 L7.34
						 390.88 C6.83 390.51 6.25 390.21 5.63 389.96 ZM4.72 388.35 L4.72 389.14 C4.71 389.59 4.55 389.96 4.27 390.26
						 C3.96 390.53 3.42 390.74 2.64 390.92 L2.95 391.4 C3.77 391.2 4.34 390.93 4.69 390.6 C5.06 390.23 5.25 389.74
						 5.28 389.14 L5.28 388.35 L4.72 388.35 ZM1.22 385.92 L2.24 385.92 C2.09 386.21 1.92 386.48 1.75 386.73 L2.17
						 387.06 C2.42 386.71 2.64 386.31 2.84 385.82 L2.84 385.39 L1.38 385.39 C1.47 385.01 1.56 384.6 1.63 384.17
						 L1.08 384.07 C0.88 385.35 0.53 386.37 0 387.12 L0.36 387.57 C0.7 387.12 0.98 386.57 1.22 385.92 ZM1.17 386.96
						 L1.17 390.37 C1.17 390.51 1.11 390.62 0.98 390.7 L1.22 391.18 C1.85 390.93 2.38 390.62 2.84 390.23 L2.75
						 389.7 C2.41 390.01 2.06 390.26 1.73 390.43 L1.73 386.96 L1.17 386.96 Z" class="st4"/>
		</g>
		<g id="shape27-53" v:mID="27" v:groupContext="shape" transform="translate(112.676,-278.707)">
			<title>工作表.66</title>
			<path d="M2.95 389.6 L3.35 389.21 C3.02 388.73 2.7 388.26 2.39 387.85 C2.61 387.17 2.77 386.42 2.91 385.59 L2.38 385.49
						 C2.28 386.14 2.14 386.74 2 387.31 C1.66 386.85 1.34 386.48 1.05 386.16 L0.69 386.51 C1.05 386.93 1.42 387.4
						 1.81 387.92 C1.55 388.73 1.2 389.43 0.78 390.03 L1.14 390.46 C1.56 389.9 1.91 389.23 2.2 388.45 C2.44 388.81
						 2.7 389.2 2.95 389.6 ZM5.3 389.98 L5.69 389.59 C5.34 389.01 5.02 388.49 4.72 388.02 C4.95 387.31 5.14 386.51
						 5.3 385.62 L4.75 385.53 C4.64 386.21 4.5 386.85 4.33 387.46 C3.98 386.98 3.67 386.57 3.38 386.24 L3.02 386.59
						 C3.39 387.04 3.75 387.54 4.11 388.09 C3.81 388.9 3.44 389.6 3 390.21 L3.36 390.66 C3.8 390.1 4.17 389.43
						 4.49 388.65 C4.75 389.06 5.03 389.49 5.3 389.98 ZM5.67 391.37 C6.14 391.37 6.38 391.12 6.38 390.64 L6.38
						 384.42 L0 384.42 L0 391.4 L0.56 391.4 L0.56 384.96 L5.81 384.96 L5.81 390.51 C5.81 390.73 5.7 390.84 5.47
						 390.84 L4.71 390.81 L4.86 391.37 L5.67 391.37 Z" class="st4"/>
		</g>
		<g id="shape28-55" v:mID="28" v:groupContext="shape" transform="translate(120.302,-278.739)">
			<title>工作表.67</title>
			<path d="M2.78 389.85 C2 390.15 1.08 390.4 0.03 390.57 L0.11 391.14 C1.11 390.95 2 390.71 2.78 390.4 L2.78 389.85 ZM1.36
						 384.11 C1.03 385.04 0.67 385.87 0.25 386.6 C0.17 386.71 0.09 386.78 0 386.82 L0.14 387.35 C0.59 387.28 1.02
						 387.21 1.45 387.13 C1.03 387.9 0.67 388.43 0.37 388.76 C0.31 388.82 0.22 388.87 0.13 388.92 L0.28 389.45
						 C1.03 389.34 1.81 389.14 2.64 388.85 L2.64 388.34 C2.06 388.54 1.5 388.7 0.95 388.82 C1.39 388.24 1.97 387.28
						 2.66 385.93 L2.16 385.75 C2.02 386.04 1.86 386.34 1.73 386.6 C1.37 386.67 1.03 386.73 0.69 386.78 C1.09
						 386.17 1.49 385.34 1.89 384.31 L1.36 384.11 ZM6.55 388.45 L3.27 388.45 L3.27 391.4 L3.81 391.4 L3.81 391.06
						 L6 391.06 L6 391.4 L6.55 391.4 L6.55 388.45 ZM3.81 390.53 L3.81 388.98 L6 388.98 L6 390.53 L3.81 390.53
						 ZM4.06 384.11 C3.8 384.95 3.33 385.67 2.61 386.24 L2.95 386.7 C3.2 386.48 3.45 386.24 3.67 385.99 C3.88
						 386.34 4.14 386.68 4.44 386.98 C3.89 387.39 3.22 387.71 2.45 388.01 L2.81 388.46 C3.59 388.17 4.28 387.79
						 4.86 387.35 C5.44 387.82 6.14 388.17 6.98 388.43 L7.31 387.95 C6.52 387.73 5.84 387.42 5.28 387.01 C5.83
						 386.5 6.27 385.92 6.55 385.24 L6.55 384.84 L4.39 384.84 C4.47 384.64 4.55 384.43 4.61 384.2 L4.06 384.11
						 ZM3.98 385.57 C4.03 385.51 4.08 385.43 4.12 385.35 L5.94 385.35 C5.67 385.82 5.31 386.26 4.84 386.65 C4.5
						 386.34 4.22 385.98 3.98 385.57 Z" class="st4"/>
		</g>
		<g id="shape29-57" v:mID="29" v:groupContext="shape" transform="translate(72.609,-305.47)">
			<title>工作表.68</title>
			<path d="M0 375.4 L62.2 375.4 L62.2 391.4 L0 391.4 L0 375.4 Z" class="st3"/>
		</g>
		<g id="shape30-59" v:mID="30" v:groupContext="shape" transform="translate(83.1179,-310.143)">
			<title>工作表.69</title>
			<path d="M6.98 385.23 L4.37 385.23 L4.37 391.26 L4.92 391.26 L4.92 390.71 L6.44 390.71 L6.44 391.26 L6.98 391.26 L6.98
						 385.23 ZM4.92 390.16 L4.92 385.78 L6.44 385.78 L6.44 390.16 L4.92 390.16 ZM1.44 384.06 L1.44 385.68 L0.16
						 385.68 L0.16 386.23 L1.44 386.23 C1.41 388.43 0.92 390.02 0 391.02 L0.42 391.4 C1.45 390.32 1.97 388.6 2
						 386.23 L3.08 386.23 C3.06 388.38 3.01 389.67 2.97 390.09 C2.91 390.54 2.67 390.77 2.26 390.77 C2.08 390.77
						 1.84 390.76 1.59 390.74 L1.73 391.27 C2.02 391.29 2.22 391.31 2.34 391.31 C3.05 391.31 3.44 390.96 3.52
						 390.3 C3.59 389.71 3.64 388.17 3.64 385.68 L2 385.68 L2 384.06 L1.44 384.06 Z" class="st4"/>
		</g>
		<g id="shape31-61" v:mID="31" v:groupContext="shape" transform="translate(93.3869,-310.831)">
			<title>工作表.70</title>
			<path d="M3.45 390.59 C3.22 390.84 2.97 391.03 2.7 391.17 C2.43 391.29 2.13 391.35 1.81 391.35 C1.22 391.35 0.76 391.16
						 0.42 390.76 C0.14 390.44 0 390.08 0 389.68 C0 389.33 0.11 389.01 0.34 388.73 C0.57 388.44 0.91 388.18 1.36
						 387.96 C1.11 387.67 0.94 387.43 0.84 387.24 C0.76 387.06 0.72 386.88 0.72 386.71 C0.72 386.37 0.85 386.07
						 1.13 385.82 C1.39 385.56 1.73 385.43 2.14 385.43 C2.53 385.43 2.85 385.55 3.09 385.79 C3.34 386.03 3.47
						 386.32 3.47 386.65 C3.47 387.2 3.11 387.67 2.39 388.06 L3.42 389.35 C3.53 389.13 3.62 388.86 3.69 388.56
						 L4.42 388.71 C4.29 389.21 4.13 389.63 3.92 389.95 C4.18 390.3 4.48 390.6 4.81 390.84 L4.34 391.4 C4.05 391.21
						 3.75 390.94 3.45 390.59 ZM2.03 387.6 C2.33 387.42 2.52 387.25 2.61 387.12 C2.7 386.98 2.75 386.84 2.75 386.68
						 C2.75 386.49 2.69 386.32 2.56 386.2 C2.44 386.07 2.3 386.01 2.11 386.01 C1.92 386.01 1.76 386.07 1.62 386.2
						 C1.5 386.32 1.44 386.48 1.44 386.65 C1.44 386.74 1.46 386.83 1.5 386.93 C1.55 387.03 1.62 387.13 1.72 387.23
						 L2.03 387.6 ZM3.01 390.03 L1.73 388.43 C1.35 388.66 1.08 388.88 0.95 389.07 C0.83 389.26 0.76 389.45 0.76
						 389.63 C0.76 389.86 0.85 390.1 1.03 390.35 C1.22 390.6 1.48 390.73 1.83 390.73 C2.03 390.73 2.25 390.66
						 2.47 390.54 C2.7 390.41 2.88 390.24 3.01 390.03 Z" class="st4"/>
		</g>
		<g id="shape32-63" v:mID="32" v:groupContext="shape" transform="translate(100.96,-310.143)">
			<title>工作表.71</title>
			<path d="M0.21 385.19 L0.21 385.74 L1.36 385.74 L1.36 387.07 L0.09 387.07 L0.09 387.63 L1.33 387.63 C1.2 389.13 0.77
						 390.27 0 391.02 L0.42 391.4 C1.08 390.76 1.52 389.88 1.75 388.76 C2.06 389.1 2.44 389.57 2.89 390.18 L3.21
						 389.68 C2.75 389.13 2.28 388.65 1.83 388.23 C1.86 388.04 1.87 387.84 1.89 387.63 L3.11 387.63 L3.11 387.07
						 L1.92 387.07 L1.92 385.74 L3 385.74 L3 385.19 L1.92 385.19 L1.92 384.1 L1.36 384.1 L1.36 385.19 L0.21 385.19
						 ZM6.7 384.37 L3.47 384.37 L3.47 388.76 L4.02 388.76 L4.02 384.91 L6.16 384.91 L6.16 388.76 L6.7 388.76 L6.7
						 384.37 ZM6.49 391.27 C6.75 391.27 6.92 391.19 7.06 391.09 C7.19 390.95 7.28 390.54 7.33 389.88 L6.83 389.73
						 C6.8 390.21 6.75 390.52 6.69 390.63 C6.63 390.71 6.53 390.74 6.39 390.74 L5.99 390.74 C5.81 390.74 5.74
						 390.66 5.74 390.48 L5.74 388.8 L5.2 388.8 L5.2 390.6 C5.2 391.04 5.41 391.27 5.83 391.27 L6.49 391.27 ZM4.83
						 385.57 L4.83 386.99 C4.8 387.99 4.63 388.82 4.3 389.45 C3.94 390.06 3.33 390.54 2.46 390.91 L2.75 391.4
						 C3.66 391.02 4.3 390.49 4.71 389.84 C5.11 389.13 5.33 388.18 5.34 386.99 L5.34 385.57 L4.83 385.57 Z"
					class="st4"/>
		</g>
		<g id="shape33-65" v:mID="33" v:groupContext="shape" transform="translate(109.087,-310.113)">
			<title>工作表.72</title>
			<path d="M0 384.71 L0 385.26 L1.89 385.26 L1.89 386.01 L2.47 386.01 L2.47 385.26 L4.56 385.26 L4.56 386.01 L5.14 386.01
						 L5.14 385.26 L7.03 385.26 L7.03 384.71 L5.14 384.71 L5.14 383.99 L4.56 383.99 L4.56 384.71 L2.47 384.71
						 L2.47 383.99 L1.89 383.99 L1.89 384.71 L0 384.71 ZM1.03 385.93 L0.64 386.31 C1.17 386.68 1.61 387.04 1.9
						 387.39 L2.3 386.99 C1.97 386.64 1.55 386.29 1.03 385.93 ZM0.53 387.29 L0.14 387.67 C0.67 388.04 1.09 388.39
						 1.41 388.73 L1.8 388.34 C1.45 387.98 1.03 387.64 0.53 387.29 ZM1.47 389.03 C1.15 389.71 0.75 390.42 0.23
						 391.12 L0.76 391.4 C1.27 390.71 1.66 389.99 1.95 389.26 L1.47 389.03 ZM5.78 386.81 L5.78 388.31 C5.78 388.49
						 5.67 388.61 5.45 388.61 C5.17 388.61 4.86 388.59 4.51 388.56 L4.66 389.1 C4.98 389.12 5.31 389.12 5.67 389.12
						 C6.11 389.1 6.34 388.9 6.34 388.48 L6.34 386.29 L2.89 386.29 L2.89 390.45 C2.89 390.95 3.14 391.2 3.66 391.2
						 L5.79 391.2 C6.22 391.2 6.5 391.12 6.66 390.98 C6.81 390.81 6.92 390.34 6.98 389.57 L6.44 389.38 C6.39 389.9
						 6.33 390.25 6.25 390.42 C6.17 390.57 5.97 390.65 5.65 390.65 L3.89 390.65 C3.61 390.65 3.47 390.51 3.47
						 390.26 L3.47 386.81 L5.78 386.81 Z" class="st4"/>
		</g>
		<g id="shape34-67" v:mID="34" v:groupContext="shape" transform="translate(116.897,-310.16)">
			<title>工作表.73</title>
			<path d="M2.48 383.99 C1.97 385.26 1.14 386.38 0 387.35 L0.19 387.96 C0.61 387.6 1 387.23 1.36 386.84 L1.36 391.4 L1.94
						 391.4 L1.94 386.14 C2.38 385.54 2.74 384.92 3.02 384.25 L2.48 383.99 ZM6.17 391.26 C6.55 391.26 6.81 391.17
						 6.96 390.98 C7.1 390.78 7.19 390.21 7.25 389.31 L6.72 389.12 C6.67 389.92 6.63 390.39 6.53 390.51 C6.44
						 390.64 6.28 390.71 6.08 390.71 L4.78 390.71 C4.5 390.71 4.38 390.57 4.38 390.34 L4.38 387.64 C5.36 387.01
						 6.23 386.29 6.98 385.49 L6.58 385.04 C5.95 385.75 5.22 386.38 4.38 386.95 L4.38 384.09 L3.8 384.09 L3.8
						 387.31 C3.39 387.54 2.95 387.76 2.52 387.96 L2.77 388.51 C3.13 388.34 3.47 388.17 3.8 387.98 L3.8 390.42
						 C3.8 390.98 4.08 391.26 4.64 391.26 L6.17 391.26 Z" class="st4"/>
		</g>
		<g id="group35-69" transform="translate(103.969,-253.69)" v:mID="35" v:groupContext="group">
			<title>工作表.74</title>
			<g id="shape36-70" v:mID="36" v:groupContext="shape">
				<title>工作表.36</title>
				<path d="M0.05 391.4 L0 382.1 L0.05 391.4 Z" class="st5"/>
			</g>
			<g id="shape37-72" v:mID="37" v:groupContext="shape">
				<title>工作表.37</title>
				<path d="M0.05 391.4 L0 382.1 L0.05 391.4 Z" class="st6"/>
				<path d="M0.05 391.4 L0 382.1" class="st7"/>
			</g>
		</g>
		<g id="group38-75" transform="translate(102.469,-262.978)" v:mID="38" v:groupContext="group">
			<title>工作表.75</title>
			<g id="shape39-76" v:mID="39" v:groupContext="shape">
				<title>工作表.39</title>
				<path d="M1.48 387.39 L1.5 391.39 L1.48 387.39 ZM0 391.4 L1.48 387.39 L3 391.38 L0 391.4 Z" class="st5"/>
			</g>
			<g id="shape40-78" v:mID="40" v:groupContext="shape">
				<title>工作表.40</title>
				<path d="M1.48 387.39 L1.5 391.39 L1.48 387.39 ZM0 391.4 L1.48 387.39 L3 391.38 L0 391.4 Z" class="st6"/>
				<path d="M1.48 387.39 L1.5 391.39M0 391.4 L1.48 387.39 L3 391.38" class="st8"/>
			</g>
		</g>
		<g id="group41-81" transform="translate(103.778,-295.087)" v:mID="41" v:groupContext="group">
			<title>工作表.76</title>
			<g id="shape42-82" v:mID="42" v:groupContext="shape">
				<title>工作表.42</title>
				<path d="M0.02 391.4 L0 386.91 L0.02 391.4 Z" class="st5"/>
			</g>
			<g id="shape43-84" v:mID="43" v:groupContext="shape">
				<title>工作表.43</title>
				<path d="M0.02 391.4 L0 386.91 L0.02 391.4 Z" class="st6"/>
				<path d="M0.02 391.4 L0 386.91" class="st7"/>
			</g>
		</g>
		<g id="group44-87" transform="translate(102.278,-299.563)" v:mID="44" v:groupContext="group">
			<title>工作表.77</title>
			<g id="shape45-88" v:mID="45" v:groupContext="shape">
				<title>工作表.45</title>
				<path d="M1.48 387.39 L1.5 391.39 L1.48 387.39 ZM0 391.4 L1.48 387.39 L3 391.38 L0 391.4 Z" class="st5"/>
			</g>
			<g id="shape46-90" v:mID="46" v:groupContext="shape">
				<title>工作表.46</title>
				<path d="M1.48 387.39 L1.5 391.39 L1.48 387.39 ZM0 391.4 L1.48 387.39 L3 391.38 L0 391.4 Z" class="st6"/>
				<path d="M1.48 387.39 L1.5 391.39M0 391.4 L1.48 387.39 L3 391.38" class="st8"/>
			</g>
		</g>
		<g id="shape47-93" v:mID="47" v:groupContext="shape" transform="translate(72.964,-338.853)">
			<title>工作表.79</title>
			<path d="M0 391.4 L62.2 391.4 L62.2 375.4 L0 375.4 L0 391.4 Z" class="st10"/>
		</g>
		<g id="shape48-95" v:mID="48" v:groupContext="shape" transform="translate(72.964,-338.853)">
			<title>工作表.80</title>
			<path d="M0 375.4 L62.2 375.4 L62.2 391.4 L0 391.4 L0 375.4 Z" class="st3"/>
		</g>
		<g id="shape49-97" v:mID="49" v:groupContext="shape" transform="translate(86.3939,-342.729)">
			<title>工作表.81</title>
			<path d="M3.94 383.45 C2.89 384.59 1.58 385.54 0 386.31 L0.31 386.87 C1.9 386.07 3.19 385.12 4.17 384.04 C5.23 385.18
						 6.5 386.1 8 386.82 L8.33 386.24 C6.84 385.56 5.55 384.63 4.41 383.45 L3.94 383.45 ZM1.66 386.29 L1.66 386.91
						 L3.84 386.91 L3.84 388.48 L1.23 388.48 L1.23 389.1 L3.84 389.1 L3.84 390.76 L0.42 390.76 L0.42 391.4 L7.92
						 391.4 L7.92 390.76 L4.5 390.76 L4.5 389.1 L7.11 389.1 L7.11 388.48 L4.5 388.48 L4.5 386.91 L6.69 386.91
						 L6.69 386.29 L1.66 386.29 Z" class="st4"/>
		</g>
		<g id="shape50-99" v:mID="50" v:groupContext="shape" transform="translate(95.6099,-342.434)">
			<title>工作表.82</title>
			<path d="M0.61 383.28 L0.17 383.7 C0.8 384.21 1.31 384.68 1.67 385.12 L2.14 384.66 C1.72 384.2 1.2 383.74 0.61 383.28
						 ZM5.83 391.21 L7.89 391.21 L8.05 390.57 C7.81 390.59 7.47 390.59 7.05 390.6 C6.59 390.62 6.17 390.62 5.75
						 390.62 C5.05 390.62 4.47 390.62 4 390.6 C3.47 390.59 3.08 390.51 2.8 390.38 C2.55 390.27 2.33 390.09 2.11
						 389.82 C2.03 389.74 1.97 389.67 1.89 389.62 L1.89 386.24 L0 386.24 L0 386.84 L1.3 386.84 L1.3 389.57 C0.92
						 389.74 0.5 390.2 0.02 390.96 L0.5 391.4 C1 390.57 1.36 390.15 1.56 390.15 C1.67 390.15 1.8 390.23 1.91 390.38
						 C2.19 390.7 2.5 390.93 2.86 391.04 C3.22 391.13 3.67 391.2 4.25 391.2 C4.81 391.21 5.34 391.21 5.83 391.21
						 ZM2.52 384.06 L2.52 384.65 L3.7 384.65 C3.41 385.29 3.08 385.84 2.72 386.26 L2.86 386.85 L4.94 386.85 L4.94
						 387.93 L2.44 387.93 L2.44 388.54 L4.94 388.54 L4.94 390.21 L5.56 390.21 L5.56 388.54 L7.91 388.54 L7.91
						 387.93 L5.56 387.93 L5.56 386.85 L7.52 386.85 L7.52 386.26 L5.56 386.26 L5.56 385.2 L4.94 385.2 L4.94 386.26
						 L3.49 386.26 C3.81 385.79 4.11 385.26 4.39 384.65 L7.8 384.65 L7.8 384.06 L4.64 384.06 C4.75 383.77 4.85
						 383.51 4.94 383.21 L4.33 383.06 C4.22 383.4 4.1 383.74 3.97 384.06 L2.52 384.06 Z" class="st4"/>
		</g>
		<g id="shape51-101" v:mID="51" v:groupContext="shape" transform="translate(104.394,-342.419)">
			<title>工作表.83</title>
			<path d="M4.44 384.64 L3.91 384.88 C4.09 385.21 4.27 385.57 4.45 385.96 L3.08 385.96 L3.08 386.59 L8.09 386.59 L8.09
						 385.96 L6.64 385.96 C6.84 385.61 7.03 385.2 7.2 384.74 L6.59 384.53 C6.4 385.04 6.2 385.51 5.95 385.96 L5.08
						 385.96 C4.88 385.48 4.67 385.04 4.44 384.64 ZM5.63 383.06 L4.95 383.17 C5.04 383.38 5.16 383.64 5.26 383.92
						 L3.28 383.92 L3.28 384.51 L7.94 384.51 L7.94 383.92 L5.92 383.92 C5.81 383.6 5.72 383.31 5.63 383.06 ZM1.13
						 391.28 C1.66 391.28 1.94 391.02 1.94 390.49 L1.94 387.84 C2.19 387.71 2.44 387.59 2.69 387.46 L2.69 386.81
						 C2.44 386.93 2.19 387.06 1.94 387.18 L1.94 385.46 L2.67 385.46 L2.67 384.84 L1.94 384.84 L1.94 383.14 L1.27
						 383.14 L1.27 384.84 L0.17 384.84 L0.17 385.46 L1.27 385.46 L1.27 387.46 C0.84 387.64 0.42 387.76 0 387.87
						 L0.17 388.53 C0.53 388.4 0.91 388.26 1.27 388.12 L1.27 390.34 C1.27 390.57 1.14 390.68 0.91 390.68 C0.69
						 390.68 0.45 390.67 0.22 390.65 L0.34 391.28 L1.13 391.28 ZM4.83 386.84 C4.73 387.09 4.62 387.34 4.5 387.6
						 L2.95 387.6 L2.95 388.24 L4.15 388.24 C3.97 388.59 3.76 388.93 3.52 389.31 C4.14 389.56 4.73 389.79 5.28
						 390.06 C4.72 390.37 3.91 390.62 2.86 390.81 L3.12 391.4 C4.42 391.15 5.36 390.79 5.95 390.37 C6.67 390.71
						 7.29 391.04 7.83 391.37 L8.19 390.86 C7.62 390.53 7.03 390.21 6.4 389.93 C6.83 389.48 7.11 388.9 7.25 388.24
						 L8.23 388.24 L8.23 387.6 L5.16 387.6 C5.26 387.39 5.36 387.15 5.45 386.9 L4.83 386.84 ZM6.64 388.24 C6.5
						 388.82 6.22 389.29 5.81 389.67 C5.33 389.45 4.83 389.24 4.31 389.04 C4.48 388.79 4.66 388.53 4.81 388.24
						 L6.64 388.24 Z" class="st4"/>
		</g>
		<g id="shape52-103" v:mID="52" v:groupContext="shape" transform="translate(113.487,-342.48)">
			<title>工作表.84</title>
			<path d="M2.5 386.62 L2.5 387.2 L7.37 387.2 L7.37 386.62 L2.5 386.62 ZM1.86 388.09 L1.86 388.68 L3.83 388.68 C3.2 389.7
						 2.67 390.32 2.28 390.56 C2.23 390.57 2.2 390.6 2.14 390.62 L2.28 391.17 C3.98 391.06 5.55 390.9 6.97 390.71
						 C7.15 390.93 7.31 391.17 7.47 391.4 L7.98 391.04 C7.59 390.46 7.01 389.77 6.28 388.99 L5.79 389.29 C6.06
						 389.6 6.33 389.9 6.58 390.2 C5.42 390.37 4.25 390.49 3.06 390.57 C3.48 390.2 3.97 389.56 4.51 388.68 L7.97
						 388.68 L7.97 388.09 L1.86 388.09 ZM6.87 384.13 L6.87 385.18 L1.58 385.18 L1.58 384.13 L6.87 384.13 ZM1.58
						 385.76 L7.5 385.76 L7.5 383.52 L0.95 383.52 L0.95 386.51 C0.94 388.32 0.62 389.79 0 390.93 L0.47 391.37
						 C1.2 390.01 1.58 388.39 1.58 386.51 L1.58 385.76 Z" class="st4"/>
		</g>
		<g id="group53-105" transform="translate(86.3079,-195.36)" v:mID="53" v:groupContext="group">
			<title>工作表.92</title>
			<g id="shape54-106" v:mID="54" v:groupContext="shape">
				<title>工作表.54</title>
				<path d="M1.5 387.4 L1.5 391.4 L1.5 387.4 ZM0 391.4 L1.5 387.4 L3 391.4 L0 391.4 Z" class="st5"/>
			</g>
			<g id="shape55-108" v:mID="55" v:groupContext="shape">
				<title>工作表.55</title>
				<path d="M1.5 387.4 L1.5 391.4 L1.5 387.4 ZM0 391.4 L1.5 387.4 L3 391.4 L0 391.4 Z" class="st6"/>
				<path d="M1.5 387.4 L1.5 391.4M0 391.4 L1.5 387.4 L3 391.4" class="st8"/>
			</g>
		</g>
		<g id="shape56-111" v:mID="56" v:groupContext="shape" transform="translate(72.609,-121.667)">
			<title>工作表.97</title>
			<path d="M0 391.4 L62.2 391.4 L62.2 355.18 L0 355.18 L0 391.4 Z" class="st2"/>
		</g>
		<g id="shape57-113" v:mID="57" v:groupContext="shape" transform="translate(72.609,-121.667)">
			<title>工作表.98</title>
			<path d="M0 355.18 L62.2 355.18 L62.2 391.4 L0 391.4 L0 355.18 Z" class="st3"/>
		</g>
		<g id="shape58-115" v:mID="58" v:groupContext="shape" transform="translate(86.0859,-141.981)">
			<title>工作表.99</title>
			<path d="M7.22 391.35 C7.51 391.35 7.72 391.29 7.88 391.17 C8.03 391.02 8.14 390.64 8.19 389.99 L7.66 389.81 C7.61 390.29
						 7.55 390.59 7.47 390.68 C7.39 390.76 7.28 390.81 7.11 390.81 L5.89 390.81 C5.66 390.81 5.56 390.7 5.56 390.52
						 L5.56 389.76 L7.3 389.76 L7.3 386.74 C7.49 386.9 7.7 387.07 7.94 387.23 L8.31 386.73 C7.41 386.18 6.74 385.54
						 6.33 384.84 L7.78 384.84 L7.78 384.26 L5.16 384.26 C5.26 383.96 5.36 383.63 5.44 383.29 L4.86 383.23 C4.77
						 383.59 4.67 383.93 4.53 384.26 L2.89 384.26 L2.89 384.84 L4.27 384.84 C3.8 385.65 3.14 386.29 2.26 386.77
						 L2.52 387.21 C2.28 387.32 2.06 387.43 1.83 387.52 L1.83 385.53 L2.63 385.53 L2.63 384.9 L1.83 384.9 L1.83
						 383.26 L1.19 383.26 L1.19 384.9 L0.11 384.9 L0.11 385.53 L1.19 385.53 L1.19 387.76 C0.8 387.88 0.41 388.01
						 0 388.09 L0.17 388.74 C0.52 388.65 0.86 388.54 1.19 388.41 L1.19 390.49 C1.19 390.71 1.08 390.82 0.84 390.82
						 C0.64 390.82 0.42 390.81 0.19 390.79 L0.31 391.4 L1.08 391.4 C1.56 391.4 1.83 391.15 1.83 390.65 L1.83 388.17
						 C2.08 388.07 2.34 387.96 2.59 387.84 L2.59 387.24 C2.8 387.13 3.01 387.01 3.2 386.87 L3.2 389.76 L4.98 389.76
						 L4.98 390.64 C4.98 391.1 5.22 391.35 5.72 391.35 L7.22 391.35 ZM6.98 386.45 L5.56 386.45 L5.56 385.56 L4.98
						 385.56 L4.98 386.45 L3.72 386.45 C4.2 386.01 4.59 385.46 4.91 384.84 L5.73 384.84 C6 385.39 6.42 385.93
						 6.98 386.45 ZM5.56 389.21 L5.56 388.35 L6.72 388.35 L6.72 389.21 L5.56 389.21 ZM5.56 387.84 L5.56 386.98
						 L6.72 386.98 L6.72 387.84 L5.56 387.84 ZM4.98 386.98 L4.98 387.84 L3.78 387.84 L3.78 386.98 L4.98 386.98
						 ZM4.98 388.35 L4.98 389.21 L3.78 389.21 L3.78 388.35 L4.98 388.35 Z" class="st4"/>
		</g>
		<g id="shape59-117" v:mID="59" v:groupContext="shape" transform="translate(95.3059,-141.902)">
			<title>工作表.100</title>
			<path d="M0 383.77 L0 384.35 L2.04 384.35 L2.04 384.95 L2.72 384.95 L2.72 384.35 L5.09 384.35 L5.09 384.93 L5.77 384.93
						 L5.77 384.35 L7.81 384.35 L7.81 383.77 L5.77 383.77 L5.77 383.16 L5.09 383.16 L5.09 383.77 L2.72 383.77
						 L2.72 383.15 L2.04 383.15 L2.04 383.77 L0 383.77 ZM4.94 387.98 C5.14 388.59 5.41 389.13 5.7 389.62 C5.33
						 390.18 4.87 390.6 4.31 390.87 L4.62 391.4 C5.19 391.1 5.67 390.68 6.08 390.13 C6.53 390.68 7.08 391.1 7.72
						 391.38 L8.06 390.82 C7.42 390.57 6.87 390.18 6.4 389.6 C6.8 388.88 7.09 387.98 7.29 386.88 L7.8 386.88 L7.8
						 386.29 L5.61 386.29 C5.7 385.94 5.77 385.6 5.84 385.23 L5.23 385.17 C5.04 386.38 4.67 387.42 4.11 388.26
						 L4.47 388.73 C4.64 388.49 4.8 388.24 4.94 387.98 ZM6.69 386.88 C6.54 387.73 6.31 388.45 6.01 389.06 C5.72
						 388.56 5.47 387.95 5.28 387.24 L5.42 386.88 L6.69 386.88 ZM1.83 385.17 L1.83 386.73 L0.16 386.73 L0.16 391.34
						 L0.72 391.34 L0.72 387.27 L1.88 387.27 L1.88 391.26 L2.41 391.26 L2.41 387.27 L3.5 387.27 L3.5 390.51 C3.5
						 390.71 3.39 390.81 3.16 390.81 L2.69 390.79 L2.83 391.32 L3.36 391.32 C3.83 391.32 4.06 391.1 4.06 390.68
						 L4.06 386.73 L2.44 386.73 L2.44 385.17 L1.83 385.17 ZM2.92 388.04 L2.59 388.15 C2.77 388.73 2.89 389.32
						 3 389.95 L3.34 389.85 C3.22 389.18 3.08 388.57 2.92 388.04 ZM0.78 385.31 L0.25 385.57 C0.47 385.9 0.67 386.27
						 0.87 386.71 L1.34 386.46 C1.17 386.06 0.97 385.66 0.78 385.31 ZM1.28 388.1 C1.22 388.92 1.06 389.62 0.81
						 390.24 L1.22 390.38 C1.45 389.73 1.59 388.98 1.66 388.15 L1.28 388.1 ZM3.54 385.26 C3.39 385.65 3.19 386.04
						 2.94 386.43 L3.4 386.69 C3.67 386.31 3.89 385.92 4.06 385.51 L3.54 385.26 Z" class="st4"/>
		</g>
		<g id="shape60-119" v:mID="60" v:groupContext="shape" transform="translate(104.569,-142.028)">
			<title>工作表.101</title>
			<path d="M3.61 383.28 C2.81 384.13 1.61 384.71 0.02 385.01 L0.39 385.6 C1.36 385.4 2.19 385.07 2.89 384.66 L5.52 384.66
						 C5.02 385.4 4.28 385.96 3.35 386.35 C3.06 385.99 2.75 385.67 2.42 385.35 L1.86 385.63 C2.17 385.9 2.47 386.23
						 2.74 386.56 C2.09 386.76 1.38 386.87 0.56 386.93 L0.84 387.51 C3.47 387.31 5.28 386.34 6.25 384.6 L6.25
						 384.09 L3.67 384.09 C3.84 383.93 4.02 383.76 4.19 383.57 L3.61 383.28 ZM3.27 388.9 L2.69 389.16 C3.02 389.49
						 3.33 389.85 3.64 390.26 C2.63 390.6 1.41 390.78 0 390.79 L0.27 391.4 C3.75 391.32 6.14 390.23 7.41 388.1
						 L7.41 387.59 L4.95 387.59 C5.2 387.4 5.42 387.2 5.64 386.98 L5.08 386.67 C4.14 387.66 2.7 388.26 0.74 388.46
						 L1.12 389.04 C2.2 388.85 3.14 388.56 3.94 388.18 L6.61 388.18 C6.03 388.98 5.25 389.6 4.25 390.03 C3.94
						 389.62 3.61 389.24 3.27 388.9 Z" class="st4"/>
		</g>
		<g id="shape61-121" v:mID="61" v:groupContext="shape" transform="translate(113.32,-141.888)">
			<title>工作表.102</title>
			<path d="M0.01 387.38 L0.01 388.01 L3.81 388.01 C3.67 388.37 3.5 388.7 3.28 389.01 C2.67 389.77 1.56 390.38 0 390.85
						 L0.36 391.4 C1.92 390.93 3.05 390.29 3.74 389.46 C3.84 389.34 3.94 389.18 4.03 389.04 C5.41 389.87 6.5 390.66
						 7.31 391.4 L7.78 390.95 C6.83 390.15 5.67 389.35 4.3 388.54 C4.37 388.37 4.45 388.2 4.51 388.01 L7.83 388.01
						 L7.83 387.38 L4.69 387.38 C4.78 386.93 4.84 386.45 4.86 385.9 L4.86 383.18 L4.2 383.18 L4.2 385.9 C4.19
						 386.42 4.13 386.91 4.02 387.38 L0.01 387.38 ZM0.74 385.1 L0.41 385.6 C1.09 385.9 1.77 386.31 2.42 386.81
						 L2.78 386.28 C2.16 385.81 1.49 385.43 0.74 385.1 ZM1.73 383.65 L1.39 384.15 C1.98 384.4 2.56 384.74 3.13
						 385.2 L3.47 384.68 C2.95 384.27 2.36 383.95 1.73 383.65 Z" class="st4"/>
		</g>
		<g id="shape62-123" v:mID="62" v:groupContext="shape" transform="translate(90.7119,-128.95)">
			<title>工作表.103</title>
			<path d="M0.67 383.35 L0.22 383.81 C0.87 384.27 1.41 384.73 1.78 385.15 L2.25 384.68 C1.83 384.24 1.29 383.81 0.67 383.35
						 ZM0.45 385.48 L0 385.92 C0.62 386.4 1.13 386.85 1.48 387.28 L1.94 386.81 C1.55 386.35 1.05 385.92 0.45 385.48
						 ZM1.59 387.96 C1.19 389.04 0.7 390.09 0.17 391.12 L0.81 391.4 C1.31 390.4 1.76 389.34 2.16 388.2 L1.59 387.96
						 ZM2.59 384.74 L2.59 385.39 L4.94 385.39 L4.94 387.54 L2.84 387.54 L2.84 388.17 L4.94 388.17 L4.94 390.52
						 L2.37 390.52 L2.37 391.17 L8.09 391.17 L8.09 390.52 L5.59 390.52 L5.59 388.17 L7.67 388.17 L7.67 387.54
						 L5.59 387.54 L5.59 385.39 L7.92 385.39 L7.92 384.74 L5.23 384.74 L5.61 384.6 C5.47 384.17 5.26 383.7 5.02
						 383.18 L4.41 383.34 C4.64 383.79 4.84 384.26 5.02 384.74 L2.59 384.74 Z" class="st4"/>
		</g>
		<g id="shape63-125" v:mID="63" v:groupContext="shape" transform="translate(99.6649,-129.029)">
			<title>工作表.104</title>
			<path d="M2.02 384.4 L2.3 385.12 L0.14 385.12 L0.14 385.68 L7.95 385.68 L7.95 385.12 L5.72 385.12 L6.06 384.4 L7.53 384.4
						 L7.53 383.85 L4.36 383.85 C4.27 383.62 4.17 383.4 4.08 383.21 L3.39 383.32 C3.48 383.48 3.56 383.65 3.66
						 383.85 L0.56 383.85 L0.56 384.4 L2.02 384.4 ZM2.97 385.12 L2.69 384.4 L5.39 384.4 L5.03 385.12 L2.97 385.12
						 ZM1.17 386.21 L1.17 388.89 L6.92 388.89 L6.92 386.21 L1.17 386.21 ZM6.3 388.37 L1.8 388.37 L1.8 387.78 L6.3
						 387.78 L6.3 388.37 ZM1.8 387.31 L1.8 386.73 L6.3 386.73 L6.3 387.31 L1.8 387.31 ZM0.81 389.31 C0.64 389.9
						 0.36 390.45 0 390.93 L0.56 391.29 C0.94 390.76 1.22 390.15 1.44 389.43 L0.81 389.31 ZM5.28 391.4 C5.63 391.4
						 5.86 391.34 6.03 391.23 C6.2 391.09 6.33 390.71 6.39 390.09 L5.78 389.9 C5.75 390.34 5.67 390.62 5.56 390.71
						 C5.5 390.79 5.36 390.82 5.16 390.82 L3.26 390.82 C2.98 390.82 2.84 390.68 2.84 390.43 L2.84 389.38 L2.17
						 389.38 L2.17 390.57 C2.17 391.14 2.47 391.4 3.08 391.4 L5.28 391.4 ZM4.14 389.04 L3.59 389.38 C3.97 389.78
						 4.27 390.12 4.48 390.45 L5.02 390.07 C4.83 389.78 4.53 389.43 4.14 389.04 ZM6.97 389.21 L6.45 389.54 C6.94
						 390.13 7.31 390.68 7.61 391.17 L8.14 390.79 C7.88 390.34 7.47 389.82 6.97 389.21 Z" class="st4"/>
		</g>
		<g id="shape64-127" v:mID="64" v:groupContext="shape" transform="translate(108.788,-128.889)">
			<title>工作表.105</title>
			<path d="M3.17 383.18 L3.17 384.09 C3.17 384.39 3.16 384.7 3.14 385 L0.47 385 L0.47 385.63 L3.08 385.63 C2.99 386.68
						 2.78 387.59 2.48 388.34 C2.02 389.37 1.19 390.23 0 390.86 L0.36 391.4 C1.56 390.79 2.42 389.93 2.97 388.84
						 C3.36 387.98 3.61 386.92 3.75 385.63 L6.59 385.63 C6.55 387.76 6.44 389.15 6.27 389.81 C6.11 390.43 5.78
						 390.74 5.27 390.74 C4.94 390.74 4.59 390.73 4.24 390.71 L4.41 391.35 L5.6 391.35 C6.06 391.31 6.39 391.12
						 6.61 390.76 C6.83 390.39 6.98 389.71 7.08 388.78 C7.16 387.81 7.22 386.56 7.25 385 L3.81 385 C3.83 384.7
						 3.83 384.4 3.84 384.09 L3.84 383.18 L3.17 383.18 Z" class="st4"/>
		</g>
		<g id="shape65-129" v:mID="65" v:groupContext="shape" transform="translate(72.609,-167.089)">
			<title>工作表.106</title>
			<path d="M0 375.4 L62.2 375.4 L62.2 391.4 L0 391.4 L0 375.4 Z" class="st3"/>
		</g>
		<g id="shape66-131" v:mID="66" v:groupContext="shape" transform="translate(83.1179,-171.759)">
			<title>工作表.107</title>
			<path d="M6.98 385.23 L4.37 385.23 L4.37 391.26 L4.92 391.26 L4.92 390.71 L6.44 390.71 L6.44 391.26 L6.98 391.26 L6.98
						 385.23 ZM4.92 390.16 L4.92 385.78 L6.44 385.78 L6.44 390.16 L4.92 390.16 ZM1.44 384.06 L1.44 385.68 L0.16
						 385.68 L0.16 386.23 L1.44 386.23 C1.41 388.43 0.92 390.02 0 391.02 L0.42 391.4 C1.45 390.32 1.97 388.6 2
						 386.23 L3.08 386.23 C3.06 388.38 3.01 389.67 2.97 390.09 C2.91 390.54 2.67 390.77 2.26 390.77 C2.08 390.77
						 1.84 390.76 1.59 390.74 L1.73 391.27 C2.02 391.29 2.22 391.31 2.34 391.31 C3.05 391.31 3.44 390.96 3.52
						 390.3 C3.59 389.71 3.64 388.17 3.64 385.68 L2 385.68 L2 384.06 L1.44 384.06 Z" class="st4"/>
		</g>
		<g id="shape67-133" v:mID="67" v:groupContext="shape" transform="translate(93.3869,-172.447)">
			<title>工作表.108</title>
			<path d="M3.45 390.59 C3.22 390.84 2.97 391.03 2.7 391.17 C2.43 391.29 2.13 391.35 1.81 391.35 C1.22 391.35 0.76 391.16
						 0.42 390.76 C0.14 390.44 0 390.08 0 389.68 C0 389.33 0.11 389.01 0.34 388.73 C0.57 388.44 0.91 388.18 1.36
						 387.96 C1.11 387.67 0.94 387.43 0.84 387.24 C0.76 387.06 0.72 386.88 0.72 386.71 C0.72 386.37 0.85 386.07
						 1.13 385.82 C1.39 385.56 1.73 385.43 2.14 385.43 C2.53 385.43 2.85 385.55 3.09 385.79 C3.34 386.03 3.47
						 386.32 3.47 386.65 C3.47 387.2 3.11 387.67 2.39 388.06 L3.42 389.35 C3.53 389.13 3.62 388.86 3.69 388.56
						 L4.42 388.71 C4.29 389.21 4.13 389.63 3.92 389.95 C4.18 390.3 4.48 390.6 4.81 390.84 L4.34 391.4 C4.05 391.21
						 3.75 390.94 3.45 390.59 ZM2.03 387.6 C2.33 387.42 2.52 387.25 2.61 387.12 C2.7 386.98 2.75 386.84 2.75 386.68
						 C2.75 386.49 2.69 386.32 2.56 386.2 C2.44 386.07 2.3 386.01 2.11 386.01 C1.92 386.01 1.76 386.07 1.62 386.2
						 C1.5 386.32 1.44 386.48 1.44 386.65 C1.44 386.74 1.46 386.83 1.5 386.93 C1.55 387.03 1.62 387.13 1.72 387.23
						 L2.03 387.6 ZM3.01 390.03 L1.73 388.43 C1.35 388.66 1.08 388.88 0.95 389.07 C0.83 389.26 0.76 389.45 0.76
						 389.63 C0.76 389.86 0.85 390.1 1.03 390.35 C1.22 390.6 1.48 390.73 1.83 390.73 C2.03 390.73 2.25 390.66
						 2.47 390.54 C2.7 390.41 2.88 390.24 3.01 390.03 Z" class="st4"/>
		</g>
		<g id="shape68-135" v:mID="68" v:groupContext="shape" transform="translate(100.96,-171.759)">
			<title>工作表.109</title>
			<path d="M0.21 385.19 L0.21 385.74 L1.36 385.74 L1.36 387.07 L0.09 387.07 L0.09 387.63 L1.33 387.63 C1.2 389.13 0.77
						 390.27 0 391.02 L0.42 391.4 C1.08 390.76 1.52 389.88 1.75 388.76 C2.06 389.1 2.44 389.57 2.89 390.18 L3.21
						 389.68 C2.75 389.13 2.28 388.65 1.83 388.23 C1.86 388.04 1.87 387.84 1.89 387.63 L3.11 387.63 L3.11 387.07
						 L1.92 387.07 L1.92 385.74 L3 385.74 L3 385.19 L1.92 385.19 L1.92 384.1 L1.36 384.1 L1.36 385.19 L0.21 385.19
						 ZM6.7 384.37 L3.47 384.37 L3.47 388.76 L4.02 388.76 L4.02 384.91 L6.16 384.91 L6.16 388.76 L6.7 388.76 L6.7
						 384.37 ZM6.49 391.27 C6.75 391.27 6.92 391.19 7.06 391.09 C7.19 390.95 7.28 390.54 7.33 389.88 L6.83 389.73
						 C6.8 390.21 6.75 390.52 6.69 390.63 C6.63 390.71 6.53 390.74 6.39 390.74 L5.99 390.74 C5.81 390.74 5.74
						 390.66 5.74 390.48 L5.74 388.8 L5.2 388.8 L5.2 390.6 C5.2 391.04 5.41 391.27 5.83 391.27 L6.49 391.27 ZM4.83
						 385.57 L4.83 386.99 C4.8 387.99 4.63 388.82 4.3 389.45 C3.94 390.06 3.33 390.54 2.46 390.91 L2.75 391.4
						 C3.66 391.02 4.3 390.49 4.71 389.84 C5.11 389.13 5.33 388.18 5.34 386.99 L5.34 385.57 L4.83 385.57 Z"
					class="st4"/>
		</g>
		<g id="shape69-137" v:mID="69" v:groupContext="shape" transform="translate(109.087,-171.729)">
			<title>工作表.110</title>
			<path d="M0 384.71 L0 385.26 L1.89 385.26 L1.89 386.01 L2.47 386.01 L2.47 385.26 L4.56 385.26 L4.56 386.01 L5.14 386.01
						 L5.14 385.26 L7.03 385.26 L7.03 384.71 L5.14 384.71 L5.14 383.99 L4.56 383.99 L4.56 384.71 L2.47 384.71
						 L2.47 383.99 L1.89 383.99 L1.89 384.71 L0 384.71 ZM1.03 385.93 L0.64 386.31 C1.17 386.68 1.61 387.04 1.9
						 387.39 L2.3 386.99 C1.97 386.64 1.55 386.29 1.03 385.93 ZM0.53 387.29 L0.14 387.67 C0.67 388.04 1.09 388.39
						 1.41 388.73 L1.8 388.34 C1.45 387.98 1.03 387.64 0.53 387.29 ZM1.47 389.03 C1.15 389.71 0.75 390.42 0.23
						 391.12 L0.76 391.4 C1.27 390.71 1.66 389.99 1.95 389.26 L1.47 389.03 ZM5.78 386.81 L5.78 388.31 C5.78 388.49
						 5.67 388.61 5.45 388.61 C5.17 388.61 4.86 388.59 4.51 388.56 L4.66 389.1 C4.98 389.12 5.31 389.12 5.67 389.12
						 C6.11 389.1 6.34 388.9 6.34 388.48 L6.34 386.29 L2.89 386.29 L2.89 390.45 C2.89 390.95 3.14 391.2 3.66 391.2
						 L5.79 391.2 C6.22 391.2 6.5 391.12 6.66 390.98 C6.81 390.81 6.92 390.34 6.98 389.57 L6.44 389.38 C6.39 389.9
						 6.33 390.25 6.25 390.42 C6.17 390.57 5.97 390.65 5.65 390.65 L3.89 390.65 C3.61 390.65 3.47 390.51 3.47
						 390.26 L3.47 386.81 L5.78 386.81 Z" class="st4"/>
		</g>
		<g id="shape70-139" v:mID="70" v:groupContext="shape" transform="translate(116.897,-171.776)">
			<title>工作表.111</title>
			<path d="M2.48 383.99 C1.97 385.26 1.14 386.38 0 387.35 L0.19 387.96 C0.61 387.6 1 387.23 1.36 386.84 L1.36 391.4 L1.94
						 391.4 L1.94 386.14 C2.38 385.54 2.74 384.92 3.02 384.25 L2.48 383.99 ZM6.17 391.26 C6.55 391.26 6.81 391.17
						 6.96 390.98 C7.1 390.78 7.19 390.21 7.25 389.31 L6.72 389.12 C6.67 389.92 6.63 390.39 6.53 390.51 C6.44
						 390.64 6.28 390.71 6.08 390.71 L4.78 390.71 C4.5 390.71 4.38 390.57 4.38 390.34 L4.38 387.64 C5.36 387.01
						 6.23 386.29 6.98 385.49 L6.58 385.04 C5.95 385.75 5.22 386.38 4.38 386.95 L4.38 384.09 L3.8 384.09 L3.8
						 387.31 C3.39 387.54 2.95 387.76 2.52 387.96 L2.77 388.51 C3.13 388.34 3.47 388.17 3.8 387.98 L3.8 390.42
						 C3.8 390.98 4.08 391.26 4.64 391.26 L6.17 391.26 Z" class="st4"/>
		</g>
		<g id="shape71-141" v:mID="71" v:groupContext="shape" transform="translate(72.609,-45.8527)">
			<title>工作表.112</title>
			<path d="M0 375.4 L62.2 375.4 L62.2 391.4 L0 391.4 L0 375.4 Z" class="st3"/>
		</g>
		<g id="shape72-143" v:mID="72" v:groupContext="shape" transform="translate(90.8059,-49.4502)">
			<title>工作表.113</title>
			<path d="M0 386.38 L0 386.96 L0.69 386.96 L0.69 391.31 L1.31 391.31 L1.31 390.82 L3.33 390.82 L3.33 386.96 L4 386.96
						 L4 386.38 L3.33 386.38 L3.33 385.49 L2.7 385.49 L2.7 386.38 L1.31 386.38 L1.31 385.48 L0.69 385.48 L0.69
						 386.38 L0 386.38 ZM1.31 390.23 L1.31 388.85 L2.7 388.85 L2.7 390.23 L1.31 390.23 ZM2.7 388.28 L1.31 388.28
						 L1.31 386.96 L2.7 386.96 L2.7 388.28 ZM3.59 383.18 L3.59 384.45 L1.25 384.45 L1.25 383.48 L0.59 383.48 L0.59
						 385.02 L7.19 385.02 L7.19 383.46 L6.53 383.46 L6.53 384.45 L4.25 384.45 L4.25 383.18 L3.59 383.18 ZM4.8
						 385.28 C4.66 386.46 4.31 387.4 3.8 388.06 L4.29 388.4 C4.62 388 4.89 387.46 5.08 386.82 L6.98 386.82 C6.87
						 387.32 6.72 387.78 6.54 388.18 L7.11 388.34 C7.31 387.79 7.48 387.21 7.62 386.64 L7.62 386.24 L5.23 386.24
						 C5.3 385.98 5.36 385.68 5.41 385.37 L4.8 385.28 ZM5.45 387.27 C5.45 388.1 5.36 388.79 5.17 389.32 C4.92
						 389.95 4.41 390.48 3.62 390.9 L4.01 391.4 C4.92 390.88 5.51 390.25 5.77 389.46 L5.78 389.4 C6.2 390.2 6.84
						 390.87 7.67 391.4 L8.08 390.92 C7.08 390.34 6.37 389.56 5.95 388.57 C6.01 388.17 6.05 387.74 6.05 387.27
						 L5.45 387.27 Z" class="st4"/>
		</g>
		<g id="shape73-145" v:mID="73" v:groupContext="shape" transform="translate(99.5539,-49.5733)">
			<title>工作表.114</title>
			<path d="M3.77 385.35 C3.19 387.74 1.94 389.59 0 390.84 L0.39 391.4 C2.28 390.16 3.53 388.4 4.13 386.1 C4.17 386.21 4.2
						 386.34 4.27 386.49 C5.19 388.87 6.38 390.51 7.85 391.38 L8.25 390.87 C6.81 389.98 5.69 388.45 4.85 386.31
						 C4.3 384.84 3.61 383.82 2.81 383.26 L2.28 383.6 C2.84 384.02 3.35 384.6 3.77 385.35 Z" class="st4"/>
		</g>
		<g id="shape74-147" v:mID="74" v:groupContext="shape" transform="translate(108.633,-49.4795)">
			<title>工作表.115</title>
			<path d="M2.5 386.62 L2.5 387.2 L7.37 387.2 L7.37 386.62 L2.5 386.62 ZM1.86 388.09 L1.86 388.68 L3.83 388.68 C3.2 389.69
						 2.67 390.32 2.28 390.56 C2.24 390.57 2.2 390.6 2.14 390.62 L2.28 391.17 C3.98 391.05 5.55 390.9 6.97 390.71
						 C7.16 390.93 7.31 391.17 7.47 391.4 L7.98 391.04 C7.59 390.46 7.02 389.77 6.28 388.99 L5.8 389.29 C6.06
						 389.6 6.33 389.9 6.58 390.2 C5.42 390.37 4.25 390.49 3.06 390.57 C3.48 390.2 3.97 389.55 4.51 388.68 L7.97
						 388.68 L7.97 388.09 L1.86 388.09 ZM6.88 384.13 L6.88 385.18 L1.58 385.18 L1.58 384.13 L6.88 384.13 ZM1.58
						 385.76 L7.5 385.76 L7.5 383.52 L0.95 383.52 L0.95 386.51 C0.94 388.32 0.62 389.79 0 390.93 L0.47 391.37
						 C1.2 390.01 1.58 388.38 1.58 386.51 L1.58 385.76 Z" class="st4"/>
		</g>
		<g id="group75-149" transform="translate(103.711,-61.8545)" v:mID="75" v:groupContext="group">
			<title>工作表.116</title>
			<g id="shape76-150" v:mID="76" v:groupContext="shape">
				<title>工作表.76</title>
				<path d="M0 391.4 L0 385 L0 391.4 Z" class="st5"/>
			</g>
			<g id="shape77-152" v:mID="77" v:groupContext="shape">
				<title>工作表.77</title>
				<path d="M0 391.4 L0 385 L0 391.4 Z" class="st6"/>
				<path d="M0 391.4 L0 385" class="st7"/>
			</g>
		</g>
		<g id="group78-155" transform="translate(102.211,-68.2559)" v:mID="78" v:groupContext="group">
			<title>工作表.117</title>
			<g id="shape79-156" v:mID="79" v:groupContext="shape">
				<title>工作表.79</title>
				<path d="M1.5 387.4 L1.5 391.4 L1.5 387.4 ZM0 391.4 L1.5 387.4 L3 391.4 L0 391.4 Z" class="st5"/>
			</g>
			<g id="shape80-158" v:mID="80" v:groupContext="shape">
				<title>工作表.80</title>
				<path d="M1.5 387.4 L1.5 391.4 L1.5 387.4 ZM0 391.4 L1.5 387.4 L3 391.4 L0 391.4 Z" class="st6"/>
				<path d="M1.5 387.4 L1.5 391.4M0 391.4 L1.5 387.4 L3 391.4" class="st8"/>
			</g>
		</g>
		<g id="group81-161" transform="translate(103.711,-90.1553)" v:mID="81" v:groupContext="group">
			<title>工作表.118</title>
			<g id="shape82-162" v:mID="82" v:groupContext="shape">
				<title>工作表.82</title>
				<path d="M0 391.4 L0 365.79 L0 391.4 Z" class="st5"/>
			</g>
			<g id="shape83-164" v:mID="83" v:groupContext="shape">
				<title>工作表.83</title>
				<path d="M0 391.4 L0 365.79 L0 391.4 Z" class="st6"/>
				<path d="M0 391.4 L0 365.79" class="st7"/>
			</g>
		</g>
		<g id="group84-167" transform="translate(102.211,-115.767)" v:mID="84" v:groupContext="group">
			<title>工作表.119</title>
			<g id="shape85-168" v:mID="85" v:groupContext="shape">
				<title>工作表.85</title>
				<path d="M1.5 387.4 L1.5 391.4 L1.5 387.4 ZM0 391.4 L1.5 387.4 L3 391.4 L0 391.4 Z" class="st5"/>
			</g>
			<g id="shape86-170" v:mID="86" v:groupContext="shape">
				<title>工作表.86</title>
				<path d="M1.5 387.4 L1.5 391.4 L1.5 387.4 ZM0 391.4 L1.5 387.4 L3 391.4 L0 391.4 Z" class="st6"/>
				<path d="M1.5 387.4 L1.5 391.4M0 391.4 L1.5 387.4 L3 391.4" class="st8"/>
			</g>
		</g>
		<g id="group87-173" transform="translate(103.711,-157.89)" v:mID="87" v:groupContext="group">
			<title>工作表.120</title>
			<g id="shape88-174" v:mID="88" v:groupContext="shape">
				<title>工作表.88</title>
				<path d="M0 391.4 L0 388.1 L0 391.4 Z" class="st5"/>
			</g>
			<g id="shape89-176" v:mID="89" v:groupContext="shape">
				<title>工作表.89</title>
				<path d="M0 391.4 L0 388.1 L0 391.4 Z" class="st6"/>
				<path d="M0 391.4 L0 388.1" class="st7"/>
			</g>
		</g>
		<g id="group90-179" transform="translate(102.211,-161.188)" v:mID="90" v:groupContext="group">
			<title>工作表.121</title>
			<g id="shape91-180" v:mID="91" v:groupContext="shape">
				<title>工作表.91</title>
				<path d="M1.5 387.4 L1.5 391.4 L1.5 387.4 ZM0 391.4 L1.5 387.4 L3 391.4 L0 391.4 Z" class="st5"/>
			</g>
			<g id="shape92-182" v:mID="92" v:groupContext="shape">
				<title>工作表.92</title>
				<path d="M1.5 387.4 L1.5 391.4 L1.5 387.4 ZM0 391.4 L1.5 387.4 L3 391.4 L0 391.4 Z" class="st6"/>
				<path d="M1.5 387.4 L1.5 391.4M0 391.4 L1.5 387.4 L3 391.4" class="st8"/>
			</g>
		</g>
		<g id="shape93-185" v:mID="93" v:groupContext="shape" transform="translate(96.1959,-18.75)">
			<title>工作表.122</title>
			<path d="M6.05 383.59 L0 383.59 L0 391.4 L0.66 391.4 L0.66 390.81 L5.39 390.81 L5.39 391.39 L6.05 391.39 L6.05 383.59
						 ZM0.66 390.17 L0.66 388.48 L5.39 388.48 L5.39 390.17 L0.66 390.17 ZM0.66 387.88 L0.66 386.31 L5.39 386.31
						 L5.39 387.88 L0.66 387.88 ZM0.66 385.71 L0.66 384.21 L5.39 384.21 L5.39 385.71 L0.66 385.71 Z" class="st4"/>
		</g>
		<g id="shape94-187" v:mID="94" v:groupContext="shape" transform="translate(104.039,-18.7646)">
			<title>工作表.123</title>
			<path d="M1.39 383.18 L1.39 384.88 L0.3 384.88 L0.3 385.51 L1.39 385.51 C1.11 386.63 0.66 387.65 0 388.54 L0.28 389.24
						 C0.74 388.54 1.11 387.76 1.39 386.91 L1.39 391.4 L2.03 391.4 L2.03 386.89 C2.3 387.23 2.61 387.68 2.99 388.24
						 L3.36 387.7 C2.91 387.15 2.47 386.65 2.03 386.2 L2.03 385.51 L3.08 385.51 L3.08 384.88 L2.03 384.88 L2.03
						 383.18 L1.39 383.18 ZM4.05 387.24 C3.8 388.37 3.39 389.37 2.83 390.29 L3.39 390.65 C3.92 389.73 4.36 388.65
						 4.64 387.38 L4.05 387.24 ZM7.3 387.21 L6.72 387.4 C7.06 388.37 7.39 389.48 7.69 390.73 L8.28 390.46 C8 389.31
						 7.69 388.23 7.3 387.21 ZM5.28 391.31 C5.81 391.31 6.08 391.04 6.08 390.51 L6.08 386.51 L8.28 386.51 L8.28
						 385.88 L3.23 385.88 L3.23 386.51 L5.44 386.51 L5.44 390.35 C5.44 390.6 5.31 390.74 5.06 390.74 C4.8 390.74
						 4.53 390.73 4.25 390.71 L4.37 391.31 L5.28 391.31 ZM3.72 383.7 L3.72 384.31 L7.81 384.31 L7.81 383.7 L3.72
						 383.7 Z" class="st4"/>
		</g>
		<g id="group95-189" transform="translate(103.711,-34.6554)" v:mID="95" v:groupContext="group">
			<title>工作表.124</title>
			<g id="shape96-190" v:mID="96" v:groupContext="shape">
				<title>工作表.96</title>
				<path d="M0 391.4 L0 386.1 L0 391.4 Z" class="st5"/>
			</g>
			<g id="shape97-192" v:mID="97" v:groupContext="shape">
				<title>工作表.97</title>
				<path d="M0 391.4 L0 386.1 L0 391.4 Z" class="st6"/>
				<path d="M0 391.4 L0 386.1" class="st7"/>
			</g>
		</g>
		<g id="group98-195" transform="translate(102.211,-39.9552)" v:mID="98" v:groupContext="group">
			<title>工作表.125</title>
			<g id="shape99-196" v:mID="99" v:groupContext="shape">
				<title>工作表.99</title>
				<path d="M1.5 387.4 L1.5 391.4 L1.5 387.4 ZM0 391.4 L1.5 387.4 L3 391.4 L0 391.4 Z" class="st5"/>
			</g>
			<g id="shape100-198" v:mID="100" v:groupContext="shape">
				<title>工作表.100</title>
				<path d="M1.5 387.4 L1.5 391.4 L1.5 387.4 ZM0 391.4 L1.5 387.4 L3 391.4 L0 391.4 Z" class="st6"/>
				<path d="M1.5 387.4 L1.5 391.4M0 391.4 L1.5 387.4 L3 391.4" class="st8"/>
			</g>
		</g>
		<g id="group101-201" transform="translate(112.866,-110.681)" v:mID="101" v:groupContext="group">
			<title>工作表.126</title>
			<g id="shape102-202" v:mID="102" v:groupContext="shape">
				<title>工作表.102</title>
				<path d="M0 391.4 L29.02 391.4 C31.22 391.4 33.01 389.62 33.02 387.42 L33.26 330.17 C33.28 327.97 31.49 326.16 29.28
							 326.16 C29.25 326.16 29.21 326.16 29.18 326.16 L27.84 326.19 L0 391.4 Z" class="st5"/>
			</g>
			<g id="shape103-204" v:mID="103" v:groupContext="shape">
				<title>工作表.103</title>
				<path d="M0 391.4 L29.02 391.4 C31.22 391.4 33.01 389.62 33.02 387.42 L33.26 330.17 C33.28 327.97 31.49 326.16 29.28
							 326.16 C29.25 326.16 29.21 326.16 29.18 326.16 L27.84 326.19 L0 391.4 Z" class="st6"/>
				<path d="M0 391.4 L29.02 391.4 C31.22 391.4 33.01 389.62 33.02 387.42 L33.26 330.17 C33.28 327.97 31.49 326.16 29.28
							 326.16 C29.25 326.16 29.21 326.16 29.18 326.16 L27.84 326.19" class="st7"/>
			</g>
		</g>
		<g id="group104-207" transform="translate(136.711,-174.396)" v:mID="104" v:groupContext="group">
			<title>工作表.127</title>
			<g id="shape105-208" v:mID="105" v:groupContext="shape">
				<title>工作表.105</title>
				<path d="M0 389.99 L4 389.9 L0 389.99 ZM4.03 391.4 L0 389.99 L3.96 388.4 L4.03 391.4 Z" class="st5"/>
			</g>
			<g id="shape106-210" v:mID="106" v:groupContext="shape">
				<title>工作表.106</title>
				<path d="M0 389.99 L4 389.9 L0 389.99 ZM4.03 391.4 L0 389.99 L3.96 388.4 L4.03 391.4 Z" class="st6"/>
				<path d="M0 389.99 L4 389.9M4.03 391.4 L0 389.99 L3.96 388.4" class="st8"/>
			</g>
		</g>
		<g id="group107-213" transform="translate(103.913,-110.681)" v:mID="107" v:groupContext="group">
			<title>工作表.128</title>
			<g id="shape108-214" v:mID="108" v:groupContext="shape">
				<title>工作表.108</title>
				<path d="M0 391.4 L12 391.4 C14.21 391.4 16 389.61 16 387.4 L16 386.31 L0 391.4 Z" class="st5"/>
			</g>
			<g id="shape109-216" v:mID="109" v:groupContext="shape">
				<title>工作表.109</title>
				<path d="M0 391.4 L12 391.4 C14.21 391.4 16 389.61 16 387.4 L16 386.31 L0 391.4 Z" class="st6"/>
				<path d="M0 391.4 L12 391.4 C14.21 391.4 16 389.61 16 387.4 L16 386.31" class="st7"/>
			</g>
		</g>
		<g id="group110-219" transform="translate(118.415,-115.767)" v:mID="110" v:groupContext="group">
			<title>工作表.129</title>
			<g id="shape111-220" v:mID="111" v:groupContext="shape">
				<title>工作表.111</title>
				<path d="M1.5 387.4 L1.5 391.4 L1.5 387.4 ZM0 391.4 L1.5 387.4 L3 391.4 L0 391.4 Z" class="st5"/>
			</g>
			<g id="shape112-222" v:mID="112" v:groupContext="shape">
				<title>工作表.112</title>
				<path d="M1.5 387.4 L1.5 391.4 L1.5 387.4 ZM0 391.4 L1.5 387.4 L3 391.4 L0 391.4 Z" class="st6"/>
				<path d="M1.5 387.4 L1.5 391.4M0 391.4 L1.5 387.4 L3 391.4" class="st8"/>
			</g>
		</g>
		<g id="group113-225" transform="translate(87.8169,-110.681)" v:mID="113" v:groupContext="group">
			<title>工作表.130</title>
			<g id="shape114-226" v:mID="114" v:groupContext="shape">
				<title>工作表.114</title>
				<path d="M16.1 391.4 L4 391.4 C1.79 391.4 0 389.61 0 387.4 L0 386.31 L16.1 391.4 Z" class="st5"/>
			</g>
			<g id="shape115-228" v:mID="115" v:groupContext="shape">
				<title>工作表.115</title>
				<path d="M16.1 391.4 L4 391.4 C1.79 391.4 0 389.61 0 387.4 L0 386.31 L16.1 391.4 Z" class="st6"/>
				<path d="M16.1 391.4 L4 391.4 C1.79 391.4 0 389.61 0 387.4 L0 386.31" class="st7"/>
			</g>
		</g>
		<g id="group116-231" transform="translate(86.3169,-115.767)" v:mID="116" v:groupContext="group">
			<title>工作表.131</title>
			<g id="shape117-232" v:mID="117" v:groupContext="shape">
				<title>工作表.117</title>
				<path d="M1.5 387.4 L1.5 391.4 L1.5 387.4 ZM0 391.4 L1.5 387.4 L3 391.4 L0 391.4 Z" class="st5"/>
			</g>
			<g id="shape118-234" v:mID="118" v:groupContext="shape">
				<title>工作表.118</title>
				<path d="M1.5 387.4 L1.5 391.4 L1.5 387.4 ZM0 391.4 L1.5 387.4 L3 391.4 L0 391.4 Z" class="st6"/>
				<path d="M1.5 387.4 L1.5 391.4M0 391.4 L1.5 387.4 L3 391.4" class="st8"/>
			</g>
		</g>
		<g id="group119-237" transform="translate(103.813,-183.088)" v:mID="119" v:groupContext="group">
			<title>工作表.132</title>
			<g id="shape120-238" v:mID="120" v:groupContext="shape">
				<title>工作表.120</title>
				<path d="M0 391.4 L0.06 386.84 C0.08 385.2 1.42 383.89 3.06 383.89 L12.87 383.89 C14.5 383.89 15.83 382.58 15.87
							 380.95 L15.91 379 L0 391.4 Z" class="st5"/>
			</g>
			<g id="shape121-240" v:mID="121" v:groupContext="shape">
				<title>工作表.121</title>
				<path d="M0 391.4 L0.06 386.84 C0.08 385.2 1.42 383.89 3.06 383.89 L12.87 383.89 C14.5 383.89 15.83 382.58 15.87
							 380.95 L15.91 379 L0 391.4 Z" class="st6"/>
				<path d="M0 391.4 L0.06 386.84 C0.08 385.2 1.42 383.89 3.06 383.89 L12.87 383.89 C14.5 383.89 15.83 382.58 15.87
							 380.95 L15.91 379" class="st7"/>
			</g>
		</g>
		<g id="group122-243" transform="translate(118.227,-195.448)" v:mID="122" v:groupContext="group">
			<title>工作表.133</title>
			<g id="shape123-244" v:mID="123" v:groupContext="shape">
				<title>工作表.123</title>
				<path d="M1.59 387.37 L1.5 391.36 L1.59 387.37 ZM0 391.33 L1.59 387.37 L3 391.4 L0 391.33 Z" class="st5"/>
			</g>
			<g id="shape124-246" v:mID="124" v:groupContext="shape">
				<title>工作表.124</title>
				<path d="M1.59 387.37 L1.5 391.36 L1.59 387.37 ZM0 391.33 L1.59 387.37 L3 391.4 L0 391.33 Z" class="st6"/>
				<path d="M1.59 387.37 L1.5 391.36M0 391.33 L1.59 387.37 L3 391.4" class="st8"/>
			</g>
		</g>
		<g id="group125-249" transform="translate(80.4049,-191.001)" v:mID="125" v:groupContext="group">
			<title>工作表.134</title>
			<g id="shape126-250" v:mID="126" v:groupContext="shape">
				<title>工作表.126</title>
				<path d="M0 391.4 L19.43 391.28 C21.59 391.27 23.35 389.54 23.4 387.37 L23.41 386.92 L0 391.4 Z" class="st5"/>
			</g>
			<g id="shape127-252" v:mID="127" v:groupContext="shape">
				<title>工作表.127</title>
				<path d="M0 391.4 L19.43 391.28 C21.59 391.27 23.35 389.54 23.4 387.37 L23.41 386.92 L0 391.4 Z" class="st6"/>
				<path d="M0 391.4 L19.43 391.28 C21.59 391.27 23.35 389.54 23.4 387.37 L23.41 386.92" class="st7"/>
			</g>
		</g>
		<g id="group128-255" transform="translate(102.319,-195.448)" v:mID="128" v:groupContext="group">
			<title>工作表.135</title>
			<g id="shape129-256" v:mID="129" v:groupContext="shape">
				<title>工作表.129</title>
				<path d="M1.6 387.37 L1.5 391.36 L1.6 387.37 ZM0 391.33 L1.6 387.37 L3 391.4 L0 391.33 Z" class="st5"/>
			</g>
			<g id="shape130-258" v:mID="130" v:groupContext="shape">
				<title>工作表.130</title>
				<path d="M1.6 387.37 L1.5 391.36 L1.6 387.37 ZM0 391.33 L1.6 387.37 L3 391.4 L0 391.33 Z" class="st6"/>
				<path d="M1.6 387.37 L1.5 391.36M0 391.33 L1.6 387.37 L3 391.4" class="st8"/>
			</g>
		</g>
		<g id="group131-261" transform="translate(106.872,-190.603)" v:mID="131" v:groupContext="group">
			<title>工作表.136</title>
			<g id="shape132-262" v:mID="132" v:groupContext="shape">
				<title>工作表.132</title>
				<path d="M0 391.4 L35.14 391.13 C37.34 391.11 39.12 389.33 39.11 387.13 L39.05 338.86 C39.05 336.66 37.26 334.87
							 35.04 334.87 C35 334.87 34.95 334.87 34.9 334.87 L34.19 334.9 L0 391.4 Z" class="st5"/>
			</g>
			<g id="shape133-264" v:mID="133" v:groupContext="shape">
				<title>工作表.133</title>
				<path d="M0 391.4 L35.14 391.13 C37.34 391.11 39.12 389.33 39.11 387.13 L39.05 338.86 C39.05 336.66 37.26 334.87
							 35.04 334.87 C35 334.87 34.95 334.87 34.9 334.87 L34.19 334.9 L0 391.4 Z" class="st6"/>
				<path d="M0 391.4 L35.14 391.13 C37.34 391.11 39.12 389.33 39.11 387.13 L39.05 338.86 C39.05 336.66 37.26 334.87
							 35.04 334.87 C35 334.87 34.95 334.87 34.9 334.87 L34.19 334.9" class="st7"/>
			</g>
		</g>
		<g id="group134-267" transform="translate(137.062,-245.604)" v:mID="134" v:groupContext="group">
			<title>工作表.137</title>
			<g id="shape135-268" v:mID="135" v:groupContext="shape">
				<title>工作表.135</title>
				<path d="M0 390.05 L4 389.9 L0 390.05 ZM4.05 391.4 L0 390.05 L3.94 388.4 L4.05 391.4 Z" class="st5"/>
			</g>
			<g id="shape136-270" v:mID="136" v:groupContext="shape">
				<title>工作表.136</title>
				<path d="M0 390.05 L4 389.9 L0 390.05 ZM4.05 391.4 L0 390.05 L3.94 388.4 L4.05 391.4 Z" class="st6"/>
				<path d="M0 390.05 L4 389.9M4.05 391.4 L0 390.05 L3.94 388.4" class="st8"/>
			</g>
		</g>
		<g id="group137-273" transform="translate(104.464,-259.808)" v:mID="137" v:groupContext="group">
			<title>工作表.138</title>
			<g id="shape138-274" v:mID="138" v:groupContext="shape">
				<title>工作表.138</title>
				<path d="M0 391.4 L37.15 391.4 C39.36 391.4 41.15 389.61 41.15 387.4 L41.15 338.44 C41.15 336.23 39.36 334.44 37.15
							 334.44 C37.04 334.44 36.92 334.44 36.81 334.45 L36.22 334.5 L0 391.4 Z" class="st5"/>
			</g>
			<g id="shape139-276" v:mID="139" v:groupContext="shape">
				<title>工作表.139</title>
				<path d="M0 391.4 L37.15 391.4 C39.36 391.4 41.15 389.61 41.15 387.4 L41.15 338.44 C41.15 336.23 39.36 334.44 37.15
							 334.44 C37.04 334.44 36.92 334.44 36.81 334.45 L36.22 334.5 L0 391.4 Z" class="st6"/>
				<path d="M0 391.4 L37.15 391.4 C39.36 391.4 41.15 389.61 41.15 387.4 L41.15 338.44 C41.15 336.23 39.36 334.44 37.15
							 334.44 C37.04 334.44 36.92 334.44 36.81 334.45 L36.22 334.5" class="st7"/>
			</g>
		</g>
		<g id="group140-279" transform="translate(136.702,-315.214)" v:mID="140" v:groupContext="group">
			<title>工作表.139</title>
			<g id="shape141-280" v:mID="141" v:groupContext="shape">
				<title>工作表.141</title>
				<path d="M0 390.26 L3.98 389.91 L0 390.26 ZM4.12 391.4 L0 390.26 L3.86 388.41 L4.12 391.4 Z" class="st5"/>
			</g>
			<g id="shape142-282" v:mID="142" v:groupContext="shape">
				<title>工作表.142</title>
				<path d="M0 390.26 L3.98 389.91 L0 390.26 ZM4.12 391.4 L0 390.26 L3.86 388.41 L4.12 391.4 Z" class="st6"/>
				<path d="M0 390.26 L3.98 389.91M4.12 391.4 L0 390.26 L3.86 388.41" class="st8"/>
			</g>
		</g>
		<g id="group143-285" transform="translate(103.796,-321.472)" v:mID="143" v:groupContext="group">
			<title>工作表.140</title>
			<g id="shape144-286" v:mID="144" v:groupContext="shape">
				<title>工作表.144</title>
				<path d="M0 391.4 L0.12 379.92 L0 391.4 Z" class="st5"/>
			</g>
			<g id="shape145-288" v:mID="145" v:groupContext="shape">
				<title>工作表.145</title>
				<path d="M0 391.4 L0.12 379.92 L0 391.4 Z" class="st6"/>
				<path d="M0 391.4 L0.12 379.92" class="st7"/>
			</g>
		</g>
		<g id="group146-291" transform="translate(102.419,-332.938)" v:mID="146" v:groupContext="group">
			<title>工作表.141</title>
			<g id="shape147-292" v:mID="147" v:groupContext="shape">
				<title>工作表.147</title>
				<path d="M1.54 387.38 L1.5 391.38 L1.54 387.38 ZM0 391.37 L1.54 387.38 L3 391.4 L0 391.37 Z" class="st5"/>
			</g>
			<g id="shape148-294" v:mID="148" v:groupContext="shape">
				<title>工作表.148</title>
				<path d="M1.54 387.38 L1.5 391.38 L1.54 387.38 ZM0 391.37 L1.54 387.38 L3 391.4 L0 391.37 Z" class="st6"/>
				<path d="M1.54 387.38 L1.5 391.38M0 391.37 L1.54 387.38 L3 391.4" class="st8"/>
			</g>
		</g>
		<g id="group149-297" transform="translate(162.75,-219.205)" v:mID="149" v:groupContext="group">
			<title>clip1</title>
			<g id="shape150-298" v:mID="150" v:groupContext="shape">
				<title>工作表.143</title>
				<path d="M0 386.9 L4.75 386.9 L4.75 391.4 L0 391.4 L0 386.9 Z" class="st4"/>
			</g>
		</g>
		<g id="shape151-300" v:mID="151" v:groupContext="shape" transform="translate(170.191,-219.076)">
			<title>工作表.144</title>
			<path d="M4.01 390.27 C3.95 390.35 3.89 390.43 3.83 390.51 C3.56 390.84 3.4 390.98 3.28 390.98 C3.17 390.98 3.14 390.9
						 3.14 390.82 C3.14 390.74 3.17 390.59 3.26 390.27 L3.76 388.45 C3.81 388.26 3.86 388.06 3.86 387.9 C3.86
						 387.57 3.66 387.35 3.26 387.35 C2.69 387.35 2.09 387.9 1.19 389.34 L1.8 387.37 L1.75 387.35 C1.28 387.45
						 1.03 387.49 0.3 387.64 L0.3 387.78 C0.75 387.79 0.89 387.84 0.89 388.03 C0.89 388.07 0.87 388.14 0.86 388.17
						 L0 391.32 L0.67 391.32 C1.09 389.9 1.17 389.7 1.58 389.09 C2.14 388.26 2.55 387.81 2.91 387.81 C3.05 387.81
						 3.12 387.92 3.12 388.07 C3.12 388.18 3.06 388.51 3 388.79 L2.61 390.25 C2.47 390.71 2.45 390.82 2.45 390.92
						 C2.45 391.26 2.65 391.4 2.87 391.4 C3.3 391.4 3.53 391.23 4.14 390.39 L4.01 390.27 Z" class="st4"/>
		</g>
		<g id="shape152-302" v:mID="152" v:groupContext="shape" transform="translate(18.75,-187.307)">
			<title>工作表.148</title>
			<path d="M2.34 389.48 C1.7 389.81 0.95 390.06 0.11 390.24 L0.19 390.88 C1 390.68 1.72 390.42 2.34 390.09 L2.34 389.48
						 ZM1.42 383.12 C1.09 384.17 0.7 385.09 0.25 385.9 C0.19 386.01 0.09 386.09 0 386.14 L0.16 386.71 C0.64 386.63
						 1.11 386.56 1.59 386.46 C1.13 387.29 0.73 387.87 0.42 388.21 C0.34 388.29 0.23 388.35 0.12 388.4 L0.3 388.98
						 C1.03 388.87 1.8 388.68 2.61 388.41 L2.61 387.84 C2.09 388.02 1.58 388.17 1.06 388.27 C1.55 387.66 2.17
						 386.63 2.92 385.18 L2.36 384.96 C2.2 385.29 2.03 385.6 1.89 385.88 C1.51 385.96 1.13 386.02 0.73 386.09
						 C1.17 385.41 1.61 384.49 2.03 383.35 L1.42 383.12 ZM7.31 391.37 C7.72 391.37 7.92 391.15 7.92 390.74 L7.92
						 387.12 L3.81 387.12 L3.81 391.4 L4.34 391.4 L4.34 389.4 L5.04 389.4 L5.04 391.24 L5.53 391.24 L5.53 389.4
						 L6.19 389.4 L6.19 391.24 L6.66 391.24 L6.66 389.4 L7.39 389.4 L7.39 390.6 C7.39 390.79 7.29 390.88 7.14
						 390.88 L6.78 390.87 L6.92 391.37 L7.31 391.37 ZM4.34 388.85 L4.34 387.68 L5.04 387.68 L5.04 388.85 L4.34
						 388.85 ZM5.53 387.68 L6.19 387.68 L6.19 388.85 L5.53 388.85 L5.53 387.68 ZM6.66 387.68 L7.39 387.68 L7.39
						 388.85 L6.66 388.85 L6.66 387.68 ZM7.29 384.62 L7.29 385.77 L3.78 385.77 L3.78 384.62 L7.29 384.62 ZM3.78
						 386.34 L7.89 386.34 L7.89 384.06 L5.86 384.06 C5.75 383.7 5.64 383.37 5.51 383.1 L4.84 383.2 C4.98 383.46
						 5.11 383.74 5.23 384.06 L3.19 384.06 L3.19 386.24 C3.17 388.17 2.81 389.74 2.09 390.98 L2.56 391.39 C3.34
						 389.98 3.75 388.29 3.78 386.34 Z" class="st4"/>
		</g>
		<g id="shape153-304" v:mID="153" v:groupContext="shape" transform="translate(27.686,-187.368)">
			<title>工作表.149</title>
			<path d="M3.09 386.37 L1.44 386.37 C1.67 385.73 1.85 385.05 1.97 384.34 L3.33 384.34 L3.33 383.71 L0.25 383.71 L0.25
						 384.34 L1.36 384.34 C1.14 385.68 0.69 386.87 0 387.91 L0.33 388.45 C0.55 388.13 0.74 387.82 0.92 387.49
						 L0.92 391.17 L1.53 391.17 L1.53 390.48 L2.5 390.48 L2.5 390.99 L3.09 390.99 L3.09 386.37 ZM1.53 389.88 L1.53
						 386.96 L2.5 386.96 L2.5 389.88 L1.53 389.88 ZM4.3 384.82 L3.81 387.74 L7.45 387.74 C7.45 389.18 7.38 390.06
						 7.24 390.35 C7.11 390.65 6.69 390.81 6 390.81 C5.83 390.81 5.56 390.77 5.16 390.74 L5.34 391.37 C5.62 391.4
						 5.89 391.4 6.16 391.4 C6.94 391.4 7.45 391.23 7.71 390.9 C7.94 390.57 8.06 389.32 8.06 387.13 L7.11 387.13
						 L7.61 383.59 L3.74 383.59 L3.74 384.2 L6.91 384.2 L6.45 387.13 L4.55 387.13 L4.94 384.87 L4.3 384.82 ZM3.55
						 388.88 L3.55 389.49 L6.83 389.49 L6.83 388.88 L3.55 388.88 Z" class="st4"/>
		</g>
		<g id="shape154-306" v:mID="154" v:groupContext="shape" transform="translate(36.718,-187.307)">
			<title>工作表.150</title>
			<path d="M0.92 383.48 L0.92 385.67 L3.66 385.67 L3.66 383.48 L0.92 383.48 ZM3.06 385.12 L1.5 385.12 L1.5 384.04 L3.06
						 384.04 L3.06 385.12 ZM4.66 383.48 L4.66 385.67 L7.45 385.67 L7.45 383.48 L4.66 383.48 ZM6.88 385.12 L5.25
						 385.12 L5.25 384.04 L6.88 384.04 L6.88 385.12 ZM0.19 386.57 L0.19 387.15 L2.67 387.15 C2.05 387.68 1.16
						 388.13 0 388.46 L0.3 388.99 C0.56 388.92 0.8 388.84 1.05 388.74 L1.05 391.4 L1.61 391.4 L1.61 391.01 L3.14
						 391.01 L3.14 391.4 L3.72 391.4 L3.72 388.57 L1.47 388.57 C2.31 388.2 2.99 387.73 3.48 387.15 L5.02 387.15
						 C5.47 387.7 6.13 388.17 6.98 388.57 L4.59 388.57 L4.59 391.4 L5.17 391.4 L5.17 391.01 L6.84 391.01 L6.84
						 391.4 L7.42 391.4 L7.42 388.76 C7.63 388.82 7.83 388.92 8.05 388.98 L8.31 388.43 C7.16 388.12 6.28 387.68
						 5.69 387.15 L8.12 387.15 L8.12 386.57 L6.89 386.57 C6.74 386.29 6.58 386.02 6.39 385.77 L5.84 385.96 C5.99
						 386.14 6.13 386.34 6.25 386.57 L3.92 386.57 C4.05 386.35 4.17 386.14 4.25 385.9 L3.64 385.84 C3.53 386.09
						 3.39 386.34 3.22 386.57 L0.19 386.57 ZM1.61 390.46 L1.61 389.1 L3.14 389.1 L3.14 390.46 L1.61 390.46 ZM5.17
						 390.46 L5.17 389.1 L6.84 389.1 L6.84 390.46 L5.17 390.46 Z" class="st4"/>
		</g>
		<g id="shape155-308" v:mID="155" v:groupContext="shape" transform="translate(90.5859,-364.286)">
			<title>工作表.151</title>
			<path d="M4.97 387.92 L6.03 387.92 L6.03 389.01 L4.08 389.01 L4.08 389.59 L6.03 389.59 L6.03 391.35 L6.66 391.35 L6.66
						 389.59 L8.19 389.59 L8.19 389.01 L6.66 389.01 L6.66 387.92 L8 387.92 L8 387.32 L6.66 387.32 L6.66 386.49
						 L6.03 386.49 L6.03 387.32 L5.2 387.32 C5.26 387.12 5.31 386.9 5.36 386.65 L4.83 386.56 C4.69 387.27 4.44
						 387.84 4.03 388.27 L4.41 388.73 C4.63 388.49 4.81 388.23 4.97 387.92 ZM5.34 384.2 C5.28 384.49 5.17 384.76
						 5.05 384.99 C4.84 385.31 4.53 385.6 4.14 385.84 L4.51 386.32 C4.97 386.02 5.33 385.67 5.56 385.29 C5.73
						 384.98 5.86 384.6 5.95 384.2 L7.28 384.2 C7.25 384.84 7.22 385.24 7.17 385.4 C7.11 385.56 6.95 385.63 6.7
						 385.65 C6.48 385.63 6.23 385.62 5.92 385.6 L6.08 386.14 C6.36 386.15 6.62 386.18 6.83 386.18 C7.22 386.18
						 7.49 386.04 7.66 385.82 C7.81 385.57 7.89 384.84 7.89 383.62 L4.14 383.62 L4.14 384.2 L5.34 384.2 ZM1.09
						 387.45 L1.91 387.45 L1.91 388.62 L1.08 388.62 C1.08 388.56 1.09 388.49 1.09 388.41 L1.09 387.45 ZM1.06 389.16
						 L1.91 389.16 L1.91 391.21 L2.44 391.21 L2.44 389.16 L3.27 389.16 L3.27 390.42 C3.27 390.64 3.17 390.76 2.97
						 390.76 C2.83 390.76 2.67 390.74 2.5 390.71 L2.66 391.26 L3.16 391.26 C3.59 391.26 3.81 391.04 3.81 390.62
						 L3.81 385.21 L2.73 385.21 C2.94 384.95 3.14 384.6 3.34 384.2 L3.34 383.76 L1.73 383.76 C1.81 383.57 1.89
						 383.37 1.97 383.18 L1.37 383.04 C1.03 383.98 0.59 384.73 0.05 385.31 L0.44 385.79 C0.47 385.74 0.5 385.73
						 0.53 385.68 L0.53 388.45 C0.53 389.48 0.34 390.34 0 390.99 L0.44 391.4 C0.76 390.81 0.97 390.06 1.06 389.16
						 ZM2.08 385.21 L0.91 385.21 C1.11 384.93 1.31 384.62 1.49 384.29 L2.66 384.29 C2.45 384.64 2.26 384.95 2.08
						 385.21 ZM3.27 388.62 L2.44 388.62 L2.44 387.45 L3.27 387.45 L3.27 388.62 ZM3.27 386.9 L2.44 386.9 L2.44
						 385.77 L3.27 385.77 L3.27 386.9 ZM1.91 385.77 L1.91 386.9 L1.09 386.9 L1.09 385.77 L1.91 385.77 Z"
					class="st4"/>
		</g>
		<g id="shape156-310" v:mID="156" v:groupContext="shape" transform="translate(99.5239,-364.412)">
			<title>工作表.152</title>
			<path d="M3.09 386.37 L1.44 386.37 C1.67 385.73 1.84 385.06 1.97 384.34 L3.33 384.34 L3.33 383.71 L0.25 383.71 L0.25
						 384.34 L1.36 384.34 C1.14 385.68 0.69 386.87 0 387.92 L0.33 388.45 C0.54 388.14 0.73 387.82 0.92 387.49
						 L0.92 391.17 L1.53 391.17 L1.53 390.48 L2.5 390.48 L2.5 391 L3.09 391 L3.09 386.37 ZM1.53 389.89 L1.53 386.96
						 L2.5 386.96 L2.5 389.89 L1.53 389.89 ZM4.29 384.82 L3.81 387.74 L7.45 387.74 C7.45 389.18 7.37 390.06 7.23
						 390.35 C7.11 390.65 6.69 390.81 6 390.81 C5.83 390.81 5.56 390.78 5.16 390.74 L5.34 391.37 C5.62 391.4 5.89
						 391.4 6.16 391.4 C6.94 391.4 7.45 391.23 7.7 390.9 C7.94 390.57 8.06 389.32 8.06 387.13 L7.11 387.13 L7.61
						 383.59 L3.73 383.59 L3.73 384.2 L6.91 384.2 L6.45 387.13 L4.55 387.13 L4.94 384.87 L4.29 384.82 ZM3.54 388.89
						 L3.54 389.5 L6.83 389.5 L6.83 388.89 L3.54 388.89 Z" class="st4"/>
		</g>
		<g id="shape157-312" v:mID="157" v:groupContext="shape" transform="translate(108.554,-364.348)">
			<title>工作表.153</title>
			<path d="M0.92 383.48 L0.92 385.66 L3.66 385.66 L3.66 383.48 L0.92 383.48 ZM3.06 385.12 L1.5 385.12 L1.5 384.04 L3.06
						 384.04 L3.06 385.12 ZM4.66 383.48 L4.66 385.66 L7.45 385.66 L7.45 383.48 L4.66 383.48 ZM6.88 385.12 L5.25
						 385.12 L5.25 384.04 L6.88 384.04 L6.88 385.12 ZM0.19 386.57 L0.19 387.15 L2.67 387.15 C2.05 387.68 1.16
						 388.13 0 388.46 L0.3 388.99 C0.56 388.92 0.8 388.84 1.05 388.74 L1.05 391.4 L1.61 391.4 L1.61 391.01 L3.14
						 391.01 L3.14 391.4 L3.72 391.4 L3.72 388.57 L1.47 388.57 C2.31 388.19 2.99 387.73 3.49 387.15 L5.02 387.15
						 C5.47 387.7 6.13 388.17 6.98 388.57 L4.59 388.57 L4.59 391.4 L5.17 391.4 L5.17 391.01 L6.84 391.01 L6.84
						 391.4 L7.42 391.4 L7.42 388.76 C7.63 388.82 7.83 388.92 8.05 388.98 L8.31 388.43 C7.16 388.12 6.28 387.68
						 5.69 387.15 L8.13 387.15 L8.13 386.57 L6.89 386.57 C6.74 386.29 6.58 386.02 6.39 385.77 L5.84 385.96 C5.99
						 386.13 6.13 386.34 6.25 386.57 L3.92 386.57 C4.05 386.35 4.17 386.13 4.25 385.9 L3.64 385.84 C3.53 386.09
						 3.39 386.34 3.22 386.57 L0.19 386.57 ZM1.61 390.46 L1.61 389.1 L3.14 389.1 L3.14 390.46 L1.61 390.46 ZM5.17
						 390.46 L5.17 389.1 L6.84 389.1 L6.84 390.46 L5.17 390.46 Z" class="st4"/>
		</g>
		<g id="shape158-314" v:mID="158" v:groupContext="shape" transform="translate(123.949,-69.0557)">
			<title>工作表.163</title>
			<path d="M0 365.2 L62.2 365.2 L62.2 391.4 L0 391.4 L0 365.2 Z" class="st3"/>
		</g>
		<g id="shape159-316" v:mID="159" v:groupContext="shape" transform="translate(137.379,-77.7333)">
			<title>工作表.164</title>
			<path d="M2.09 383.07 C1.66 384.46 0.95 385.7 0 386.77 L0.2 387.48 C0.54 387.1 0.87 386.71 1.17 386.32 L1.17 391.4 L1.83
						 391.4 L1.83 385.34 C2.17 384.71 2.47 384.06 2.7 383.35 L2.09 383.07 ZM2.65 384.57 L2.65 385.2 L8.06 385.2
						 L8.06 384.57 L5.72 384.57 C5.59 384.04 5.45 383.56 5.31 383.15 L4.62 383.26 C4.8 383.65 4.95 384.1 5.08
						 384.57 L2.65 384.57 ZM2.5 390.32 L2.5 390.96 L8.3 390.96 L8.3 390.32 L6.26 390.32 C6.7 389.04 7.09 387.59
						 7.41 385.95 L6.8 385.77 C6.45 387.6 6.05 389.1 5.59 390.32 L2.5 390.32 ZM3.76 385.88 L3.16 386.06 C3.54
						 387.34 3.86 388.67 4.09 390.03 L4.7 389.87 C4.42 388.37 4.11 387.04 3.76 385.88 Z" class="st4"/>
		</g>
		<g id="shape160-318" v:mID="160" v:groupContext="shape" transform="translate(146.534,-77.9677)">
			<title>工作表.165</title>
			<path d="M0.16 385.9 L0.16 386.4 L3.58 386.4 C3.55 386.57 3.52 386.74 3.48 386.91 L1.3 386.91 L1.3 390.88 L0 390.88 L0
						 391.4 L8.05 391.4 L8.05 390.88 L6.75 390.88 L6.75 386.91 L4.12 386.91 C4.17 386.76 4.2 386.59 4.23 386.4
						 L7.89 386.4 L7.89 385.9 L4.3 385.9 L4.36 385.39 L7.28 385.39 L7.28 383.7 L0.75 383.7 L0.75 385.39 L3.7 385.39
						 L3.66 385.9 L0.16 385.9 ZM1.92 390.88 L1.92 390.29 L6.11 390.29 L6.11 390.88 L1.92 390.88 ZM1.92 389.89
						 L1.92 389.32 L6.11 389.32 L6.11 389.89 L1.92 389.89 ZM1.92 388.9 L1.92 388.34 L6.11 388.34 L6.11 388.9 L1.92
						 388.9 ZM1.92 387.93 L1.92 387.37 L6.11 387.37 L6.11 387.93 L1.92 387.93 ZM6.66 384.93 L5.33 384.93 L5.33
						 384.18 L6.66 384.18 L6.66 384.93 ZM4.73 384.93 L3.3 384.93 L3.3 384.18 L4.73 384.18 L4.73 384.93 ZM2.72
						 384.93 L1.37 384.93 L1.37 384.18 L2.72 384.18 L2.72 384.93 Z" class="st4"/>
		</g>
		<g id="shape161-320" v:mID="161" v:groupContext="shape" transform="translate(155.426,-77.748)">
			<title>工作表.166</title>
			<path d="M2.34 389.48 C1.7 389.81 0.95 390.06 0.11 390.24 L0.19 390.88 C1 390.68 1.72 390.42 2.34 390.09 L2.34 389.48
						 ZM1.42 383.12 C1.09 384.16 0.7 385.09 0.25 385.9 C0.19 386.01 0.09 386.09 0 386.13 L0.16 386.71 C0.64 386.63
						 1.11 386.55 1.59 386.46 C1.13 387.29 0.73 387.87 0.42 388.21 C0.34 388.29 0.23 388.35 0.12 388.4 L0.3 388.98
						 C1.03 388.87 1.8 388.68 2.61 388.41 L2.61 387.84 C2.09 388.02 1.58 388.17 1.06 388.27 C1.55 387.66 2.17
						 386.63 2.92 385.18 L2.36 384.96 C2.2 385.29 2.03 385.6 1.89 385.88 C1.51 385.96 1.13 386.02 0.73 386.09
						 C1.17 385.41 1.61 384.49 2.03 383.35 L1.42 383.12 ZM7.31 391.37 C7.72 391.37 7.92 391.15 7.92 390.74 L7.92
						 387.12 L3.81 387.12 L3.81 391.4 L4.34 391.4 L4.34 389.4 L5.04 389.4 L5.04 391.24 L5.53 391.24 L5.53 389.4
						 L6.19 389.4 L6.19 391.24 L6.66 391.24 L6.66 389.4 L7.39 389.4 L7.39 390.6 C7.39 390.79 7.29 390.88 7.14
						 390.88 L6.78 390.87 L6.92 391.37 L7.31 391.37 ZM4.34 388.85 L4.34 387.68 L5.04 387.68 L5.04 388.85 L4.34
						 388.85 ZM5.53 387.68 L6.19 387.68 L6.19 388.85 L5.53 388.85 L5.53 387.68 ZM6.66 387.68 L7.39 387.68 L7.39
						 388.85 L6.66 388.85 L6.66 387.68 ZM7.29 384.62 L7.29 385.77 L3.78 385.77 L3.78 384.62 L7.29 384.62 ZM3.78
						 386.34 L7.89 386.34 L7.89 384.06 L5.86 384.06 C5.75 383.69 5.64 383.37 5.51 383.1 L4.84 383.2 C4.98 383.46
						 5.11 383.74 5.23 384.06 L3.19 384.06 L3.19 386.24 C3.17 388.17 2.81 389.74 2.09 390.98 L2.56 391.38 C3.34
						 389.98 3.75 388.29 3.78 386.34 Z" class="st4"/>
		</g>
		<g id="shape162-322" v:mID="162" v:groupContext="shape" transform="translate(164.361,-77.8124)">
			<title>工作表.167</title>
			<path d="M3.09 386.37 L1.44 386.37 C1.67 385.73 1.85 385.06 1.97 384.34 L3.33 384.34 L3.33 383.71 L0.25 383.71 L0.25
						 384.34 L1.36 384.34 C1.14 385.68 0.69 386.87 0 387.92 L0.33 388.45 C0.55 388.14 0.74 387.82 0.92 387.49
						 L0.92 391.17 L1.53 391.17 L1.53 390.48 L2.5 390.48 L2.5 391 L3.09 391 L3.09 386.37 ZM1.53 389.89 L1.53 386.96
						 L2.5 386.96 L2.5 389.89 L1.53 389.89 ZM4.3 384.82 L3.81 387.74 L7.45 387.74 C7.45 389.18 7.38 390.06 7.24
						 390.35 C7.11 390.65 6.69 390.81 6 390.81 C5.83 390.81 5.56 390.78 5.16 390.74 L5.34 391.37 C5.62 391.4 5.89
						 391.4 6.16 391.4 C6.94 391.4 7.45 391.23 7.71 390.9 C7.94 390.57 8.06 389.32 8.06 387.13 L7.11 387.13 L7.61
						 383.59 L3.74 383.59 L3.74 384.2 L6.91 384.2 L6.45 387.13 L4.55 387.13 L4.94 384.87 L4.3 384.82 ZM3.55 388.89
						 L3.55 389.5 L6.83 389.5 L6.83 388.89 L3.55 388.89 Z" class="st4"/>
		</g>
		<g id="shape163-324" v:mID="163" v:groupContext="shape" transform="translate(94.9309,-73.3741)">
			<title>工作表.168</title>
			<path d="M14.44 376.96 C17.56 380.09 17.56 385.15 14.44 388.28 C11.31 391.4 6.25 391.4 3.12 388.28 C0 385.15 0 380.09
						 3.12 376.96 C6.25 373.84 11.31 373.84 14.44 376.96 Z" class="st3"/>
		</g>
		<g id="shape164-326" v:mID="164" v:groupContext="shape" transform="translate(101.065,-79.2802)">
			<title>工作表.169</title>
			<path d="M5.28 389.04 L5.28 388.45 L2.94 388.45 L2.94 386.1 L2.34 386.1 L2.34 388.45 L0 388.45 L0 389.04 L2.34 389.04
						 L2.34 391.4 L2.94 391.4 L2.94 389.04 L5.28 389.04 Z" class="st4"/>
		</g>
		<g id="group165-328" transform="translate(117.609,-82.1543)" v:mID="165" v:groupContext="group">
			<title>工作表.170</title>
			<g id="shape166-329" v:mID="166" v:groupContext="shape">
				<title>工作表.166</title>
				<path d="M6.34 391.4 L0 391.4 L6.34 391.4 Z" class="st5"/>
			</g>
			<g id="shape167-331" v:mID="167" v:groupContext="shape">
				<title>工作表.167</title>
				<path d="M6.34 391.4 L0 391.4 L6.34 391.4 Z" class="st6"/>
				<path d="M6.34 391.4 L0 391.4" class="st7"/>
			</g>
		</g>
		<g id="group168-334" transform="translate(113.61,-80.6543)" v:mID="168" v:groupContext="group">
			<title>工作表.171</title>
			<g id="shape169-335" v:mID="169" v:groupContext="shape">
				<title>工作表.169</title>
				<path d="M0 389.9 L4 389.9 L0 389.9 ZM4 391.4 L0 389.9 L4 388.4 L4 391.4 Z" class="st5"/>
			</g>
			<g id="shape170-337" v:mID="170" v:groupContext="shape">
				<title>工作表.170</title>
				<path d="M0 389.9 L4 389.9 L0 389.9 ZM4 391.4 L0 389.9 L4 388.4 L4 391.4 Z" class="st6"/>
				<path d="M0 389.9 L4 389.9M4 391.4 L0 389.9 L4 388.4" class="st8"/>
			</g>
		</g>
		<g id="group171-340" transform="translate(45.75,-190.994)" v:mID="171" v:groupContext="group">
			<title>工作表.339</title>
			<g id="shape172-341" v:mID="172" v:groupContext="shape">
				<title>工作表.172</title>
				<path d="M0 391.4 L31.54 391.4 C37.35 391.4 42.05 389.61 42.05 387.4 L42.05 386.31 L0 391.4 Z" class="st5"/>
			</g>
			<g id="shape173-343" v:mID="173" v:groupContext="shape">
				<title>工作表.173</title>
				<path d="M0 391.4 L31.54 391.4 C37.35 391.4 42.05 389.61 42.05 387.4 L42.05 386.31 L0 391.4 Z" class="st6"/>
				<path d="M0 391.4 L31.54 391.4 C37.35 391.4 42.05 389.61 42.05 387.4 L42.05 386.31" class="st7"/>
			</g>
		</g>
	</g>
</svg>
