<?xml version="1.0" encoding="UTF-8" standalone="no"?>
<!DOCTYPE svg PUBLIC "-//W3C//DTD SVG 1.1//EN" "http://www.w3.org/Graphics/SVG/1.1/DTD/svg11.dtd">
<!-- 由 Microsoft Visio, SVG Export 生成 DecoderChinese.svg transformer_chinese -->
<svg xmlns="http://www.w3.org/2000/svg" xmlns:xlink="http://www.w3.org/1999/xlink" xmlns:ev="http://www.w3.org/2001/xml-events"
		xmlns:v="http://schemas.microsoft.com/visio/2003/SVGExtensions/" width="3.95833in" height="5.125in" viewBox="0 0 285 369"
		xml:space="preserve" color-interpolation-filters="sRGB" class="st10">
	<v:documentProperties v:langID="2052" v:viewMarkup="false"/>

	<style type="text/css">
	<![CDATA[
		.st1 {fill:none;stroke:#000000;stroke-dasharray:3,3;stroke-linecap:round;stroke-linejoin:round;stroke-width:1}
		.st2 {fill:#66bfff;stroke:none;stroke-linecap:butt;stroke-width:0.75}
		.st3 {fill:none;stroke:#000000;stroke-linecap:round;stroke-linejoin:round;stroke-width:1}
		.st4 {fill:#000000;stroke:none;stroke-linecap:butt;stroke-width:0.75}
		.st5 {fill:none}
		.st6 {stroke:#000000;stroke-linecap:round;stroke-linejoin:round;stroke-width:1}
		.st7 {stroke:#000000;stroke-linecap:butt;stroke-width:1}
		.st8 {fill:#b2d9ff;stroke:none;stroke-linecap:butt;stroke-width:0.75}
		.st9 {fill:#bad8fb;stroke:none;stroke-linecap:butt;stroke-width:0.75}
		.st10 {fill:none;fill-rule:evenodd;font-size:12px;overflow:visible;stroke-linecap:square;stroke-miterlimit:3}
	]]>
	</style>

	<g v:mID="0" v:index="1" v:groupContext="foregroundPage">
		<title>transformer_chinese</title>
		<v:pageProperties v:drawingScale="1" v:pageScale="1" v:drawingUnits="19" v:shadowOffsetX="9" v:shadowOffsetY="-9"/>
		<g id="shape2-1" v:mID="2" v:groupContext="shape" transform="translate(156.999,-90.9991)">
			<title>工作表.2</title>
			<path d="M8 141.6 L88.61 141.6 C93.03 141.6 96.62 145.18 96.62 149.6 L96.62 361 C96.62 365.42 93.03 369 88.61 369 L8
						 369 C3.58 369 0 365.42 0 361 L0 149.6 C0 145.18 3.58 141.6 8 141.6 Z" class="st1"/>
		</g>
		<g id="shape45-3" v:mID="45" v:groupContext="shape" transform="translate(171.214,-189.926)">
			<title>工作表.45</title>
			<path d="M0 369 L62.2 369 L62.2 342.8 L0 342.8 L0 369 Z" class="st2"/>
		</g>
		<g id="shape46-5" v:mID="46" v:groupContext="shape" transform="translate(171.214,-189.926)">
			<title>工作表.46</title>
			<path d="M0 342.8 L62.2 342.8 L62.2 369 L0 369 L0 342.8 Z" class="st3"/>
		</g>
		<g id="shape47-7" v:mID="47" v:groupContext="shape" transform="translate(180.674,-198.776)">
			<title>工作表.47</title>
			<path d="M3.61 360.87 C2.81 361.73 1.61 362.31 0.01 362.61 L0.39 363.2 C1.36 363 2.19 362.67 2.89 362.26 L5.52 362.26
						 C5.02 363 4.28 363.56 3.34 363.95 C3.06 363.59 2.75 363.26 2.42 362.95 L1.86 363.23 C2.17 363.5 2.47 363.83
						 2.73 364.15 C2.09 364.36 1.37 364.47 0.56 364.53 L0.84 365.11 C3.47 364.9 5.28 363.94 6.25 362.2 L6.25 361.69
						 L3.67 361.69 C3.84 361.53 4.02 361.36 4.19 361.17 L3.61 360.87 ZM3.27 366.5 L2.69 366.76 C3.01 367.09 3.33
						 367.45 3.64 367.86 C2.63 368.2 1.41 368.37 0 368.39 L0.27 369 C3.75 368.92 6.14 367.83 7.41 365.7 L7.41
						 365.19 L4.95 365.19 C5.2 365 5.42 364.8 5.64 364.58 L5.08 364.27 C4.14 365.26 2.7 365.86 0.74 366.06 L1.12
						 366.64 C2.2 366.45 3.14 366.16 3.94 365.78 L6.61 365.78 C6.03 366.58 5.25 367.2 4.25 367.62 C3.94 367.22
						 3.61 366.84 3.27 366.5 Z" class="st4"/>
		</g>
		<g id="shape48-9" v:mID="48" v:groupContext="shape" transform="translate(189.425,-198.636)">
			<title>工作表.48</title>
			<path d="M0.01 364.98 L0.01 365.61 L3.81 365.61 C3.67 365.97 3.5 366.3 3.28 366.61 C2.67 367.37 1.56 367.98 0 368.45
						 L0.36 369 C1.92 368.53 3.05 367.89 3.73 367.06 C3.84 366.94 3.94 366.78 4.03 366.64 C5.41 367.47 6.5 368.26
						 7.31 369 L7.78 368.55 C6.83 367.75 5.67 366.95 4.29 366.14 C4.37 365.97 4.45 365.79 4.51 365.61 L7.83 365.61
						 L7.83 364.98 L4.69 364.98 C4.78 364.53 4.84 364.05 4.86 363.5 L4.86 360.78 L4.2 360.78 L4.2 363.5 C4.19
						 364.01 4.13 364.51 4.01 364.98 L0.01 364.98 ZM0.73 362.7 L0.4 363.2 C1.09 363.5 1.76 363.91 2.42 364.41
						 L2.78 363.87 C2.16 363.4 1.48 363.03 0.73 362.7 ZM1.73 361.25 L1.39 361.75 C1.98 362 2.56 362.34 3.12 362.79
						 L3.47 362.28 C2.95 361.87 2.36 361.55 1.73 361.25 Z" class="st4"/>
		</g>
		<g id="shape49-11" v:mID="49" v:groupContext="shape" transform="translate(198.313,-198.7)">
			<title>工作表.49</title>
			<path d="M0.67 360.96 L0.22 361.41 C0.88 361.87 1.41 362.33 1.78 362.75 L2.25 362.28 C1.83 361.85 1.3 361.41 0.67 360.96
						 ZM0.45 363.08 L0 363.52 C0.63 364 1.12 364.45 1.49 364.87 L1.94 364.41 C1.55 363.96 1.05 363.52 0.45 363.08
						 ZM1.59 365.56 C1.19 366.64 0.7 367.69 0.17 368.72 L0.81 369 C1.31 368 1.77 366.94 2.16 365.8 L1.59 365.56
						 ZM2.6 362.34 L2.6 362.99 L4.94 362.99 L4.94 365.14 L2.84 365.14 L2.84 365.77 L4.94 365.77 L4.94 368.13 L2.38
						 368.13 L2.38 368.77 L8.09 368.77 L8.09 368.13 L5.6 368.13 L5.6 365.77 L7.67 365.77 L7.67 365.14 L5.6 365.14
						 L5.6 362.99 L7.92 362.99 L7.92 362.34 L5.24 362.34 L5.61 362.2 C5.47 361.77 5.27 361.3 5.02 360.78 L4.41
						 360.94 C4.64 361.39 4.85 361.86 5.02 362.34 L2.6 362.34 Z" class="st4"/>
		</g>
		<g id="shape50-13" v:mID="50" v:groupContext="shape" transform="translate(207.267,-198.776)">
			<title>工作表.50</title>
			<path d="M2.02 362 L2.3 362.72 L0.14 362.72 L0.14 363.28 L7.95 363.28 L7.95 362.72 L5.72 362.72 L6.06 362 L7.53 362 L7.53
						 361.45 L4.36 361.45 C4.27 361.22 4.17 361 4.08 360.81 L3.39 360.92 C3.49 361.08 3.56 361.25 3.66 361.45
						 L0.56 361.45 L0.56 362 L2.02 362 ZM2.97 362.72 L2.69 362 L5.39 362 L5.03 362.72 L2.97 362.72 ZM1.17 363.81
						 L1.17 366.48 L6.92 366.48 L6.92 363.81 L1.17 363.81 ZM6.3 365.97 L1.8 365.97 L1.8 365.37 L6.3 365.37 L6.3
						 365.97 ZM1.8 364.9 L1.8 364.33 L6.3 364.33 L6.3 364.9 L1.8 364.9 ZM0.81 366.91 C0.64 367.5 0.36 368.04 0
						 368.53 L0.56 368.89 C0.94 368.36 1.22 367.75 1.44 367.03 L0.81 366.91 ZM5.28 369 C5.63 369 5.86 368.94 6.03
						 368.83 C6.21 368.69 6.33 368.31 6.39 367.69 L5.78 367.5 C5.75 367.94 5.67 368.22 5.56 368.31 C5.5 368.39
						 5.36 368.42 5.16 368.42 L3.27 368.42 C2.99 368.42 2.84 368.28 2.84 368.03 L2.84 366.98 L2.17 366.98 L2.17
						 368.17 C2.17 368.73 2.47 369 3.08 369 L5.28 369 ZM4.14 366.64 L3.59 366.98 C3.97 367.37 4.27 367.72 4.49
						 368.04 L5.02 367.67 C4.83 367.37 4.53 367.03 4.14 366.64 ZM6.97 366.81 L6.45 367.14 C6.94 367.73 7.31 368.28
						 7.61 368.77 L8.14 368.39 C7.88 367.94 7.47 367.42 6.97 366.81 Z" class="st4"/>
		</g>
		<g id="shape51-15" v:mID="51" v:groupContext="shape" transform="translate(216.393,-198.636)">
			<title>工作表.51</title>
			<path d="M3.17 360.78 L3.17 361.69 C3.17 361.98 3.16 362.3 3.14 362.59 L0.47 362.59 L0.47 363.23 L3.08 363.23 C2.99 364.28
						 2.78 365.19 2.48 365.94 C2.02 366.97 1.19 367.83 0 368.45 L0.36 369 C1.56 368.39 2.42 367.53 2.97 366.44
						 C3.36 365.58 3.61 364.51 3.75 363.23 L6.59 363.23 C6.55 365.36 6.44 366.75 6.27 367.41 C6.11 368.03 5.78
						 368.34 5.26 368.34 C4.94 368.34 4.59 368.33 4.23 368.31 L4.41 368.95 L5.59 368.95 C6.06 368.91 6.39 368.72
						 6.61 368.36 C6.83 367.98 6.98 367.31 7.08 366.37 C7.16 365.41 7.22 364.15 7.25 362.59 L3.81 362.59 C3.83
						 362.3 3.83 362 3.84 361.69 L3.84 360.78 L3.17 360.78 Z" class="st4"/>
		</g>
		<g id="shape52-17" v:mID="52" v:groupContext="shape" transform="translate(171.214,-226.233)">
			<title>工作表.52</title>
			<path d="M0 353 L62.2 353 L62.2 369 L0 369 L0 353 Z" class="st3"/>
		</g>
		<g id="shape53-19" v:mID="53" v:groupContext="shape" transform="translate(181.72,-230.906)">
			<title>工作表.53</title>
			<path d="M6.98 362.83 L4.38 362.83 L4.38 368.86 L4.92 368.86 L4.92 368.31 L6.44 368.31 L6.44 368.86 L6.98 368.86 L6.98
						 362.83 ZM4.92 367.77 L4.92 363.38 L6.44 363.38 L6.44 367.77 L4.92 367.77 ZM1.44 361.66 L1.44 363.28 L0.16
						 363.28 L0.16 363.83 L1.44 363.83 C1.41 366.03 0.92 367.63 0 368.62 L0.42 369 C1.45 367.92 1.97 366.2 2 363.83
						 L3.08 363.83 C3.06 365.99 3.02 367.27 2.97 367.69 C2.91 368.14 2.67 368.38 2.27 368.38 C2.08 368.38 1.85
						 368.36 1.59 368.34 L1.73 368.87 C2.02 368.89 2.22 368.91 2.34 368.91 C3.05 368.91 3.44 368.56 3.52 367.91
						 C3.59 367.31 3.64 365.77 3.64 363.28 L2 363.28 L2 361.66 L1.44 361.66 Z" class="st4"/>
		</g>
		<g id="shape54-21" v:mID="54" v:groupContext="shape" transform="translate(191.991,-231.595)">
			<title>工作表.54</title>
			<path d="M3.45 368.19 C3.22 368.44 2.97 368.63 2.7 368.77 C2.43 368.89 2.13 368.95 1.81 368.95 C1.22 368.95 0.76 368.76
						 0.42 368.36 C0.14 368.04 0 367.68 0 367.28 C0 366.93 0.11 366.61 0.34 366.33 C0.57 366.04 0.91 365.78 1.36
						 365.56 C1.11 365.27 0.94 365.03 0.84 364.85 C0.76 364.66 0.72 364.48 0.72 364.31 C0.72 363.97 0.85 363.67
						 1.12 363.42 C1.39 363.16 1.73 363.03 2.14 363.03 C2.53 363.03 2.85 363.15 3.09 363.39 C3.34 363.63 3.47
						 363.92 3.47 364.25 C3.47 364.8 3.11 365.27 2.39 365.66 L3.42 366.96 C3.53 366.73 3.62 366.46 3.69 366.16
						 L4.42 366.31 C4.29 366.81 4.13 367.23 3.92 367.55 C4.18 367.9 4.48 368.2 4.81 368.44 L4.34 369 C4.05 368.81
						 3.75 368.54 3.45 368.19 ZM2.03 365.2 C2.33 365.02 2.52 364.86 2.61 364.72 C2.7 364.59 2.75 364.44 2.75 364.28
						 C2.75 364.09 2.69 363.92 2.56 363.8 C2.44 363.67 2.3 363.61 2.11 363.61 C1.92 363.61 1.76 363.67 1.62 363.8
						 C1.5 363.92 1.44 364.08 1.44 364.25 C1.44 364.34 1.46 364.43 1.5 364.53 C1.55 364.63 1.62 364.73 1.72 364.83
						 L2.03 365.2 ZM3.01 367.63 L1.73 366.03 C1.35 366.26 1.08 366.48 0.95 366.67 C0.83 366.86 0.76 367.05 0.76
						 367.24 C0.76 367.46 0.85 367.71 1.03 367.95 C1.22 368.2 1.48 368.33 1.83 368.33 C2.03 368.33 2.25 368.27
						 2.47 368.14 C2.7 368.01 2.88 367.84 3.01 367.63 Z" class="st4"/>
		</g>
		<g id="shape55-23" v:mID="55" v:groupContext="shape" transform="translate(199.564,-230.906)">
			<title>工作表.55</title>
			<path d="M0.2 362.8 L0.2 363.34 L1.36 363.34 L1.36 364.67 L0.09 364.67 L0.09 365.24 L1.33 365.24 C1.2 366.74 0.76 367.88
						 0 368.62 L0.42 369 C1.08 368.36 1.51 367.49 1.75 366.36 C2.06 366.7 2.44 367.17 2.89 367.78 L3.2 367.28
						 C2.75 366.74 2.28 366.25 1.83 365.83 C1.86 365.64 1.88 365.44 1.89 365.24 L3.11 365.24 L3.11 364.67 L1.92
						 364.67 L1.92 363.34 L3 363.34 L3 362.8 L1.92 362.8 L1.92 361.7 L1.36 361.7 L1.36 362.8 L0.2 362.8 ZM6.7
						 361.97 L3.47 361.97 L3.47 366.36 L4.02 366.36 L4.02 362.52 L6.16 362.52 L6.16 366.36 L6.7 366.36 L6.7 361.97
						 ZM6.48 368.87 C6.75 368.87 6.92 368.8 7.06 368.69 C7.19 368.55 7.28 368.14 7.33 367.49 L6.83 367.33 C6.8
						 367.81 6.75 368.12 6.69 368.24 C6.62 368.31 6.53 368.34 6.39 368.34 L5.99 368.34 C5.81 368.34 5.73 368.26
						 5.73 368.08 L5.73 366.41 L5.2 366.41 L5.2 368.2 C5.2 368.64 5.41 368.87 5.83 368.87 L6.48 368.87 ZM4.83
						 363.17 L4.83 364.59 C4.8 365.59 4.63 366.42 4.3 367.05 C3.94 367.66 3.33 368.14 2.45 368.52 L2.75 369 C3.66
						 368.62 4.3 368.09 4.7 367.44 C5.11 366.74 5.33 365.78 5.34 364.59 L5.34 363.17 L4.83 363.17 Z" class="st4"/>
		</g>
		<g id="shape56-25" v:mID="56" v:groupContext="shape" transform="translate(207.688,-230.874)">
			<title>工作表.56</title>
			<path d="M0 362.31 L0 362.86 L1.89 362.86 L1.89 363.61 L2.47 363.61 L2.47 362.86 L4.56 362.86 L4.56 363.61 L5.14 363.61
						 L5.14 362.86 L7.03 362.86 L7.03 362.31 L5.14 362.31 L5.14 361.59 L4.56 361.59 L4.56 362.31 L2.47 362.31
						 L2.47 361.59 L1.89 361.59 L1.89 362.31 L0 362.31 ZM1.03 363.53 L0.64 363.91 C1.17 364.28 1.61 364.64 1.91
						 364.98 L2.3 364.59 C1.97 364.23 1.55 363.89 1.03 363.53 ZM0.53 364.89 L0.14 365.26 C0.67 365.64 1.1 365.98
						 1.41 366.33 L1.8 365.94 C1.45 365.58 1.03 365.23 0.53 364.89 ZM1.47 366.62 C1.16 367.31 0.75 368.02 0.23
						 368.72 L0.77 369 C1.27 368.31 1.66 367.59 1.95 366.86 L1.47 366.62 ZM5.78 364.41 L5.78 365.91 C5.78 366.09
						 5.67 366.2 5.46 366.2 C5.17 366.2 4.86 366.19 4.52 366.16 L4.66 366.7 C4.99 366.72 5.31 366.72 5.67 366.72
						 C6.11 366.7 6.35 366.5 6.35 366.08 L6.35 363.89 L2.89 363.89 L2.89 368.04 C2.89 368.55 3.14 368.79 3.66
						 368.79 L5.8 368.79 C6.22 368.79 6.5 368.72 6.66 368.58 C6.81 368.41 6.92 367.94 6.98 367.17 L6.44 366.98
						 C6.39 367.5 6.33 367.84 6.25 368.02 C6.17 368.17 5.97 368.25 5.66 368.25 L3.89 368.25 C3.61 368.25 3.47
						 368.11 3.47 367.86 L3.47 364.41 L5.78 364.41 Z" class="st4"/>
		</g>
		<g id="shape57-27" v:mID="57" v:groupContext="shape" transform="translate(215.502,-230.921)">
			<title>工作表.57</title>
			<path d="M2.48 361.59 C1.97 362.86 1.14 363.98 0 364.95 L0.19 365.56 C0.61 365.2 1 364.83 1.36 364.44 L1.36 369 L1.94
						 369 L1.94 363.73 C2.38 363.14 2.73 362.51 3.01 361.84 L2.48 361.59 ZM6.17 368.86 C6.55 368.86 6.81 368.77
						 6.95 368.58 C7.09 368.37 7.19 367.81 7.25 366.91 L6.72 366.72 C6.67 367.51 6.62 367.98 6.53 368.11 C6.44
						 368.23 6.28 368.31 6.08 368.31 L4.78 368.31 C4.5 368.31 4.37 368.17 4.37 367.94 L4.37 365.23 C5.36 364.61
						 6.23 363.89 6.98 363.09 L6.58 362.64 C5.95 363.34 5.22 363.98 4.37 364.55 L4.37 361.69 L3.8 361.69 L3.8
						 364.9 C3.39 365.14 2.95 365.36 2.52 365.56 L2.77 366.11 C3.13 365.94 3.47 365.77 3.8 365.58 L3.8 368.02
						 C3.8 368.58 4.08 368.86 4.64 368.86 L6.17 368.86 Z" class="st4"/>
		</g>
		<g id="shape58-29" v:mID="58" v:groupContext="shape" transform="translate(202.315,-216.129)">
			<title>工作表.58</title>
			<path d="M0 369 L0 364.79 L0 369 Z" class="st5"/>
			<path d="M0 369 L0 364.79" class="st6"/>
		</g>
		<g id="shape59-32" v:mID="59" v:groupContext="shape" transform="translate(200.815,-220.336)">
			<title>工作表.59</title>
			<path d="M1.5 365 L1.5 369 L1.5 365 ZM0 369 L1.5 365 L3 369 L0 369 Z" class="st5"/>
			<path d="M1.5 365 L1.5 369M0 369 L1.5 365 L3 369" class="st7"/>
		</g>
		<g id="shape60-35" v:mID="60" v:groupContext="shape" transform="translate(171.015,-257.435)">
			<title>工作表.60</title>
			<path d="M0 369 L62.2 369 L62.2 342.8 L0 342.8 L0 369 Z" class="st8"/>
		</g>
		<g id="shape61-37" v:mID="61" v:groupContext="shape" transform="translate(171.014,-257.435)">
			<title>工作表.61</title>
			<path d="M0 342.8 L62.2 342.8 L62.2 369 L0 369 L0 342.8 Z" class="st3"/>
		</g>
		<g id="shape62-39" v:mID="62" v:groupContext="shape" transform="translate(178.553,-267.22)">
			<title>工作表.62</title>
			<path d="M4.75 365.17 C4.05 365.83 3.17 366.34 2.16 366.7 L2.48 367.15 C3.36 366.83 4.12 366.36 4.81 365.73 C4.83 365.89
						 4.83 366.06 4.83 366.25 C4.81 366.75 4.75 367.05 4.64 367.14 C4.53 367.22 4.36 367.25 4.09 367.25 L3.47
						 367.25 L3.64 367.76 L4.01 367.76 C4.53 367.76 4.89 367.69 5.09 367.55 C5.26 367.39 5.36 366.97 5.37 366.25
						 C5.36 365.98 5.34 365.73 5.33 365.51 C5.77 365.87 6.3 366.36 6.92 366.98 L7.22 366.53 C6.54 365.91 5.89
						 365.36 5.25 364.87 C5.23 364.83 5.22 364.8 5.2 364.75 C5.86 364.41 6.42 363.97 6.87 363.45 L6.52 363.05
						 C6.12 363.53 5.64 363.94 5.06 364.27 C4.92 363.92 4.7 363.58 4.39 363.25 C4.7 363.01 4.97 362.77 5.17 362.51
						 L7.01 362.51 L7.01 361.98 L2.31 361.98 L2.31 362.51 L4.59 362.51 C4.05 363.05 3.19 363.47 2.03 363.81 L2.33
						 364.28 C2.94 364.06 3.47 363.81 3.94 363.54 C4.08 363.7 4.22 363.87 4.33 364.05 C3.81 364.5 3.09 364.89
						 2.17 365.2 L2.44 365.64 C3.31 365.34 4.01 364.95 4.55 364.47 C4.55 364.47 4.56 364.48 4.58 364.5 C4.66 364.7
						 4.7 364.92 4.75 365.17 ZM0.58 361.78 L0.17 362.16 C0.76 362.61 1.22 363.03 1.55 363.42 L1.97 363.03 C1.59
						 362.61 1.12 362.2 0.58 361.78 ZM5.25 368.84 L7.06 368.84 L7.2 368.26 C7 368.28 6.7 368.3 6.31 368.3 C5.92
						 368.31 5.53 368.31 5.17 368.31 C4.53 368.31 4.01 368.31 3.59 368.3 C3.11 368.28 2.75 368.22 2.48 368.11
						 C2.26 368 2.06 367.83 1.86 367.61 C1.8 367.53 1.73 367.47 1.67 367.42 L1.67 364.42 L0 364.42 L0 364.95 L1.12
						 364.95 L1.12 367.39 C0.8 367.53 0.42 367.94 0 368.61 L0.44 369 C0.87 368.26 1.19 367.9 1.39 367.9 C1.48
						 367.9 1.59 367.97 1.7 368.09 C1.95 368.39 2.23 368.59 2.55 368.69 C2.87 368.77 3.3 368.81 3.81 368.83 C4.33
						 368.83 4.81 368.84 5.25 368.84 Z" class="st4"/>
		</g>
		<g id="shape63-41" v:mID="63" v:groupContext="shape" transform="translate(186.396,-267.22)">
			<title>工作表.63</title>
			<path d="M1.87 361.61 C1.49 362.84 0.86 363.94 0 364.9 L0.19 365.51 C0.5 365.19 0.8 364.84 1.06 364.48 L1.06 369 L1.63
						 369 L1.63 363.61 C1.94 363.06 2.2 362.47 2.41 361.86 L1.87 361.61 ZM2.36 362.94 L2.36 363.48 L7.19 363.48
						 L7.19 362.94 L5.09 362.94 C4.98 362.45 4.86 362.03 4.73 361.67 L4.12 361.76 C4.27 362.12 4.41 362.51 4.51
						 362.94 L2.36 362.94 ZM2.24 368.04 L2.24 368.61 L7.39 368.61 L7.39 368.04 L5.58 368.04 C5.97 366.92 6.31
						 365.62 6.59 364.15 L6.05 364.01 C5.75 365.62 5.39 366.97 4.98 368.04 L2.24 368.04 ZM3.34 364.09 L2.83 364.27
						 C3.16 365.39 3.44 366.58 3.66 367.78 L4.19 367.64 C3.94 366.31 3.66 365.12 3.34 364.09 Z" class="st4"/>
		</g>
		<g id="shape64-43" v:mID="64" v:groupContext="shape" transform="translate(194.537,-267.22)">
			<title>工作表.64</title>
			<path d="M4.98 361.59 C4.8 361.97 4.59 362.31 4.36 362.65 L2.79 362.65 C2.63 362.28 2.45 361.94 2.28 361.64 L1.67 361.75
						 C1.86 362.02 2.03 362.31 2.19 362.65 L0 362.65 L0 363.22 L7.15 363.22 L7.15 362.65 L5 362.65 C5.19 362.39
						 5.37 362.11 5.53 361.78 L4.98 361.59 ZM2.77 368.94 C3.22 368.94 3.45 368.67 3.45 368.12 L3.45 363.86 L0.54
						 363.86 L0.54 369 L1.11 369 L1.11 367.25 L2.89 367.25 L2.89 368 C2.89 368.26 2.79 368.39 2.59 368.39 L1.98
						 368.37 L2.14 368.94 L2.77 368.94 ZM1.11 366.73 L1.11 365.83 L2.89 365.83 L2.89 366.73 L1.11 366.73 ZM1.11
						 365.31 L1.11 364.39 L2.89 364.39 L2.89 365.31 L1.11 365.31 ZM5.87 368.92 C6.36 368.92 6.59 368.67 6.59 368.17
						 L6.59 363.64 L6.01 363.64 L6.01 368.03 C6.01 368.28 5.91 368.41 5.69 368.41 C5.36 368.41 5.03 368.39 4.7
						 368.36 L4.81 368.92 L5.87 368.92 ZM4.36 364.23 L4.36 367.69 L4.9 367.69 L4.9 364.23 L4.36 364.23 Z"
					class="st4"/>
		</g>
		<g id="shape65-45" v:mID="65" v:groupContext="shape" transform="translate(202.395,-267.19)">
			<title>工作表.65</title>
			<path d="M3.28 362.06 L3.28 363.63 L4.78 363.63 L4.78 364.13 L2.84 364.13 L2.84 364.63 L7.28 364.63 L7.28 364.13 L5.34
						 364.13 L5.34 363.63 L6.86 363.63 L6.86 362.06 L5.34 362.06 L5.34 361.61 L4.78 361.61 L4.78 362.06 L3.28
						 362.06 ZM6.35 363.17 L5.34 363.17 L5.34 362.53 L6.35 362.53 L6.35 363.17 ZM4.78 363.17 L3.8 363.17 L3.8
						 362.53 L4.78 362.53 L4.78 363.17 ZM6.77 365.16 L3.3 365.16 L3.3 367.53 L3.84 367.53 L3.84 365.64 L6.22 365.64
						 L6.22 367.53 L6.77 367.53 L6.77 365.16 ZM5.63 367.56 L5.33 367.99 C5.91 368.22 6.49 368.55 7.03 368.97 L7.34
						 368.48 C6.83 368.11 6.25 367.81 5.63 367.56 ZM4.72 365.95 L4.72 366.74 C4.71 367.19 4.55 367.56 4.27 367.86
						 C3.96 368.13 3.42 368.34 2.64 368.52 L2.95 369 C3.77 368.8 4.34 368.53 4.69 368.2 C5.06 367.83 5.25 367.34
						 5.28 366.74 L5.28 365.95 L4.72 365.95 ZM1.22 363.52 L2.24 363.52 C2.09 363.81 1.92 364.08 1.75 364.33 L2.17
						 364.66 C2.42 364.31 2.64 363.91 2.84 363.42 L2.84 362.99 L1.38 362.99 C1.47 362.61 1.56 362.2 1.63 361.77
						 L1.08 361.67 C0.88 362.95 0.53 363.97 0 364.72 L0.36 365.17 C0.7 364.72 0.98 364.17 1.22 363.52 ZM1.17 364.56
						 L1.17 367.97 C1.17 368.11 1.11 368.22 0.98 368.3 L1.22 368.78 C1.85 368.53 2.38 368.22 2.84 367.83 L2.75
						 367.3 C2.41 367.61 2.06 367.86 1.73 368.03 L1.73 364.56 L1.17 364.56 Z" class="st4"/>
		</g>
		<g id="shape66-47" v:mID="66" v:groupContext="shape" transform="translate(210.926,-267.252)">
			<title>工作表.66</title>
			<path d="M2.95 367.2 L3.35 366.81 C3.02 366.33 2.7 365.86 2.39 365.45 C2.61 364.77 2.77 364.02 2.91 363.19 L2.38 363.09
						 C2.28 363.74 2.14 364.34 2 364.91 C1.66 364.45 1.34 364.08 1.05 363.76 L0.69 364.11 C1.05 364.53 1.42 365
						 1.81 365.52 C1.55 366.33 1.2 367.03 0.78 367.63 L1.14 368.06 C1.56 367.5 1.91 366.83 2.2 366.05 C2.44 366.41
						 2.7 366.8 2.95 367.2 ZM5.3 367.58 L5.69 367.19 C5.34 366.61 5.02 366.09 4.72 365.62 C4.95 364.91 5.14 364.11
						 5.3 363.22 L4.75 363.13 C4.64 363.81 4.5 364.45 4.33 365.06 C3.98 364.58 3.67 364.17 3.38 363.84 L3.02 364.19
						 C3.39 364.64 3.75 365.14 4.11 365.69 C3.81 366.5 3.44 367.2 3 367.81 L3.36 368.26 C3.8 367.7 4.17 367.03
						 4.49 366.25 C4.75 366.66 5.03 367.09 5.3 367.58 ZM5.67 368.97 C6.14 368.97 6.38 368.72 6.38 368.24 L6.38
						 362.02 L0 362.02 L0 369 L0.56 369 L0.56 362.56 L5.81 362.56 L5.81 368.11 C5.81 368.33 5.7 368.44 5.47 368.44
						 L4.71 368.41 L4.86 368.97 L5.67 368.97 Z" class="st4"/>
		</g>
		<g id="shape67-49" v:mID="67" v:groupContext="shape" transform="translate(218.552,-267.284)">
			<title>工作表.67</title>
			<path d="M2.78 367.45 C2 367.75 1.08 368 0.03 368.17 L0.11 368.74 C1.11 368.55 2 368.31 2.78 368 L2.78 367.45 ZM1.36
						 361.71 C1.03 362.64 0.67 363.47 0.25 364.2 C0.17 364.31 0.09 364.38 0 364.42 L0.14 364.95 C0.59 364.88 1.02
						 364.81 1.45 364.73 C1.03 365.5 0.67 366.03 0.37 366.36 C0.31 366.42 0.22 366.47 0.13 366.52 L0.28 367.05
						 C1.03 366.94 1.81 366.74 2.64 366.45 L2.64 365.94 C2.06 366.14 1.5 366.3 0.95 366.42 C1.39 365.84 1.97 364.88
						 2.66 363.53 L2.16 363.35 C2.02 363.64 1.86 363.94 1.73 364.2 C1.37 364.27 1.03 364.33 0.69 364.38 C1.09
						 363.77 1.49 362.94 1.89 361.91 L1.36 361.71 ZM6.55 366.05 L3.27 366.05 L3.27 369 L3.81 369 L3.81 368.66
						 L6 368.66 L6 369 L6.55 369 L6.55 366.05 ZM3.81 368.13 L3.81 366.58 L6 366.58 L6 368.13 L3.81 368.13 ZM4.06
						 361.71 C3.8 362.55 3.33 363.27 2.61 363.84 L2.95 364.3 C3.2 364.08 3.45 363.84 3.67 363.59 C3.88 363.94
						 4.14 364.28 4.44 364.58 C3.89 364.99 3.22 365.31 2.45 365.61 L2.81 366.06 C3.59 365.77 4.28 365.39 4.86
						 364.95 C5.44 365.42 6.14 365.77 6.98 366.03 L7.31 365.55 C6.52 365.33 5.84 365.02 5.28 364.61 C5.83 364.1
						 6.27 363.52 6.55 362.84 L6.55 362.44 L4.39 362.44 C4.47 362.24 4.55 362.03 4.61 361.8 L4.06 361.71 ZM3.98
						 363.17 C4.03 363.11 4.08 363.03 4.12 362.95 L5.94 362.95 C5.67 363.42 5.31 363.86 4.84 364.25 C4.5 363.94
						 4.22 363.58 3.98 363.17 Z" class="st4"/>
		</g>
		<g id="shape68-51" v:mID="68" v:groupContext="shape" transform="translate(170.859,-294.015)">
			<title>工作表.68</title>
			<path d="M0 353 L62.2 353 L62.2 369 L0 369 L0 353 Z" class="st3"/>
		</g>
		<g id="shape69-53" v:mID="69" v:groupContext="shape" transform="translate(181.368,-298.688)">
			<title>工作表.69</title>
			<path d="M6.98 362.83 L4.37 362.83 L4.37 368.86 L4.92 368.86 L4.92 368.31 L6.44 368.31 L6.44 368.86 L6.98 368.86 L6.98
						 362.83 ZM4.92 367.76 L4.92 363.38 L6.44 363.38 L6.44 367.76 L4.92 367.76 ZM1.44 361.66 L1.44 363.28 L0.16
						 363.28 L0.16 363.83 L1.44 363.83 C1.41 366.03 0.92 367.62 0 368.62 L0.42 369 C1.45 367.92 1.97 366.2 2 363.83
						 L3.08 363.83 C3.06 365.98 3.01 367.27 2.97 367.69 C2.91 368.14 2.67 368.37 2.26 368.37 C2.08 368.37 1.84
						 368.36 1.59 368.34 L1.73 368.87 C2.02 368.89 2.22 368.91 2.34 368.91 C3.05 368.91 3.44 368.56 3.52 367.9
						 C3.59 367.31 3.64 365.77 3.64 363.28 L2 363.28 L2 361.66 L1.44 361.66 Z" class="st4"/>
		</g>
		<g id="shape70-55" v:mID="70" v:groupContext="shape" transform="translate(191.637,-299.376)">
			<title>工作表.70</title>
			<path d="M3.45 368.19 C3.22 368.44 2.97 368.63 2.7 368.77 C2.43 368.89 2.13 368.95 1.81 368.95 C1.22 368.95 0.76 368.76
						 0.42 368.36 C0.14 368.04 0 367.68 0 367.28 C0 366.93 0.11 366.61 0.34 366.33 C0.57 366.04 0.91 365.78 1.36
						 365.56 C1.11 365.27 0.94 365.03 0.84 364.84 C0.76 364.66 0.72 364.48 0.72 364.31 C0.72 363.97 0.85 363.67
						 1.13 363.42 C1.39 363.16 1.73 363.03 2.14 363.03 C2.53 363.03 2.85 363.15 3.09 363.39 C3.34 363.63 3.47
						 363.92 3.47 364.25 C3.47 364.8 3.11 365.27 2.39 365.66 L3.42 366.95 C3.53 366.73 3.62 366.46 3.69 366.16
						 L4.42 366.31 C4.29 366.81 4.13 367.23 3.92 367.55 C4.18 367.9 4.48 368.2 4.81 368.44 L4.34 369 C4.05 368.81
						 3.75 368.54 3.45 368.19 ZM2.03 365.2 C2.33 365.02 2.52 364.85 2.61 364.72 C2.7 364.58 2.75 364.44 2.75 364.28
						 C2.75 364.09 2.69 363.92 2.56 363.8 C2.44 363.67 2.3 363.61 2.11 363.61 C1.92 363.61 1.76 363.67 1.62 363.8
						 C1.5 363.92 1.44 364.08 1.44 364.25 C1.44 364.34 1.46 364.43 1.5 364.53 C1.55 364.63 1.62 364.73 1.72 364.83
						 L2.03 365.2 ZM3.01 367.63 L1.73 366.03 C1.35 366.26 1.08 366.48 0.95 366.67 C0.83 366.86 0.76 367.05 0.76
						 367.23 C0.76 367.46 0.85 367.7 1.03 367.95 C1.22 368.2 1.48 368.33 1.83 368.33 C2.03 368.33 2.25 368.26
						 2.47 368.14 C2.7 368.01 2.88 367.84 3.01 367.63 Z" class="st4"/>
		</g>
		<g id="shape71-57" v:mID="71" v:groupContext="shape" transform="translate(199.21,-298.688)">
			<title>工作表.71</title>
			<path d="M0.21 362.79 L0.21 363.34 L1.36 363.34 L1.36 364.67 L0.09 364.67 L0.09 365.23 L1.33 365.23 C1.2 366.73 0.77
						 367.87 0 368.62 L0.42 369 C1.08 368.36 1.52 367.48 1.75 366.36 C2.06 366.7 2.44 367.17 2.89 367.78 L3.21
						 367.28 C2.75 366.73 2.28 366.25 1.83 365.83 C1.86 365.64 1.87 365.44 1.89 365.23 L3.11 365.23 L3.11 364.67
						 L1.92 364.67 L1.92 363.34 L3 363.34 L3 362.79 L1.92 362.79 L1.92 361.7 L1.36 361.7 L1.36 362.79 L0.21 362.79
						 ZM6.7 361.97 L3.47 361.97 L3.47 366.36 L4.02 366.36 L4.02 362.51 L6.16 362.51 L6.16 366.36 L6.7 366.36 L6.7
						 361.97 ZM6.49 368.87 C6.75 368.87 6.92 368.79 7.06 368.69 C7.19 368.55 7.28 368.14 7.33 367.48 L6.83 367.33
						 C6.8 367.81 6.75 368.12 6.69 368.23 C6.63 368.31 6.53 368.34 6.39 368.34 L5.99 368.34 C5.81 368.34 5.74
						 368.26 5.74 368.08 L5.74 366.4 L5.2 366.4 L5.2 368.2 C5.2 368.64 5.41 368.87 5.83 368.87 L6.49 368.87 ZM4.83
						 363.17 L4.83 364.59 C4.8 365.59 4.63 366.42 4.3 367.05 C3.94 367.66 3.33 368.14 2.46 368.51 L2.75 369 C3.66
						 368.62 4.3 368.09 4.71 367.44 C5.11 366.73 5.33 365.78 5.34 364.59 L5.34 363.17 L4.83 363.17 Z"
					class="st4"/>
		</g>
		<g id="shape72-59" v:mID="72" v:groupContext="shape" transform="translate(207.337,-298.658)">
			<title>工作表.72</title>
			<path d="M0 362.31 L0 362.86 L1.89 362.86 L1.89 363.61 L2.47 363.61 L2.47 362.86 L4.56 362.86 L4.56 363.61 L5.14 363.61
						 L5.14 362.86 L7.03 362.86 L7.03 362.31 L5.14 362.31 L5.14 361.59 L4.56 361.59 L4.56 362.31 L2.47 362.31
						 L2.47 361.59 L1.89 361.59 L1.89 362.31 L0 362.31 ZM1.03 363.53 L0.64 363.91 C1.17 364.28 1.61 364.64 1.9
						 364.99 L2.3 364.59 C1.97 364.24 1.55 363.89 1.03 363.53 ZM0.53 364.89 L0.14 365.27 C0.67 365.64 1.09 365.99
						 1.41 366.33 L1.8 365.94 C1.45 365.58 1.03 365.24 0.53 364.89 ZM1.47 366.63 C1.15 367.31 0.75 368.02 0.23
						 368.72 L0.76 369 C1.27 368.31 1.66 367.59 1.95 366.86 L1.47 366.63 ZM5.78 364.41 L5.78 365.91 C5.78 366.09
						 5.67 366.21 5.45 366.21 C5.17 366.21 4.86 366.19 4.51 366.16 L4.66 366.7 C4.98 366.72 5.31 366.72 5.67 366.72
						 C6.11 366.7 6.34 366.5 6.34 366.08 L6.34 363.89 L2.89 363.89 L2.89 368.05 C2.89 368.55 3.14 368.8 3.66 368.8
						 L5.79 368.8 C6.22 368.8 6.5 368.72 6.66 368.58 C6.81 368.41 6.92 367.94 6.98 367.17 L6.44 366.98 C6.39 367.5
						 6.33 367.85 6.25 368.02 C6.17 368.17 5.97 368.25 5.65 368.25 L3.89 368.25 C3.61 368.25 3.47 368.11 3.47
						 367.86 L3.47 364.41 L5.78 364.41 Z" class="st4"/>
		</g>
		<g id="shape73-61" v:mID="73" v:groupContext="shape" transform="translate(215.147,-298.705)">
			<title>工作表.73</title>
			<path d="M2.48 361.59 C1.97 362.86 1.14 363.98 0 364.95 L0.19 365.56 C0.61 365.2 1 364.83 1.36 364.44 L1.36 369 L1.94
						 369 L1.94 363.74 C2.38 363.14 2.74 362.52 3.02 361.85 L2.48 361.59 ZM6.17 368.86 C6.55 368.86 6.81 368.77
						 6.96 368.58 C7.1 368.38 7.19 367.81 7.25 366.91 L6.72 366.72 C6.67 367.52 6.63 367.99 6.53 368.11 C6.44
						 368.24 6.28 368.31 6.08 368.31 L4.78 368.31 C4.5 368.31 4.38 368.17 4.38 367.94 L4.38 365.24 C5.36 364.61
						 6.23 363.89 6.98 363.09 L6.58 362.64 C5.95 363.35 5.22 363.98 4.38 364.55 L4.38 361.69 L3.8 361.69 L3.8
						 364.91 C3.39 365.14 2.95 365.36 2.52 365.56 L2.77 366.11 C3.13 365.94 3.47 365.77 3.8 365.58 L3.8 368.02
						 C3.8 368.58 4.08 368.86 4.64 368.86 L6.17 368.86 Z" class="st4"/>
		</g>
		<g id="shape74-63" v:mID="74" v:groupContext="shape" transform="translate(202.219,-242.235)">
			<title>工作表.74</title>
			<path d="M0.05 369 L0 359.7 L0.05 369 Z" class="st5"/>
			<path d="M0.05 369 L0 359.7" class="st6"/>
		</g>
		<g id="shape75-66" v:mID="75" v:groupContext="shape" transform="translate(200.719,-251.523)">
			<title>工作表.75</title>
			<path d="M1.48 364.99 L1.5 368.99 L1.48 364.99 ZM0 369 L1.48 364.99 L3 368.98 L0 369 Z" class="st5"/>
			<path d="M1.48 364.99 L1.5 368.99M0 369 L1.48 364.99 L3 368.98" class="st7"/>
		</g>
		<g id="shape76-69" v:mID="76" v:groupContext="shape" transform="translate(202.028,-283.632)">
			<title>工作表.76</title>
			<path d="M0.02 369 L0 364.51 L0.02 369 Z" class="st5"/>
			<path d="M0.02 369 L0 364.51" class="st6"/>
		</g>
		<g id="shape77-72" v:mID="77" v:groupContext="shape" transform="translate(200.528,-288.108)">
			<title>工作表.77</title>
			<path d="M1.48 364.99 L1.5 368.99 L1.48 364.99 ZM0 369 L1.48 364.99 L3 368.98 L0 369 Z" class="st5"/>
			<path d="M1.48 364.99 L1.5 368.99M0 369 L1.48 364.99 L3 368.98" class="st7"/>
		</g>
		<g id="shape79-75" v:mID="79" v:groupContext="shape" transform="translate(171.214,-327.398)">
			<title>工作表.79</title>
			<path d="M0 369 L62.2 369 L62.2 353 L0 353 L0 369 Z" class="st9"/>
		</g>
		<g id="shape80-77" v:mID="80" v:groupContext="shape" transform="translate(171.214,-327.398)">
			<title>工作表.80</title>
			<path d="M0 353 L62.2 353 L62.2 369 L0 369 L0 353 Z" class="st3"/>
		</g>
		<g id="shape81-79" v:mID="81" v:groupContext="shape" transform="translate(184.644,-331.274)">
			<title>工作表.81</title>
			<path d="M3.94 361.05 C2.89 362.19 1.58 363.14 0 363.91 L0.31 364.47 C1.9 363.67 3.19 362.72 4.17 361.64 C5.23 362.78
						 6.5 363.7 8 364.42 L8.33 363.84 C6.84 363.16 5.55 362.23 4.41 361.05 L3.94 361.05 ZM1.66 363.89 L1.66 364.51
						 L3.84 364.51 L3.84 366.08 L1.23 366.08 L1.23 366.7 L3.84 366.7 L3.84 368.36 L0.42 368.36 L0.42 369 L7.92
						 369 L7.92 368.36 L4.5 368.36 L4.5 366.7 L7.11 366.7 L7.11 366.08 L4.5 366.08 L4.5 364.51 L6.69 364.51 L6.69
						 363.89 L1.66 363.89 Z" class="st4"/>
		</g>
		<g id="shape82-81" v:mID="82" v:groupContext="shape" transform="translate(193.86,-330.979)">
			<title>工作表.82</title>
			<path d="M0.61 360.88 L0.17 361.3 C0.8 361.81 1.31 362.28 1.67 362.72 L2.14 362.26 C1.72 361.8 1.2 361.34 0.61 360.88
						 ZM5.83 368.81 L7.89 368.81 L8.05 368.17 C7.81 368.19 7.47 368.19 7.05 368.2 C6.59 368.22 6.17 368.22 5.75
						 368.22 C5.05 368.22 4.47 368.22 4 368.2 C3.47 368.19 3.08 368.11 2.8 367.98 C2.55 367.87 2.33 367.69 2.11
						 367.42 C2.03 367.34 1.97 367.27 1.89 367.22 L1.89 363.84 L0 363.84 L0 364.44 L1.3 364.44 L1.3 367.17 C0.92
						 367.34 0.5 367.8 0.02 368.56 L0.5 369 C1 368.17 1.36 367.75 1.56 367.75 C1.67 367.75 1.8 367.83 1.91 367.98
						 C2.19 368.3 2.5 368.53 2.86 368.64 C3.22 368.73 3.67 368.8 4.25 368.8 C4.81 368.81 5.34 368.81 5.83 368.81
						 ZM2.52 361.66 L2.52 362.25 L3.7 362.25 C3.41 362.89 3.08 363.44 2.72 363.86 L2.86 364.45 L4.94 364.45 L4.94
						 365.53 L2.44 365.53 L2.44 366.14 L4.94 366.14 L4.94 367.81 L5.56 367.81 L5.56 366.14 L7.91 366.14 L7.91
						 365.53 L5.56 365.53 L5.56 364.45 L7.52 364.45 L7.52 363.86 L5.56 363.86 L5.56 362.8 L4.94 362.8 L4.94 363.86
						 L3.49 363.86 C3.81 363.39 4.11 362.86 4.39 362.25 L7.8 362.25 L7.8 361.66 L4.64 361.66 C4.75 361.37 4.85
						 361.11 4.94 360.81 L4.33 360.66 C4.22 361 4.1 361.34 3.97 361.66 L2.52 361.66 Z" class="st4"/>
		</g>
		<g id="shape83-83" v:mID="83" v:groupContext="shape" transform="translate(202.644,-330.964)">
			<title>工作表.83</title>
			<path d="M4.44 362.24 L3.91 362.48 C4.09 362.81 4.27 363.17 4.45 363.56 L3.08 363.56 L3.08 364.19 L8.09 364.19 L8.09
						 363.56 L6.64 363.56 C6.84 363.21 7.03 362.8 7.2 362.34 L6.59 362.13 C6.4 362.64 6.2 363.11 5.95 363.56 L5.08
						 363.56 C4.88 363.08 4.67 362.64 4.44 362.24 ZM5.63 360.66 L4.95 360.77 C5.04 360.98 5.16 361.24 5.26 361.52
						 L3.28 361.52 L3.28 362.11 L7.94 362.11 L7.94 361.52 L5.92 361.52 C5.81 361.2 5.72 360.91 5.63 360.66 ZM1.13
						 368.88 C1.66 368.88 1.94 368.62 1.94 368.09 L1.94 365.44 C2.19 365.31 2.44 365.19 2.69 365.06 L2.69 364.41
						 C2.44 364.53 2.19 364.66 1.94 364.78 L1.94 363.06 L2.67 363.06 L2.67 362.44 L1.94 362.44 L1.94 360.74 L1.27
						 360.74 L1.27 362.44 L0.17 362.44 L0.17 363.06 L1.27 363.06 L1.27 365.06 C0.84 365.24 0.42 365.36 0 365.47
						 L0.17 366.13 C0.53 366 0.91 365.86 1.27 365.72 L1.27 367.94 C1.27 368.17 1.14 368.28 0.91 368.28 C0.69 368.28
						 0.45 368.27 0.22 368.25 L0.34 368.88 L1.13 368.88 ZM4.83 364.44 C4.73 364.69 4.62 364.94 4.5 365.2 L2.95
						 365.2 L2.95 365.84 L4.15 365.84 C3.97 366.19 3.76 366.53 3.52 366.91 C4.14 367.16 4.73 367.39 5.28 367.66
						 C4.72 367.97 3.91 368.22 2.86 368.41 L3.12 369 C4.42 368.75 5.36 368.39 5.95 367.97 C6.67 368.31 7.29 368.64
						 7.83 368.97 L8.19 368.46 C7.62 368.13 7.03 367.81 6.4 367.53 C6.83 367.08 7.11 366.5 7.25 365.84 L8.23 365.84
						 L8.23 365.2 L5.16 365.2 C5.26 364.99 5.36 364.75 5.45 364.5 L4.83 364.44 ZM6.64 365.84 C6.5 366.42 6.22
						 366.89 5.81 367.27 C5.33 367.05 4.83 366.84 4.31 366.64 C4.48 366.39 4.66 366.13 4.81 365.84 L6.64 365.84
						 Z" class="st4"/>
		</g>
		<g id="shape84-85" v:mID="84" v:groupContext="shape" transform="translate(211.737,-331.025)">
			<title>工作表.84</title>
			<path d="M2.5 364.22 L2.5 364.8 L7.37 364.8 L7.37 364.22 L2.5 364.22 ZM1.86 365.69 L1.86 366.28 L3.83 366.28 C3.2 367.3
						 2.67 367.92 2.28 368.16 C2.23 368.17 2.2 368.2 2.14 368.22 L2.28 368.77 C3.98 368.66 5.55 368.5 6.97 368.31
						 C7.15 368.53 7.31 368.77 7.47 369 L7.98 368.64 C7.59 368.06 7.01 367.37 6.28 366.59 L5.79 366.89 C6.06 367.2
						 6.33 367.5 6.58 367.8 C5.42 367.97 4.25 368.09 3.06 368.17 C3.48 367.8 3.97 367.16 4.51 366.28 L7.97 366.28
						 L7.97 365.69 L1.86 365.69 ZM6.87 361.73 L6.87 362.78 L1.58 362.78 L1.58 361.73 L6.87 361.73 ZM1.58 363.36
						 L7.5 363.36 L7.5 361.12 L0.95 361.12 L0.95 364.11 C0.94 365.92 0.62 367.39 0 368.53 L0.47 368.97 C1.2 367.61
						 1.58 365.99 1.58 364.11 L1.58 363.36 Z" class="st4"/>
		</g>
		<g id="shape92-87" v:mID="92" v:groupContext="shape" transform="translate(184.558,-183.905)">
			<title>工作表.92</title>
			<path d="M1.5 365 L1.5 369 L1.5 365 ZM0 369 L1.5 365 L3 369 L0 369 Z" class="st5"/>
			<path d="M1.5 365 L1.5 369M0 369 L1.5 365 L3 369" class="st7"/>
		</g>
		<g id="shape97-90" v:mID="97" v:groupContext="shape" transform="translate(170.859,-110.212)">
			<title>工作表.97</title>
			<path d="M0 369 L62.2 369 L62.2 332.78 L0 332.78 L0 369 Z" class="st2"/>
		</g>
		<g id="shape98-92" v:mID="98" v:groupContext="shape" transform="translate(170.859,-110.212)">
			<title>工作表.98</title>
			<path d="M0 332.78 L62.2 332.78 L62.2 369 L0 369 L0 332.78 Z" class="st3"/>
		</g>
		<g id="shape99-94" v:mID="99" v:groupContext="shape" transform="translate(184.336,-130.526)">
			<title>工作表.99</title>
			<path d="M7.22 368.95 C7.51 368.95 7.72 368.89 7.88 368.77 C8.03 368.62 8.14 368.24 8.19 367.59 L7.66 367.41 C7.61 367.89
						 7.55 368.19 7.47 368.28 C7.39 368.36 7.28 368.41 7.11 368.41 L5.89 368.41 C5.66 368.41 5.56 368.3 5.56 368.12
						 L5.56 367.36 L7.3 367.36 L7.3 364.34 C7.49 364.5 7.7 364.67 7.94 364.83 L8.31 364.33 C7.41 363.78 6.74 363.14
						 6.33 362.44 L7.78 362.44 L7.78 361.86 L5.16 361.86 C5.26 361.56 5.36 361.23 5.44 360.89 L4.86 360.83 C4.77
						 361.19 4.67 361.53 4.53 361.86 L2.89 361.86 L2.89 362.44 L4.27 362.44 C3.8 363.25 3.14 363.89 2.26 364.37
						 L2.52 364.81 C2.28 364.92 2.06 365.03 1.83 365.12 L1.83 363.13 L2.63 363.13 L2.63 362.5 L1.83 362.5 L1.83
						 360.86 L1.19 360.86 L1.19 362.5 L0.11 362.5 L0.11 363.13 L1.19 363.13 L1.19 365.36 C0.8 365.48 0.41 365.61
						 0 365.69 L0.17 366.34 C0.52 366.25 0.86 366.14 1.19 366.01 L1.19 368.09 C1.19 368.31 1.08 368.42 0.84 368.42
						 C0.64 368.42 0.42 368.41 0.19 368.39 L0.31 369 L1.08 369 C1.56 369 1.83 368.75 1.83 368.25 L1.83 365.77
						 C2.08 365.67 2.34 365.56 2.59 365.44 L2.59 364.84 C2.8 364.73 3.01 364.61 3.2 364.47 L3.2 367.36 L4.98 367.36
						 L4.98 368.24 C4.98 368.7 5.22 368.95 5.72 368.95 L7.22 368.95 ZM6.98 364.05 L5.56 364.05 L5.56 363.16 L4.98
						 363.16 L4.98 364.05 L3.72 364.05 C4.2 363.61 4.59 363.06 4.91 362.44 L5.73 362.44 C6 362.99 6.42 363.53
						 6.98 364.05 ZM5.56 366.81 L5.56 365.95 L6.72 365.95 L6.72 366.81 L5.56 366.81 ZM5.56 365.44 L5.56 364.58
						 L6.72 364.58 L6.72 365.44 L5.56 365.44 ZM4.98 364.58 L4.98 365.44 L3.78 365.44 L3.78 364.58 L4.98 364.58
						 ZM4.98 365.95 L4.98 366.81 L3.78 366.81 L3.78 365.95 L4.98 365.95 Z" class="st4"/>
		</g>
		<g id="shape100-96" v:mID="100" v:groupContext="shape" transform="translate(193.556,-130.447)">
			<title>工作表.100</title>
			<path d="M0 361.37 L0 361.95 L2.04 361.95 L2.04 362.55 L2.72 362.55 L2.72 361.95 L5.09 361.95 L5.09 362.53 L5.77 362.53
						 L5.77 361.95 L7.81 361.95 L7.81 361.37 L5.77 361.37 L5.77 360.76 L5.09 360.76 L5.09 361.37 L2.72 361.37
						 L2.72 360.75 L2.04 360.75 L2.04 361.37 L0 361.37 ZM4.94 365.58 C5.14 366.19 5.41 366.73 5.7 367.22 C5.33
						 367.78 4.87 368.2 4.31 368.47 L4.62 369 C5.19 368.7 5.67 368.28 6.08 367.73 C6.53 368.28 7.08 368.7 7.72
						 368.98 L8.06 368.42 C7.42 368.17 6.87 367.78 6.4 367.2 C6.8 366.48 7.09 365.58 7.29 364.48 L7.8 364.48 L7.8
						 363.89 L5.61 363.89 C5.7 363.54 5.77 363.2 5.84 362.83 L5.23 362.77 C5.04 363.98 4.67 365.02 4.11 365.86
						 L4.47 366.33 C4.64 366.09 4.8 365.84 4.94 365.58 ZM6.69 364.48 C6.54 365.33 6.31 366.05 6.01 366.66 C5.72
						 366.16 5.47 365.55 5.28 364.84 L5.42 364.48 L6.69 364.48 ZM1.83 362.77 L1.83 364.33 L0.16 364.33 L0.16 368.94
						 L0.72 368.94 L0.72 364.87 L1.88 364.87 L1.88 368.86 L2.41 368.86 L2.41 364.87 L3.5 364.87 L3.5 368.11 C3.5
						 368.31 3.39 368.41 3.16 368.41 L2.69 368.39 L2.83 368.92 L3.36 368.92 C3.83 368.92 4.06 368.7 4.06 368.28
						 L4.06 364.33 L2.44 364.33 L2.44 362.77 L1.83 362.77 ZM2.92 365.64 L2.59 365.75 C2.77 366.33 2.89 366.92
						 3 367.55 L3.34 367.45 C3.22 366.78 3.08 366.17 2.92 365.64 ZM0.78 362.91 L0.25 363.17 C0.47 363.5 0.67 363.87
						 0.87 364.31 L1.34 364.06 C1.17 363.66 0.97 363.26 0.78 362.91 ZM1.28 365.7 C1.22 366.52 1.06 367.22 0.81
						 367.84 L1.22 367.98 C1.45 367.33 1.59 366.58 1.66 365.75 L1.28 365.7 ZM3.54 362.86 C3.39 363.25 3.19 363.64
						 2.94 364.03 L3.4 364.29 C3.67 363.91 3.89 363.52 4.06 363.11 L3.54 362.86 Z" class="st4"/>
		</g>
		<g id="shape101-98" v:mID="101" v:groupContext="shape" transform="translate(202.819,-130.573)">
			<title>工作表.101</title>
			<path d="M3.61 360.88 C2.81 361.73 1.61 362.31 0.02 362.61 L0.39 363.2 C1.36 363 2.19 362.67 2.89 362.26 L5.52 362.26
						 C5.02 363 4.28 363.56 3.35 363.95 C3.06 363.59 2.75 363.27 2.42 362.95 L1.86 363.23 C2.17 363.5 2.47 363.83
						 2.74 364.16 C2.09 364.36 1.38 364.47 0.56 364.53 L0.84 365.11 C3.47 364.91 5.28 363.94 6.25 362.2 L6.25
						 361.69 L3.67 361.69 C3.84 361.53 4.02 361.36 4.19 361.17 L3.61 360.88 ZM3.27 366.5 L2.69 366.76 C3.02 367.09
						 3.33 367.45 3.64 367.86 C2.63 368.2 1.41 368.38 0 368.39 L0.27 369 C3.75 368.92 6.14 367.83 7.41 365.7 L7.41
						 365.19 L4.95 365.19 C5.2 365 5.42 364.8 5.64 364.58 L5.08 364.27 C4.14 365.26 2.7 365.86 0.74 366.06 L1.12
						 366.64 C2.2 366.45 3.14 366.16 3.94 365.78 L6.61 365.78 C6.03 366.58 5.25 367.2 4.25 367.63 C3.94 367.22
						 3.61 366.84 3.27 366.5 Z" class="st4"/>
		</g>
		<g id="shape102-100" v:mID="102" v:groupContext="shape" transform="translate(211.57,-130.433)">
			<title>工作表.102</title>
			<path d="M0.01 364.98 L0.01 365.61 L3.81 365.61 C3.67 365.97 3.5 366.3 3.28 366.61 C2.67 367.37 1.56 367.98 0 368.45
						 L0.36 369 C1.92 368.53 3.05 367.89 3.74 367.06 C3.84 366.94 3.94 366.78 4.03 366.64 C5.41 367.47 6.5 368.26
						 7.31 369 L7.78 368.55 C6.83 367.75 5.67 366.95 4.3 366.14 C4.37 365.97 4.45 365.8 4.51 365.61 L7.83 365.61
						 L7.83 364.98 L4.69 364.98 C4.78 364.53 4.84 364.05 4.86 363.5 L4.86 360.78 L4.2 360.78 L4.2 363.5 C4.19
						 364.02 4.13 364.51 4.02 364.98 L0.01 364.98 ZM0.74 362.7 L0.41 363.2 C1.09 363.5 1.77 363.91 2.42 364.41
						 L2.78 363.88 C2.16 363.41 1.49 363.03 0.74 362.7 ZM1.73 361.25 L1.39 361.75 C1.98 362 2.56 362.34 3.13 362.8
						 L3.47 362.28 C2.95 361.87 2.36 361.55 1.73 361.25 Z" class="st4"/>
		</g>
		<g id="shape103-102" v:mID="103" v:groupContext="shape" transform="translate(188.962,-117.495)">
			<title>工作表.103</title>
			<path d="M0.67 360.95 L0.22 361.41 C0.87 361.87 1.41 362.33 1.78 362.75 L2.25 362.28 C1.83 361.84 1.29 361.41 0.67 360.95
						 ZM0.45 363.08 L0 363.52 C0.62 364 1.13 364.45 1.48 364.88 L1.94 364.41 C1.55 363.95 1.05 363.52 0.45 363.08
						 ZM1.59 365.56 C1.19 366.64 0.7 367.69 0.17 368.72 L0.81 369 C1.31 368 1.76 366.94 2.16 365.8 L1.59 365.56
						 ZM2.59 362.34 L2.59 362.99 L4.94 362.99 L4.94 365.14 L2.84 365.14 L2.84 365.77 L4.94 365.77 L4.94 368.12
						 L2.37 368.12 L2.37 368.77 L8.09 368.77 L8.09 368.12 L5.59 368.12 L5.59 365.77 L7.67 365.77 L7.67 365.14
						 L5.59 365.14 L5.59 362.99 L7.92 362.99 L7.92 362.34 L5.23 362.34 L5.61 362.2 C5.47 361.77 5.26 361.3 5.02
						 360.78 L4.41 360.94 C4.64 361.39 4.84 361.86 5.02 362.34 L2.59 362.34 Z" class="st4"/>
		</g>
		<g id="shape104-104" v:mID="104" v:groupContext="shape" transform="translate(197.915,-117.574)">
			<title>工作表.104</title>
			<path d="M2.02 362 L2.3 362.72 L0.14 362.72 L0.14 363.28 L7.95 363.28 L7.95 362.72 L5.72 362.72 L6.06 362 L7.53 362 L7.53
						 361.45 L4.36 361.45 C4.27 361.22 4.17 361 4.08 360.81 L3.39 360.92 C3.48 361.08 3.56 361.25 3.66 361.45
						 L0.56 361.45 L0.56 362 L2.02 362 ZM2.97 362.72 L2.69 362 L5.39 362 L5.03 362.72 L2.97 362.72 ZM1.17 363.81
						 L1.17 366.49 L6.92 366.49 L6.92 363.81 L1.17 363.81 ZM6.3 365.97 L1.8 365.97 L1.8 365.38 L6.3 365.38 L6.3
						 365.97 ZM1.8 364.91 L1.8 364.33 L6.3 364.33 L6.3 364.91 L1.8 364.91 ZM0.81 366.91 C0.64 367.5 0.36 368.05
						 0 368.53 L0.56 368.89 C0.94 368.36 1.22 367.75 1.44 367.03 L0.81 366.91 ZM5.28 369 C5.63 369 5.86 368.94
						 6.03 368.83 C6.2 368.69 6.33 368.31 6.39 367.69 L5.78 367.5 C5.75 367.94 5.67 368.22 5.56 368.31 C5.5 368.39
						 5.36 368.42 5.16 368.42 L3.26 368.42 C2.98 368.42 2.84 368.28 2.84 368.03 L2.84 366.98 L2.17 366.98 L2.17
						 368.17 C2.17 368.74 2.47 369 3.08 369 L5.28 369 ZM4.14 366.64 L3.59 366.98 C3.97 367.38 4.27 367.72 4.48
						 368.05 L5.02 367.67 C4.83 367.38 4.53 367.03 4.14 366.64 ZM6.97 366.81 L6.45 367.14 C6.94 367.73 7.31 368.28
						 7.61 368.77 L8.14 368.39 C7.88 367.94 7.47 367.42 6.97 366.81 Z" class="st4"/>
		</g>
		<g id="shape105-106" v:mID="105" v:groupContext="shape" transform="translate(207.038,-117.434)">
			<title>工作表.105</title>
			<path d="M3.17 360.78 L3.17 361.69 C3.17 361.99 3.16 362.3 3.14 362.6 L0.47 362.6 L0.47 363.23 L3.08 363.23 C2.99 364.28
						 2.78 365.19 2.48 365.94 C2.02 366.97 1.19 367.83 0 368.46 L0.36 369 C1.56 368.39 2.42 367.53 2.97 366.44
						 C3.36 365.58 3.61 364.52 3.75 363.23 L6.59 363.23 C6.55 365.36 6.44 366.75 6.27 367.41 C6.11 368.03 5.78
						 368.34 5.27 368.34 C4.94 368.34 4.59 368.33 4.24 368.31 L4.41 368.95 L5.6 368.95 C6.06 368.91 6.39 368.72
						 6.61 368.36 C6.83 367.99 6.98 367.31 7.08 366.38 C7.16 365.41 7.22 364.16 7.25 362.6 L3.81 362.6 C3.83 362.3
						 3.83 362 3.84 361.69 L3.84 360.78 L3.17 360.78 Z" class="st4"/>
		</g>
		<g id="shape106-108" v:mID="106" v:groupContext="shape" transform="translate(170.859,-155.634)">
			<title>工作表.106</title>
			<path d="M0 353 L62.2 353 L62.2 369 L0 369 L0 353 Z" class="st3"/>
		</g>
		<g id="shape107-110" v:mID="107" v:groupContext="shape" transform="translate(181.368,-160.304)">
			<title>工作表.107</title>
			<path d="M6.98 362.83 L4.37 362.83 L4.37 368.86 L4.92 368.86 L4.92 368.31 L6.44 368.31 L6.44 368.86 L6.98 368.86 L6.98
						 362.83 ZM4.92 367.76 L4.92 363.38 L6.44 363.38 L6.44 367.76 L4.92 367.76 ZM1.44 361.66 L1.44 363.28 L0.16
						 363.28 L0.16 363.83 L1.44 363.83 C1.41 366.03 0.92 367.62 0 368.62 L0.42 369 C1.45 367.92 1.97 366.2 2 363.83
						 L3.08 363.83 C3.06 365.98 3.01 367.27 2.97 367.69 C2.91 368.14 2.67 368.37 2.26 368.37 C2.08 368.37 1.84
						 368.36 1.59 368.34 L1.73 368.87 C2.02 368.89 2.22 368.91 2.34 368.91 C3.05 368.91 3.44 368.56 3.52 367.9
						 C3.59 367.31 3.64 365.77 3.64 363.28 L2 363.28 L2 361.66 L1.44 361.66 Z" class="st4"/>
		</g>
		<g id="shape108-112" v:mID="108" v:groupContext="shape" transform="translate(191.637,-160.992)">
			<title>工作表.108</title>
			<path d="M3.45 368.19 C3.22 368.44 2.97 368.63 2.7 368.77 C2.43 368.89 2.13 368.95 1.81 368.95 C1.22 368.95 0.76 368.76
						 0.42 368.36 C0.14 368.04 0 367.68 0 367.28 C0 366.93 0.11 366.61 0.34 366.33 C0.57 366.04 0.91 365.78 1.36
						 365.56 C1.11 365.27 0.94 365.03 0.84 364.84 C0.76 364.66 0.72 364.48 0.72 364.31 C0.72 363.97 0.85 363.67
						 1.13 363.42 C1.39 363.16 1.73 363.03 2.14 363.03 C2.53 363.03 2.85 363.15 3.09 363.39 C3.34 363.63 3.47
						 363.92 3.47 364.25 C3.47 364.8 3.11 365.27 2.39 365.66 L3.42 366.95 C3.53 366.73 3.62 366.46 3.69 366.16
						 L4.42 366.31 C4.29 366.81 4.13 367.23 3.92 367.55 C4.18 367.9 4.48 368.2 4.81 368.44 L4.34 369 C4.05 368.81
						 3.75 368.54 3.45 368.19 ZM2.03 365.2 C2.33 365.02 2.52 364.85 2.61 364.72 C2.7 364.58 2.75 364.44 2.75 364.28
						 C2.75 364.09 2.69 363.92 2.56 363.8 C2.44 363.67 2.3 363.61 2.11 363.61 C1.92 363.61 1.76 363.67 1.62 363.8
						 C1.5 363.92 1.44 364.08 1.44 364.25 C1.44 364.34 1.46 364.43 1.5 364.53 C1.55 364.63 1.62 364.73 1.72 364.83
						 L2.03 365.2 ZM3.01 367.63 L1.73 366.03 C1.35 366.26 1.08 366.48 0.95 366.67 C0.83 366.86 0.76 367.05 0.76
						 367.23 C0.76 367.46 0.85 367.7 1.03 367.95 C1.22 368.2 1.48 368.33 1.83 368.33 C2.03 368.33 2.25 368.26
						 2.47 368.14 C2.7 368.01 2.88 367.84 3.01 367.63 Z" class="st4"/>
		</g>
		<g id="shape109-114" v:mID="109" v:groupContext="shape" transform="translate(199.21,-160.304)">
			<title>工作表.109</title>
			<path d="M0.21 362.79 L0.21 363.34 L1.36 363.34 L1.36 364.67 L0.09 364.67 L0.09 365.23 L1.33 365.23 C1.2 366.73 0.77
						 367.87 0 368.62 L0.42 369 C1.08 368.36 1.52 367.48 1.75 366.36 C2.06 366.7 2.44 367.17 2.89 367.78 L3.21
						 367.28 C2.75 366.73 2.28 366.25 1.83 365.83 C1.86 365.64 1.87 365.44 1.89 365.23 L3.11 365.23 L3.11 364.67
						 L1.92 364.67 L1.92 363.34 L3 363.34 L3 362.79 L1.92 362.79 L1.92 361.7 L1.36 361.7 L1.36 362.79 L0.21 362.79
						 ZM6.7 361.97 L3.47 361.97 L3.47 366.36 L4.02 366.36 L4.02 362.51 L6.16 362.51 L6.16 366.36 L6.7 366.36 L6.7
						 361.97 ZM6.49 368.87 C6.75 368.87 6.92 368.79 7.06 368.69 C7.19 368.55 7.28 368.14 7.33 367.48 L6.83 367.33
						 C6.8 367.81 6.75 368.12 6.69 368.23 C6.63 368.31 6.53 368.34 6.39 368.34 L5.99 368.34 C5.81 368.34 5.74
						 368.26 5.74 368.08 L5.74 366.4 L5.2 366.4 L5.2 368.2 C5.2 368.64 5.41 368.87 5.83 368.87 L6.49 368.87 ZM4.83
						 363.17 L4.83 364.59 C4.8 365.59 4.63 366.42 4.3 367.05 C3.94 367.66 3.33 368.14 2.46 368.51 L2.75 369 C3.66
						 368.62 4.3 368.09 4.71 367.44 C5.11 366.73 5.33 365.78 5.34 364.59 L5.34 363.17 L4.83 363.17 Z"
					class="st4"/>
		</g>
		<g id="shape110-116" v:mID="110" v:groupContext="shape" transform="translate(207.337,-160.274)">
			<title>工作表.110</title>
			<path d="M0 362.31 L0 362.86 L1.89 362.86 L1.89 363.61 L2.47 363.61 L2.47 362.86 L4.56 362.86 L4.56 363.61 L5.14 363.61
						 L5.14 362.86 L7.03 362.86 L7.03 362.31 L5.14 362.31 L5.14 361.59 L4.56 361.59 L4.56 362.31 L2.47 362.31
						 L2.47 361.59 L1.89 361.59 L1.89 362.31 L0 362.31 ZM1.03 363.53 L0.64 363.91 C1.17 364.28 1.61 364.64 1.9
						 364.99 L2.3 364.59 C1.97 364.24 1.55 363.89 1.03 363.53 ZM0.53 364.89 L0.14 365.27 C0.67 365.64 1.09 365.99
						 1.41 366.33 L1.8 365.94 C1.45 365.58 1.03 365.24 0.53 364.89 ZM1.47 366.63 C1.15 367.31 0.75 368.02 0.23
						 368.72 L0.76 369 C1.27 368.31 1.66 367.59 1.95 366.86 L1.47 366.63 ZM5.78 364.41 L5.78 365.91 C5.78 366.09
						 5.67 366.21 5.45 366.21 C5.17 366.21 4.86 366.19 4.51 366.16 L4.66 366.7 C4.98 366.72 5.31 366.72 5.67 366.72
						 C6.11 366.7 6.34 366.5 6.34 366.08 L6.34 363.89 L2.89 363.89 L2.89 368.05 C2.89 368.55 3.14 368.8 3.66 368.8
						 L5.79 368.8 C6.22 368.8 6.5 368.72 6.66 368.58 C6.81 368.41 6.92 367.94 6.98 367.17 L6.44 366.98 C6.39 367.5
						 6.33 367.85 6.25 368.02 C6.17 368.17 5.97 368.25 5.65 368.25 L3.89 368.25 C3.61 368.25 3.47 368.11 3.47
						 367.86 L3.47 364.41 L5.78 364.41 Z" class="st4"/>
		</g>
		<g id="shape111-118" v:mID="111" v:groupContext="shape" transform="translate(215.147,-160.321)">
			<title>工作表.111</title>
			<path d="M2.48 361.59 C1.97 362.86 1.14 363.98 0 364.95 L0.19 365.56 C0.61 365.2 1 364.83 1.36 364.44 L1.36 369 L1.94
						 369 L1.94 363.74 C2.38 363.14 2.74 362.52 3.02 361.85 L2.48 361.59 ZM6.17 368.86 C6.55 368.86 6.81 368.77
						 6.96 368.58 C7.1 368.38 7.19 367.81 7.25 366.91 L6.72 366.72 C6.67 367.52 6.63 367.99 6.53 368.11 C6.44
						 368.24 6.28 368.31 6.08 368.31 L4.78 368.31 C4.5 368.31 4.38 368.17 4.38 367.94 L4.38 365.24 C5.36 364.61
						 6.23 363.89 6.98 363.09 L6.58 362.64 C5.95 363.35 5.22 363.98 4.38 364.55 L4.38 361.69 L3.8 361.69 L3.8
						 364.91 C3.39 365.14 2.95 365.36 2.52 365.56 L2.77 366.11 C3.13 365.94 3.47 365.77 3.8 365.58 L3.8 368.02
						 C3.8 368.58 4.08 368.86 4.64 368.86 L6.17 368.86 Z" class="st4"/>
		</g>
		<g id="shape112-120" v:mID="112" v:groupContext="shape" transform="translate(170.859,-34.3976)">
			<title>工作表.112</title>
			<path d="M0 353 L62.2 353 L62.2 369 L0 369 L0 353 Z" class="st3"/>
		</g>
		<g id="shape113-122" v:mID="113" v:groupContext="shape" transform="translate(189.056,-37.9951)">
			<title>工作表.113</title>
			<path d="M0 363.98 L0 364.56 L0.69 364.56 L0.69 368.91 L1.31 368.91 L1.31 368.42 L3.33 368.42 L3.33 364.56 L4 364.56
						 L4 363.98 L3.33 363.98 L3.33 363.09 L2.7 363.09 L2.7 363.98 L1.31 363.98 L1.31 363.08 L0.69 363.08 L0.69
						 363.98 L0 363.98 ZM1.31 367.83 L1.31 366.45 L2.7 366.45 L2.7 367.83 L1.31 367.83 ZM2.7 365.88 L1.31 365.88
						 L1.31 364.56 L2.7 364.56 L2.7 365.88 ZM3.59 360.78 L3.59 362.05 L1.25 362.05 L1.25 361.08 L0.59 361.08 L0.59
						 362.62 L7.19 362.62 L7.19 361.06 L6.53 361.06 L6.53 362.05 L4.25 362.05 L4.25 360.78 L3.59 360.78 ZM4.8
						 362.88 C4.66 364.06 4.31 365 3.8 365.66 L4.29 366 C4.62 365.6 4.89 365.06 5.08 364.42 L6.98 364.42 C6.87
						 364.92 6.72 365.38 6.54 365.78 L7.11 365.94 C7.31 365.39 7.48 364.81 7.62 364.24 L7.62 363.84 L5.23 363.84
						 C5.3 363.58 5.36 363.28 5.41 362.97 L4.8 362.88 ZM5.45 364.87 C5.45 365.7 5.36 366.39 5.17 366.92 C4.92
						 367.55 4.41 368.08 3.62 368.5 L4.01 369 C4.92 368.48 5.51 367.85 5.77 367.06 L5.78 367 C6.2 367.8 6.84 368.47
						 7.67 369 L8.08 368.52 C7.08 367.94 6.37 367.16 5.95 366.17 C6.01 365.77 6.05 365.34 6.05 364.87 L5.45 364.87
						 Z" class="st4"/>
		</g>
		<g id="shape114-124" v:mID="114" v:groupContext="shape" transform="translate(197.804,-38.1182)">
			<title>工作表.114</title>
			<path d="M3.77 362.95 C3.19 365.34 1.94 367.19 0 368.44 L0.39 369 C2.28 367.76 3.53 366 4.13 363.7 C4.17 363.81 4.2 363.94
						 4.27 364.09 C5.19 366.47 6.38 368.11 7.85 368.98 L8.25 368.47 C6.81 367.58 5.69 366.05 4.85 363.91 C4.3
						 362.44 3.61 361.42 2.81 360.86 L2.28 361.2 C2.84 361.62 3.35 362.2 3.77 362.95 Z" class="st4"/>
		</g>
		<g id="shape115-126" v:mID="115" v:groupContext="shape" transform="translate(206.883,-38.0244)">
			<title>工作表.115</title>
			<path d="M2.5 364.22 L2.5 364.8 L7.37 364.8 L7.37 364.22 L2.5 364.22 ZM1.86 365.69 L1.86 366.28 L3.83 366.28 C3.2 367.29
						 2.67 367.92 2.28 368.16 C2.24 368.17 2.2 368.2 2.14 368.22 L2.28 368.77 C3.98 368.65 5.55 368.5 6.97 368.31
						 C7.16 368.53 7.31 368.77 7.47 369 L7.98 368.64 C7.59 368.06 7.02 367.37 6.28 366.59 L5.8 366.89 C6.06 367.2
						 6.33 367.5 6.58 367.8 C5.42 367.97 4.25 368.09 3.06 368.17 C3.48 367.8 3.97 367.15 4.51 366.28 L7.97 366.28
						 L7.97 365.69 L1.86 365.69 ZM6.88 361.73 L6.88 362.78 L1.58 362.78 L1.58 361.73 L6.88 361.73 ZM1.58 363.36
						 L7.5 363.36 L7.5 361.12 L0.95 361.12 L0.95 364.11 C0.94 365.92 0.62 367.39 0 368.53 L0.47 368.97 C1.2 367.61
						 1.58 365.98 1.58 364.11 L1.58 363.36 Z" class="st4"/>
		</g>
		<g id="shape116-128" v:mID="116" v:groupContext="shape" transform="translate(201.961,-50.3995)">
			<title>工作表.116</title>
			<path d="M0 369 L0 362.6 L0 369 Z" class="st5"/>
			<path d="M0 369 L0 362.6" class="st6"/>
		</g>
		<g id="shape117-131" v:mID="117" v:groupContext="shape" transform="translate(200.461,-56.8009)">
			<title>工作表.117</title>
			<path d="M1.5 365 L1.5 369 L1.5 365 ZM0 369 L1.5 365 L3 369 L0 369 Z" class="st5"/>
			<path d="M1.5 365 L1.5 369M0 369 L1.5 365 L3 369" class="st7"/>
		</g>
		<g id="shape118-134" v:mID="118" v:groupContext="shape" transform="translate(201.961,-78.7003)">
			<title>工作表.118</title>
			<path d="M0 369 L0 343.39 L0 369 Z" class="st5"/>
			<path d="M0 369 L0 343.39" class="st6"/>
		</g>
		<g id="shape119-137" v:mID="119" v:groupContext="shape" transform="translate(200.461,-104.312)">
			<title>工作表.119</title>
			<path d="M1.5 365 L1.5 369 L1.5 365 ZM0 369 L1.5 365 L3 369 L0 369 Z" class="st5"/>
			<path d="M1.5 365 L1.5 369M0 369 L1.5 365 L3 369" class="st7"/>
		</g>
		<g id="shape120-140" v:mID="120" v:groupContext="shape" transform="translate(201.961,-146.435)">
			<title>工作表.120</title>
			<path d="M0 369 L0 365.7 L0 369 Z" class="st5"/>
			<path d="M0 369 L0 365.7" class="st6"/>
		</g>
		<g id="shape121-143" v:mID="121" v:groupContext="shape" transform="translate(200.461,-149.733)">
			<title>工作表.121</title>
			<path d="M1.5 365 L1.5 369 L1.5 365 ZM0 369 L1.5 365 L3 369 L0 369 Z" class="st5"/>
			<path d="M1.5 365 L1.5 369M0 369 L1.5 365 L3 369" class="st7"/>
		</g>
		<g id="shape122-146" v:mID="122" v:groupContext="shape" transform="translate(194.446,-7.29492)">
			<title>工作表.122</title>
			<path d="M6.05 361.19 L0 361.19 L0 369 L0.66 369 L0.66 368.41 L5.39 368.41 L5.39 368.99 L6.05 368.99 L6.05 361.19 ZM0.66
						 367.77 L0.66 366.08 L5.39 366.08 L5.39 367.77 L0.66 367.77 ZM0.66 365.48 L0.66 363.91 L5.39 363.91 L5.39
						 365.48 L0.66 365.48 ZM0.66 363.31 L0.66 361.81 L5.39 361.81 L5.39 363.31 L0.66 363.31 Z" class="st4"/>
		</g>
		<g id="shape123-148" v:mID="123" v:groupContext="shape" transform="translate(202.289,-7.30957)">
			<title>工作表.123</title>
			<path d="M1.39 360.78 L1.39 362.48 L0.3 362.48 L0.3 363.11 L1.39 363.11 C1.11 364.23 0.66 365.25 0 366.14 L0.28 366.84
						 C0.74 366.14 1.11 365.36 1.39 364.51 L1.39 369 L2.03 369 L2.03 364.49 C2.3 364.83 2.61 365.28 2.99 365.84
						 L3.36 365.3 C2.91 364.75 2.47 364.25 2.03 363.8 L2.03 363.11 L3.08 363.11 L3.08 362.48 L2.03 362.48 L2.03
						 360.78 L1.39 360.78 ZM4.05 364.84 C3.8 365.97 3.39 366.97 2.83 367.89 L3.39 368.25 C3.92 367.33 4.36 366.25
						 4.64 364.98 L4.05 364.84 ZM7.3 364.81 L6.72 365 C7.06 365.97 7.39 367.08 7.69 368.33 L8.28 368.06 C8 366.91
						 7.69 365.83 7.3 364.81 ZM5.28 368.91 C5.81 368.91 6.08 368.64 6.08 368.11 L6.08 364.11 L8.28 364.11 L8.28
						 363.48 L3.23 363.48 L3.23 364.11 L5.44 364.11 L5.44 367.95 C5.44 368.2 5.31 368.34 5.06 368.34 C4.8 368.34
						 4.53 368.33 4.25 368.31 L4.37 368.91 L5.28 368.91 ZM3.72 361.3 L3.72 361.91 L7.81 361.91 L7.81 361.3 L3.72
						 361.3 Z" class="st4"/>
		</g>
		<g id="shape124-150" v:mID="124" v:groupContext="shape" transform="translate(201.961,-23.2003)">
			<title>工作表.124</title>
			<path d="M0 369 L0 363.7 L0 369 Z" class="st5"/>
			<path d="M0 369 L0 363.7" class="st6"/>
		</g>
		<g id="shape125-153" v:mID="125" v:groupContext="shape" transform="translate(200.461,-28.5001)">
			<title>工作表.125</title>
			<path d="M1.5 365 L1.5 369 L1.5 365 ZM0 369 L1.5 365 L3 369 L0 369 Z" class="st5"/>
			<path d="M1.5 365 L1.5 369M0 369 L1.5 365 L3 369" class="st7"/>
		</g>
		<g id="shape126-156" v:mID="126" v:groupContext="shape" transform="translate(211.116,-99.2257)">
			<title>工作表.126</title>
			<path d="M0 369 L29.02 369 C31.22 369 33.01 367.22 33.02 365.02 L33.26 307.77 C33.28 305.57 31.49 303.76 29.28 303.76
						 C29.25 303.76 29.21 303.76 29.18 303.76 L27.84 303.79 L0 369 Z" class="st5"/>
			<path d="M0 369 L29.02 369 C31.22 369 33.01 367.22 33.02 365.02 L33.26 307.77 C33.28 305.57 31.49 303.76 29.28 303.76
						 C29.25 303.76 29.21 303.76 29.18 303.76 L27.84 303.79" class="st6"/>
		</g>
		<g id="shape127-159" v:mID="127" v:groupContext="shape" transform="translate(234.961,-162.941)">
			<title>工作表.127</title>
			<path d="M0 367.59 L4 367.5 L0 367.59 ZM4.03 369 L0 367.59 L3.96 366 L4.03 369 Z" class="st5"/>
			<path d="M0 367.59 L4 367.5M4.03 369 L0 367.59 L3.96 366" class="st7"/>
		</g>
		<g id="shape128-162" v:mID="128" v:groupContext="shape" transform="translate(202.163,-99.2257)">
			<title>工作表.128</title>
			<path d="M0 369 L12 369 C14.21 369 16 367.21 16 365 L16 363.91 L0 369 Z" class="st5"/>
			<path d="M0 369 L12 369 C14.21 369 16 367.21 16 365 L16 363.91" class="st6"/>
		</g>
		<g id="shape129-165" v:mID="129" v:groupContext="shape" transform="translate(216.665,-104.312)">
			<title>工作表.129</title>
			<path d="M1.5 365 L1.5 369 L1.5 365 ZM0 369 L1.5 365 L3 369 L0 369 Z" class="st5"/>
			<path d="M1.5 365 L1.5 369M0 369 L1.5 365 L3 369" class="st7"/>
		</g>
		<g id="shape130-168" v:mID="130" v:groupContext="shape" transform="translate(186.067,-99.2257)">
			<title>工作表.130</title>
			<path d="M16.1 369 L4 369 C1.79 369 0 367.21 0 365 L0 363.91 L16.1 369 Z" class="st5"/>
			<path d="M16.1 369 L4 369 C1.79 369 0 367.21 0 365 L0 363.91" class="st6"/>
		</g>
		<g id="shape131-171" v:mID="131" v:groupContext="shape" transform="translate(184.567,-104.312)">
			<title>工作表.131</title>
			<path d="M1.5 365 L1.5 369 L1.5 365 ZM0 369 L1.5 365 L3 369 L0 369 Z" class="st5"/>
			<path d="M1.5 365 L1.5 369M0 369 L1.5 365 L3 369" class="st7"/>
		</g>
		<g id="shape132-174" v:mID="132" v:groupContext="shape" transform="translate(202.063,-171.633)">
			<title>工作表.132</title>
			<path d="M0 369 L0.06 364.44 C0.08 362.8 1.42 361.49 3.06 361.49 L12.87 361.49 C14.5 361.49 15.83 360.18 15.87 358.55
						 L15.91 356.6 L0 369 Z" class="st5"/>
			<path d="M0 369 L0.06 364.44 C0.08 362.8 1.42 361.49 3.06 361.49 L12.87 361.49 C14.5 361.49 15.83 360.18 15.87 358.55
						 L15.91 356.6" class="st6"/>
		</g>
		<g id="shape133-177" v:mID="133" v:groupContext="shape" transform="translate(216.477,-183.993)">
			<title>工作表.133</title>
			<path d="M1.59 364.97 L1.5 368.96 L1.59 364.97 ZM0 368.93 L1.59 364.97 L3 369 L0 368.93 Z" class="st5"/>
			<path d="M1.59 364.97 L1.5 368.96M0 368.93 L1.59 364.97 L3 369" class="st7"/>
		</g>
		<g id="shape134-180" v:mID="134" v:groupContext="shape" transform="translate(178.655,-179.546)">
			<title>工作表.134</title>
			<path d="M0 369 L19.43 368.88 C21.59 368.87 23.35 367.14 23.4 364.97 L23.41 364.52 L0 369 Z" class="st5"/>
			<path d="M0 369 L19.43 368.88 C21.59 368.87 23.35 367.14 23.4 364.97 L23.41 364.52" class="st6"/>
		</g>
		<g id="shape135-183" v:mID="135" v:groupContext="shape" transform="translate(200.569,-183.993)">
			<title>工作表.135</title>
			<path d="M1.6 364.97 L1.5 368.96 L1.6 364.97 ZM0 368.93 L1.6 364.97 L3 369 L0 368.93 Z" class="st5"/>
			<path d="M1.6 364.97 L1.5 368.96M0 368.93 L1.6 364.97 L3 369" class="st7"/>
		</g>
		<g id="shape136-186" v:mID="136" v:groupContext="shape" transform="translate(205.122,-179.148)">
			<title>工作表.136</title>
			<path d="M0 369 L35.14 368.73 C37.34 368.71 39.12 366.93 39.11 364.73 L39.05 316.46 C39.05 314.26 37.26 312.47 35.04
						 312.47 C35 312.47 34.95 312.47 34.9 312.47 L34.19 312.5 L0 369 Z" class="st5"/>
			<path d="M0 369 L35.14 368.73 C37.34 368.71 39.12 366.93 39.11 364.73 L39.05 316.46 C39.05 314.26 37.26 312.47 35.04
						 312.47 C35 312.47 34.95 312.47 34.9 312.47 L34.19 312.5" class="st6"/>
		</g>
		<g id="shape137-189" v:mID="137" v:groupContext="shape" transform="translate(235.312,-234.149)">
			<title>工作表.137</title>
			<path d="M0 367.65 L4 367.5 L0 367.65 ZM4.05 369 L0 367.65 L3.94 366 L4.05 369 Z" class="st5"/>
			<path d="M0 367.65 L4 367.5M4.05 369 L0 367.65 L3.94 366" class="st7"/>
		</g>
		<g id="shape138-192" v:mID="138" v:groupContext="shape" transform="translate(202.714,-248.353)">
			<title>工作表.138</title>
			<path d="M0 369 L37.15 369 C39.36 369 41.15 367.21 41.15 365 L41.15 316.04 C41.15 313.83 39.36 312.04 37.15 312.04 C37.04
						 312.04 36.92 312.04 36.81 312.05 L36.22 312.1 L0 369 Z" class="st5"/>
			<path d="M0 369 L37.15 369 C39.36 369 41.15 367.21 41.15 365 L41.15 316.04 C41.15 313.83 39.36 312.04 37.15 312.04 C37.04
						 312.04 36.92 312.04 36.81 312.05 L36.22 312.1" class="st6"/>
		</g>
		<g id="shape139-195" v:mID="139" v:groupContext="shape" transform="translate(234.952,-303.759)">
			<title>工作表.139</title>
			<path d="M0 367.86 L3.98 367.51 L0 367.86 ZM4.12 369 L0 367.86 L3.86 366.01 L4.12 369 Z" class="st5"/>
			<path d="M0 367.86 L3.98 367.51M4.12 369 L0 367.86 L3.86 366.01" class="st7"/>
		</g>
		<g id="shape140-198" v:mID="140" v:groupContext="shape" transform="translate(202.046,-310.017)">
			<title>工作表.140</title>
			<path d="M0 369 L0.12 357.52 L0 369 Z" class="st5"/>
			<path d="M0 369 L0.12 357.52" class="st6"/>
		</g>
		<g id="shape141-201" v:mID="141" v:groupContext="shape" transform="translate(200.669,-321.483)">
			<title>工作表.141</title>
			<path d="M1.54 364.98 L1.5 368.98 L1.54 364.98 ZM0 368.97 L1.54 364.98 L3 369 L0 368.97 Z" class="st5"/>
			<path d="M1.54 364.98 L1.5 368.98M0 368.97 L1.54 364.98 L3 369" class="st7"/>
		</g>
		<g id="group142-204" transform="translate(261,-207.75)" v:mID="142" v:groupContext="group">
			<title>clip1</title>
			<g id="shape143-205" v:mID="143" v:groupContext="shape">
				<title>工作表.143</title>
				<path d="M0 364.5 L4.75 364.5 L4.75 369 L0 369 L0 364.5 Z" class="st4"/>
			</g>
		</g>
		<g id="shape144-207" v:mID="144" v:groupContext="shape" transform="translate(268.441,-207.621)">
			<title>工作表.144</title>
			<path d="M4.01 367.87 C3.95 367.95 3.89 368.03 3.83 368.11 C3.56 368.44 3.4 368.58 3.28 368.58 C3.17 368.58 3.14 368.5
						 3.14 368.42 C3.14 368.34 3.17 368.19 3.26 367.87 L3.76 366.05 C3.81 365.86 3.86 365.66 3.86 365.5 C3.86
						 365.17 3.66 364.95 3.26 364.95 C2.69 364.95 2.09 365.5 1.19 366.94 L1.8 364.97 L1.75 364.95 C1.28 365.05
						 1.03 365.09 0.3 365.24 L0.3 365.38 C0.75 365.39 0.89 365.44 0.89 365.63 C0.89 365.67 0.87 365.74 0.86 365.77
						 L0 368.92 L0.67 368.92 C1.09 367.5 1.17 367.3 1.58 366.69 C2.14 365.86 2.55 365.41 2.91 365.41 C3.05 365.41
						 3.12 365.52 3.12 365.67 C3.12 365.78 3.06 366.11 3 366.39 L2.61 367.85 C2.47 368.31 2.45 368.42 2.45 368.52
						 C2.45 368.86 2.65 369 2.87 369 C3.3 369 3.53 368.83 4.14 367.99 L4.01 367.87 Z" class="st4"/>
		</g>
		<g id="shape148-209" v:mID="148" v:groupContext="shape" transform="translate(117,-175.852)">
			<title>工作表.148</title>
			<path d="M2.34 367.08 C1.7 367.41 0.95 367.66 0.11 367.84 L0.19 368.48 C1 368.28 1.72 368.02 2.34 367.69 L2.34 367.08
						 ZM1.42 360.72 C1.09 361.77 0.7 362.69 0.25 363.5 C0.19 363.61 0.09 363.69 0 363.74 L0.16 364.31 C0.64 364.23
						 1.11 364.16 1.59 364.06 C1.13 364.89 0.73 365.47 0.42 365.81 C0.34 365.89 0.23 365.95 0.12 366 L0.3 366.58
						 C1.03 366.47 1.8 366.28 2.61 366.01 L2.61 365.44 C2.09 365.62 1.58 365.77 1.06 365.87 C1.55 365.26 2.17
						 364.23 2.92 362.78 L2.36 362.56 C2.2 362.89 2.03 363.2 1.89 363.48 C1.51 363.56 1.13 363.62 0.73 363.69
						 C1.17 363.01 1.61 362.09 2.03 360.95 L1.42 360.72 ZM7.31 368.97 C7.72 368.97 7.92 368.75 7.92 368.34 L7.92
						 364.72 L3.81 364.72 L3.81 369 L4.34 369 L4.34 367 L5.04 367 L5.04 368.84 L5.53 368.84 L5.53 367 L6.19 367
						 L6.19 368.84 L6.66 368.84 L6.66 367 L7.39 367 L7.39 368.2 C7.39 368.39 7.29 368.48 7.14 368.48 L6.78 368.47
						 L6.92 368.97 L7.31 368.97 ZM4.34 366.45 L4.34 365.28 L5.04 365.28 L5.04 366.45 L4.34 366.45 ZM5.53 365.28
						 L6.19 365.28 L6.19 366.45 L5.53 366.45 L5.53 365.28 ZM6.66 365.28 L7.39 365.28 L7.39 366.45 L6.66 366.45
						 L6.66 365.28 ZM7.29 362.22 L7.29 363.37 L3.78 363.37 L3.78 362.22 L7.29 362.22 ZM3.78 363.94 L7.89 363.94
						 L7.89 361.66 L5.86 361.66 C5.75 361.3 5.64 360.97 5.51 360.7 L4.84 360.8 C4.98 361.06 5.11 361.34 5.23 361.66
						 L3.19 361.66 L3.19 363.84 C3.17 365.77 2.81 367.34 2.09 368.58 L2.56 368.99 C3.34 367.58 3.75 365.89 3.78
						 363.94 Z" class="st4"/>
		</g>
		<g id="shape149-211" v:mID="149" v:groupContext="shape" transform="translate(125.936,-175.913)">
			<title>工作表.149</title>
			<path d="M3.09 363.97 L1.44 363.97 C1.67 363.33 1.85 362.65 1.97 361.94 L3.33 361.94 L3.33 361.31 L0.25 361.31 L0.25
						 361.94 L1.36 361.94 C1.14 363.28 0.69 364.47 0 365.51 L0.33 366.05 C0.55 365.73 0.74 365.42 0.92 365.09
						 L0.92 368.77 L1.53 368.77 L1.53 368.08 L2.5 368.08 L2.5 368.59 L3.09 368.59 L3.09 363.97 ZM1.53 367.48 L1.53
						 364.56 L2.5 364.56 L2.5 367.48 L1.53 367.48 ZM4.3 362.42 L3.81 365.34 L7.45 365.34 C7.45 366.78 7.38 367.66
						 7.24 367.95 C7.11 368.25 6.69 368.41 6 368.41 C5.83 368.41 5.56 368.37 5.16 368.34 L5.34 368.97 C5.62 369
						 5.89 369 6.16 369 C6.94 369 7.45 368.83 7.71 368.5 C7.94 368.17 8.06 366.92 8.06 364.73 L7.11 364.73 L7.61
						 361.19 L3.74 361.19 L3.74 361.8 L6.91 361.8 L6.45 364.73 L4.55 364.73 L4.94 362.47 L4.3 362.42 ZM3.55 366.48
						 L3.55 367.09 L6.83 367.09 L6.83 366.48 L3.55 366.48 Z" class="st4"/>
		</g>
		<g id="shape150-213" v:mID="150" v:groupContext="shape" transform="translate(134.968,-175.852)">
			<title>工作表.150</title>
			<path d="M0.92 361.08 L0.92 363.27 L3.66 363.27 L3.66 361.08 L0.92 361.08 ZM3.06 362.72 L1.5 362.72 L1.5 361.64 L3.06
						 361.64 L3.06 362.72 ZM4.66 361.08 L4.66 363.27 L7.45 363.27 L7.45 361.08 L4.66 361.08 ZM6.88 362.72 L5.25
						 362.72 L5.25 361.64 L6.88 361.64 L6.88 362.72 ZM0.19 364.17 L0.19 364.75 L2.67 364.75 C2.05 365.28 1.16
						 365.73 0 366.06 L0.3 366.59 C0.56 366.52 0.8 366.44 1.05 366.34 L1.05 369 L1.61 369 L1.61 368.61 L3.14 368.61
						 L3.14 369 L3.72 369 L3.72 366.17 L1.47 366.17 C2.31 365.8 2.99 365.33 3.48 364.75 L5.02 364.75 C5.47 365.3
						 6.13 365.77 6.98 366.17 L4.59 366.17 L4.59 369 L5.17 369 L5.17 368.61 L6.84 368.61 L6.84 369 L7.42 369 L7.42
						 366.36 C7.63 366.42 7.83 366.52 8.05 366.58 L8.31 366.03 C7.16 365.72 6.28 365.28 5.69 364.75 L8.12 364.75
						 L8.12 364.17 L6.89 364.17 C6.74 363.89 6.58 363.62 6.39 363.37 L5.84 363.56 C5.99 363.74 6.13 363.94 6.25
						 364.17 L3.92 364.17 C4.05 363.95 4.17 363.74 4.25 363.5 L3.64 363.44 C3.53 363.69 3.39 363.94 3.22 364.17
						 L0.19 364.17 ZM1.61 368.06 L1.61 366.7 L3.14 366.7 L3.14 368.06 L1.61 368.06 ZM5.17 368.06 L5.17 366.7 L6.84
						 366.7 L6.84 368.06 L5.17 368.06 Z" class="st4"/>
		</g>
		<g id="shape151-215" v:mID="151" v:groupContext="shape" transform="translate(188.836,-352.831)">
			<title>工作表.151</title>
			<path d="M4.97 365.52 L6.03 365.52 L6.03 366.61 L4.08 366.61 L4.08 367.19 L6.03 367.19 L6.03 368.95 L6.66 368.95 L6.66
						 367.19 L8.19 367.19 L8.19 366.61 L6.66 366.61 L6.66 365.52 L8 365.52 L8 364.92 L6.66 364.92 L6.66 364.09
						 L6.03 364.09 L6.03 364.92 L5.2 364.92 C5.26 364.72 5.31 364.5 5.36 364.25 L4.83 364.16 C4.69 364.87 4.44
						 365.44 4.03 365.87 L4.41 366.33 C4.63 366.09 4.81 365.83 4.97 365.52 ZM5.34 361.8 C5.28 362.09 5.17 362.36
						 5.05 362.59 C4.84 362.91 4.53 363.2 4.14 363.44 L4.51 363.92 C4.97 363.62 5.33 363.27 5.56 362.89 C5.73
						 362.58 5.86 362.2 5.95 361.8 L7.28 361.8 C7.25 362.44 7.22 362.84 7.17 363 C7.11 363.16 6.95 363.23 6.7
						 363.25 C6.48 363.23 6.23 363.22 5.92 363.2 L6.08 363.74 C6.36 363.75 6.62 363.78 6.83 363.78 C7.22 363.78
						 7.49 363.64 7.66 363.42 C7.81 363.17 7.89 362.44 7.89 361.22 L4.14 361.22 L4.14 361.8 L5.34 361.8 ZM1.09
						 365.05 L1.91 365.05 L1.91 366.22 L1.08 366.22 C1.08 366.16 1.09 366.09 1.09 366.01 L1.09 365.05 ZM1.06 366.76
						 L1.91 366.76 L1.91 368.81 L2.44 368.81 L2.44 366.76 L3.27 366.76 L3.27 368.02 C3.27 368.24 3.17 368.36 2.97
						 368.36 C2.83 368.36 2.67 368.34 2.5 368.31 L2.66 368.86 L3.16 368.86 C3.59 368.86 3.81 368.64 3.81 368.22
						 L3.81 362.81 L2.73 362.81 C2.94 362.55 3.14 362.2 3.34 361.8 L3.34 361.36 L1.73 361.36 C1.81 361.17 1.89
						 360.97 1.97 360.78 L1.37 360.64 C1.03 361.58 0.59 362.33 0.05 362.91 L0.44 363.39 C0.47 363.34 0.5 363.33
						 0.53 363.28 L0.53 366.05 C0.53 367.08 0.34 367.94 0 368.59 L0.44 369 C0.76 368.41 0.97 367.66 1.06 366.76
						 ZM2.08 362.81 L0.91 362.81 C1.11 362.53 1.31 362.22 1.49 361.89 L2.66 361.89 C2.45 362.24 2.26 362.55 2.08
						 362.81 ZM3.27 366.22 L2.44 366.22 L2.44 365.05 L3.27 365.05 L3.27 366.22 ZM3.27 364.5 L2.44 364.5 L2.44
						 363.37 L3.27 363.37 L3.27 364.5 ZM1.91 363.37 L1.91 364.5 L1.09 364.5 L1.09 363.37 L1.91 363.37 Z"
					class="st4"/>
		</g>
		<g id="shape152-217" v:mID="152" v:groupContext="shape" transform="translate(197.774,-352.957)">
			<title>工作表.152</title>
			<path d="M3.09 363.97 L1.44 363.97 C1.67 363.33 1.84 362.66 1.97 361.94 L3.33 361.94 L3.33 361.31 L0.25 361.31 L0.25
						 361.94 L1.36 361.94 C1.14 363.28 0.69 364.47 0 365.52 L0.33 366.05 C0.54 365.74 0.73 365.42 0.92 365.09
						 L0.92 368.77 L1.53 368.77 L1.53 368.08 L2.5 368.08 L2.5 368.6 L3.09 368.6 L3.09 363.97 ZM1.53 367.49 L1.53
						 364.56 L2.5 364.56 L2.5 367.49 L1.53 367.49 ZM4.29 362.42 L3.81 365.34 L7.45 365.34 C7.45 366.78 7.37 367.66
						 7.23 367.95 C7.11 368.25 6.69 368.41 6 368.41 C5.83 368.41 5.56 368.38 5.16 368.34 L5.34 368.97 C5.62 369
						 5.89 369 6.16 369 C6.94 369 7.45 368.83 7.7 368.5 C7.94 368.17 8.06 366.92 8.06 364.73 L7.11 364.73 L7.61
						 361.19 L3.73 361.19 L3.73 361.8 L6.91 361.8 L6.45 364.73 L4.55 364.73 L4.94 362.47 L4.29 362.42 ZM3.54 366.49
						 L3.54 367.1 L6.83 367.1 L6.83 366.49 L3.54 366.49 Z" class="st4"/>
		</g>
		<g id="shape153-219" v:mID="153" v:groupContext="shape" transform="translate(206.804,-352.893)">
			<title>工作表.153</title>
			<path d="M0.92 361.08 L0.92 363.26 L3.66 363.26 L3.66 361.08 L0.92 361.08 ZM3.06 362.72 L1.5 362.72 L1.5 361.64 L3.06
						 361.64 L3.06 362.72 ZM4.66 361.08 L4.66 363.26 L7.45 363.26 L7.45 361.08 L4.66 361.08 ZM6.88 362.72 L5.25
						 362.72 L5.25 361.64 L6.88 361.64 L6.88 362.72 ZM0.19 364.17 L0.19 364.75 L2.67 364.75 C2.05 365.28 1.16
						 365.73 0 366.06 L0.3 366.59 C0.56 366.52 0.8 366.44 1.05 366.34 L1.05 369 L1.61 369 L1.61 368.61 L3.14 368.61
						 L3.14 369 L3.72 369 L3.72 366.17 L1.47 366.17 C2.31 365.79 2.99 365.33 3.49 364.75 L5.02 364.75 C5.47 365.3
						 6.13 365.77 6.98 366.17 L4.59 366.17 L4.59 369 L5.17 369 L5.17 368.61 L6.84 368.61 L6.84 369 L7.42 369 L7.42
						 366.36 C7.63 366.42 7.83 366.52 8.05 366.58 L8.31 366.03 C7.16 365.72 6.28 365.28 5.69 364.75 L8.13 364.75
						 L8.13 364.17 L6.89 364.17 C6.74 363.89 6.58 363.62 6.39 363.37 L5.84 363.56 C5.99 363.73 6.13 363.94 6.25
						 364.17 L3.92 364.17 C4.05 363.95 4.17 363.73 4.25 363.5 L3.64 363.44 C3.53 363.69 3.39 363.94 3.22 364.17
						 L0.19 364.17 ZM1.61 368.06 L1.61 366.7 L3.14 366.7 L3.14 368.06 L1.61 368.06 ZM5.17 368.06 L5.17 366.7 L6.84
						 366.7 L6.84 368.06 L5.17 368.06 Z" class="st4"/>
		</g>
		<g id="shape163-221" v:mID="163" v:groupContext="shape" transform="translate(222.199,-57.6007)">
			<title>工作表.163</title>
			<path d="M0 342.8 L62.2 342.8 L62.2 369 L0 369 L0 342.8 Z" class="st3"/>
		</g>
		<g id="shape164-223" v:mID="164" v:groupContext="shape" transform="translate(235.629,-66.2783)">
			<title>工作表.164</title>
			<path d="M2.09 360.67 C1.66 362.06 0.95 363.3 0 364.37 L0.2 365.08 C0.54 364.7 0.87 364.31 1.17 363.92 L1.17 369 L1.83
						 369 L1.83 362.94 C2.17 362.31 2.47 361.66 2.7 360.95 L2.09 360.67 ZM2.65 362.17 L2.65 362.8 L8.06 362.8
						 L8.06 362.17 L5.72 362.17 C5.59 361.64 5.45 361.16 5.31 360.75 L4.62 360.86 C4.8 361.25 4.95 361.7 5.08
						 362.17 L2.65 362.17 ZM2.5 367.92 L2.5 368.56 L8.3 368.56 L8.3 367.92 L6.26 367.92 C6.7 366.64 7.09 365.19
						 7.41 363.55 L6.8 363.37 C6.45 365.2 6.05 366.7 5.59 367.92 L2.5 367.92 ZM3.76 363.48 L3.16 363.66 C3.54
						 364.94 3.86 366.27 4.09 367.63 L4.7 367.47 C4.42 365.97 4.11 364.64 3.76 363.48 Z" class="st4"/>
		</g>
		<g id="shape165-225" v:mID="165" v:groupContext="shape" transform="translate(244.784,-66.5127)">
			<title>工作表.165</title>
			<path d="M0.16 363.5 L0.16 364 L3.58 364 C3.55 364.17 3.52 364.34 3.48 364.51 L1.3 364.51 L1.3 368.48 L0 368.48 L0 369
						 L8.05 369 L8.05 368.48 L6.75 368.48 L6.75 364.51 L4.12 364.51 C4.17 364.36 4.2 364.19 4.23 364 L7.89 364
						 L7.89 363.5 L4.3 363.5 L4.36 362.99 L7.28 362.99 L7.28 361.3 L0.75 361.3 L0.75 362.99 L3.7 362.99 L3.66
						 363.5 L0.16 363.5 ZM1.92 368.48 L1.92 367.89 L6.11 367.89 L6.11 368.48 L1.92 368.48 ZM1.92 367.49 L1.92
						 366.92 L6.11 366.92 L6.11 367.49 L1.92 367.49 ZM1.92 366.5 L1.92 365.94 L6.11 365.94 L6.11 366.5 L1.92 366.5
						 ZM1.92 365.53 L1.92 364.97 L6.11 364.97 L6.11 365.53 L1.92 365.53 ZM6.66 362.53 L5.33 362.53 L5.33 361.78
						 L6.66 361.78 L6.66 362.53 ZM4.73 362.53 L3.3 362.53 L3.3 361.78 L4.73 361.78 L4.73 362.53 ZM2.72 362.53
						 L1.37 362.53 L1.37 361.78 L2.72 361.78 L2.72 362.53 Z" class="st4"/>
		</g>
		<g id="shape166-227" v:mID="166" v:groupContext="shape" transform="translate(253.676,-66.293)">
			<title>工作表.166</title>
			<path d="M2.34 367.08 C1.7 367.41 0.95 367.66 0.11 367.84 L0.19 368.48 C1 368.28 1.72 368.02 2.34 367.69 L2.34 367.08
						 ZM1.42 360.72 C1.09 361.76 0.7 362.69 0.25 363.5 C0.19 363.61 0.09 363.69 0 363.73 L0.16 364.31 C0.64 364.23
						 1.11 364.15 1.59 364.06 C1.13 364.89 0.73 365.47 0.42 365.81 C0.34 365.89 0.23 365.95 0.12 366 L0.3 366.58
						 C1.03 366.47 1.8 366.28 2.61 366.01 L2.61 365.44 C2.09 365.62 1.58 365.77 1.06 365.87 C1.55 365.26 2.17
						 364.23 2.92 362.78 L2.36 362.56 C2.2 362.89 2.03 363.2 1.89 363.48 C1.51 363.56 1.13 363.62 0.73 363.69
						 C1.17 363.01 1.61 362.09 2.03 360.95 L1.42 360.72 ZM7.31 368.97 C7.72 368.97 7.92 368.75 7.92 368.34 L7.92
						 364.72 L3.81 364.72 L3.81 369 L4.34 369 L4.34 367 L5.04 367 L5.04 368.84 L5.53 368.84 L5.53 367 L6.19 367
						 L6.19 368.84 L6.66 368.84 L6.66 367 L7.39 367 L7.39 368.2 C7.39 368.39 7.29 368.48 7.14 368.48 L6.78 368.47
						 L6.92 368.97 L7.31 368.97 ZM4.34 366.45 L4.34 365.28 L5.04 365.28 L5.04 366.45 L4.34 366.45 ZM5.53 365.28
						 L6.19 365.28 L6.19 366.45 L5.53 366.45 L5.53 365.28 ZM6.66 365.28 L7.39 365.28 L7.39 366.45 L6.66 366.45
						 L6.66 365.28 ZM7.29 362.22 L7.29 363.37 L3.78 363.37 L3.78 362.22 L7.29 362.22 ZM3.78 363.94 L7.89 363.94
						 L7.89 361.66 L5.86 361.66 C5.75 361.29 5.64 360.97 5.51 360.7 L4.84 360.8 C4.98 361.06 5.11 361.34 5.23
						 361.66 L3.19 361.66 L3.19 363.84 C3.17 365.77 2.81 367.34 2.09 368.58 L2.56 368.98 C3.34 367.58 3.75 365.89
						 3.78 363.94 Z" class="st4"/>
		</g>
		<g id="shape167-229" v:mID="167" v:groupContext="shape" transform="translate(262.611,-66.3574)">
			<title>工作表.167</title>
			<path d="M3.09 363.97 L1.44 363.97 C1.67 363.33 1.85 362.66 1.97 361.94 L3.33 361.94 L3.33 361.31 L0.25 361.31 L0.25
						 361.94 L1.36 361.94 C1.14 363.28 0.69 364.47 0 365.52 L0.33 366.05 C0.55 365.74 0.74 365.42 0.92 365.09
						 L0.92 368.77 L1.53 368.77 L1.53 368.08 L2.5 368.08 L2.5 368.6 L3.09 368.6 L3.09 363.97 ZM1.53 367.49 L1.53
						 364.56 L2.5 364.56 L2.5 367.49 L1.53 367.49 ZM4.3 362.42 L3.81 365.34 L7.45 365.34 C7.45 366.78 7.38 367.66
						 7.24 367.95 C7.11 368.25 6.69 368.41 6 368.41 C5.83 368.41 5.56 368.38 5.16 368.34 L5.34 368.97 C5.62 369
						 5.89 369 6.16 369 C6.94 369 7.45 368.83 7.71 368.5 C7.94 368.17 8.06 366.92 8.06 364.73 L7.11 364.73 L7.61
						 361.19 L3.74 361.19 L3.74 361.8 L6.91 361.8 L6.45 364.73 L4.55 364.73 L4.94 362.47 L4.3 362.42 ZM3.55 366.49
						 L3.55 367.1 L6.83 367.1 L6.83 366.49 L3.55 366.49 Z" class="st4"/>
		</g>
		<g id="shape168-231" v:mID="168" v:groupContext="shape" transform="translate(193.181,-61.9191)">
			<title>工作表.168</title>
			<path d="M14.44 354.56 C17.56 357.69 17.56 362.75 14.44 365.88 C11.31 369 6.25 369 3.12 365.88 C0 362.75 0 357.69 3.12
						 354.56 C6.25 351.44 11.31 351.44 14.44 354.56 Z" class="st3"/>
		</g>
		<g id="shape169-233" v:mID="169" v:groupContext="shape" transform="translate(199.315,-67.8252)">
			<title>工作表.169</title>
			<path d="M5.28 366.64 L5.28 366.05 L2.94 366.05 L2.94 363.7 L2.34 363.7 L2.34 366.05 L0 366.05 L0 366.64 L2.34 366.64
						 L2.34 369 L2.94 369 L2.94 366.64 L5.28 366.64 Z" class="st4"/>
		</g>
		<g id="shape170-235" v:mID="170" v:groupContext="shape" transform="translate(215.859,-70.6993)">
			<title>工作表.170</title>
			<path d="M6.34 369 L0 369 L6.34 369 Z" class="st5"/>
			<path d="M6.34 369 L0 369" class="st6"/>
		</g>
		<g id="shape171-238" v:mID="171" v:groupContext="shape" transform="translate(211.86,-69.1993)">
			<title>工作表.171</title>
			<path d="M0 367.5 L4 367.5 L0 367.5 ZM4 369 L0 367.5 L4 366 L4 369 Z" class="st5"/>
			<path d="M0 367.5 L4 367.5M4 369 L0 367.5 L4 366" class="st7"/>
		</g>
		<g id="shape339-241" v:mID="339" v:groupContext="shape" transform="translate(144,-179.539)">
			<title>工作表.339</title>
			<path d="M0 369 L31.54 369 C37.35 369 42.05 367.21 42.05 365 L42.05 363.91 L0 369 Z" class="st5"/>
			<path d="M0 369 L31.54 369 C37.35 369 42.05 367.21 42.05 365 L42.05 363.91" class="st6"/>
		</g>
	</g>
</svg>
