<?xml version="1.0" encoding="UTF-8" standalone="no"?>
<!DOCTYPE svg PUBLIC "-//W3C//DTD SVG 1.1//EN" "http://www.w3.org/Graphics/SVG/1.1/DTD/svg11.dtd">
<!-- 由 Microsoft Visio, SVG Export 生成 EncoderChinese.svg 页-1 -->
<svg xmlns="http://www.w3.org/2000/svg" xmlns:xlink="http://www.w3.org/1999/xlink" xmlns:ev="http://www.w3.org/2001/xml-events"
		xmlns:v="http://schemas.microsoft.com/visio/2003/SVGExtensions/" width="1.7669in" height="3.57751in"
		viewBox="0 0 127.217 257.581" xml:space="preserve" color-interpolation-filters="sRGB" class="st9">
	<v:documentProperties v:langID="2052" v:metric="true" v:viewMarkup="false"/>

	<style type="text/css">
	<![CDATA[
		.st1 {fill:none;stroke:#000000;stroke-dasharray:3,3;stroke-linecap:round;stroke-linejoin:round;stroke-width:1}
		.st2 {fill:#66bfff;stroke:none;stroke-linecap:butt;stroke-width:0.75}
		.st3 {fill:none;stroke:#000000;stroke-linecap:round;stroke-linejoin:round;stroke-width:1}
		.st4 {fill:#000000;stroke:none;stroke-linecap:butt;stroke-width:0.75}
		.st5 {fill:#b2d9ff;stroke:none;stroke-linecap:butt;stroke-width:0.75}
		.st6 {fill:none}
		.st7 {stroke:#000000;stroke-linecap:round;stroke-linejoin:round;stroke-width:1}
		.st8 {stroke:#000000;stroke-linecap:butt;stroke-width:1}
		.st9 {fill:none;fill-rule:evenodd;font-size:12px;overflow:visible;stroke-linecap:square;stroke-miterlimit:3}
	]]>
	</style>

	<g v:mID="0" v:index="1" v:groupContext="foregroundPage">
		<title>页-1</title>
		<v:pageProperties v:drawingScale="1" v:pageScale="1" v:drawingUnits="19" v:shadowOffsetX="9" v:shadowOffsetY="-9"/>
		<g id="shape3-1" v:mID="3" v:groupContext="shape" transform="translate(30.0986,-84.4396)">
			<title>工作表.3</title>
			<path d="M8 112.78 L88.62 112.78 C93.04 112.78 96.62 116.36 96.62 120.78 L96.62 249.58 C96.62 254 93.04 257.58 88.62
						 257.58 L8 257.58 C3.58 257.58 0 254 0 249.58 L0 120.78 C0 116.36 3.58 112.78 8 112.78 Z" class="st1"/>
		</g>
		<g id="shape4-3" v:mID="4" v:groupContext="shape" transform="translate(51.0987,-103.242)">
			<title>工作表.4</title>
			<path d="M0 257.58 L62.2 257.58 L62.2 231.38 L0 231.38 L0 257.58 Z" class="st2"/>
		</g>
		<g id="shape5-5" v:mID="5" v:groupContext="shape" transform="translate(51.0986,-103.242)">
			<title>工作表.5</title>
			<path d="M0 231.38 L62.2 231.38 L62.2 257.58 L0 257.58 L0 231.38 Z" class="st3"/>
		</g>
		<g id="shape6-7" v:mID="6" v:groupContext="shape" transform="translate(60.5587,-112.09)">
			<title>工作表.6</title>
			<path d="M3.61 249.45 C2.81 250.32 1.61 250.89 0.01 251.19 L0.39 251.78 C1.36 251.58 2.19 251.25 2.89 250.85 L5.52 250.85
						 C5.02 251.58 4.28 252.14 3.34 252.53 C3.06 252.17 2.75 251.84 2.42 251.53 L1.86 251.82 C2.17 252.08 2.47
						 252.41 2.73 252.74 C2.09 252.94 1.37 253.05 0.56 253.11 L0.84 253.69 C3.47 253.49 5.28 252.52 6.25 250.78
						 L6.25 250.27 L3.67 250.27 C3.84 250.11 4.02 249.94 4.19 249.75 L3.61 249.45 ZM3.27 255.08 L2.69 255.35 C3.01
						 255.67 3.33 256.03 3.64 256.44 C2.62 256.78 1.41 256.95 0 256.97 L0.27 257.58 C3.75 257.5 6.14 256.41 7.41
						 254.28 L7.41 253.77 L4.95 253.77 C5.2 253.58 5.42 253.38 5.64 253.16 L5.08 252.85 C4.14 253.85 2.7 254.44
						 0.74 254.64 L1.12 255.22 C2.2 255.03 3.14 254.74 3.94 254.36 L6.61 254.36 C6.03 255.16 5.25 255.78 4.25
						 256.2 C3.94 255.8 3.61 255.42 3.27 255.08 Z" class="st4"/>
		</g>
		<g id="shape7-9" v:mID="7" v:groupContext="shape" transform="translate(69.3097,-111.949)">
			<title>工作表.7</title>
			<path d="M0.01 253.56 L0.01 254.19 L3.81 254.19 C3.67 254.55 3.5 254.88 3.28 255.19 C2.67 255.96 1.56 256.56 0 257.03
						 L0.36 257.58 C1.92 257.11 3.05 256.47 3.73 255.64 C3.84 255.52 3.94 255.36 4.03 255.22 C5.41 256.05 6.5
						 256.85 7.31 257.58 L7.78 257.13 C6.83 256.33 5.67 255.53 4.29 254.72 C4.37 254.55 4.45 254.38 4.51 254.19
						 L7.83 254.19 L7.83 253.56 L4.69 253.56 C4.78 253.11 4.84 252.63 4.86 252.08 L4.86 249.36 L4.2 249.36 L4.2
						 252.08 C4.19 252.59 4.13 253.1 4.01 253.56 L0.01 253.56 ZM0.73 251.28 L0.4 251.78 C1.09 252.08 1.76 252.49
						 2.42 252.99 L2.78 252.45 C2.16 251.99 1.48 251.61 0.73 251.28 ZM1.73 249.83 L1.39 250.33 C1.98 250.58 2.56
						 250.92 3.12 251.38 L3.47 250.86 C2.95 250.46 2.36 250.13 1.73 249.83 Z" class="st4"/>
		</g>
		<g id="shape8-11" v:mID="8" v:groupContext="shape" transform="translate(78.1984,-112.014)">
			<title>工作表.8</title>
			<path d="M0.67 249.54 L0.22 249.99 C0.88 250.46 1.41 250.91 1.78 251.33 L2.25 250.86 C1.83 250.43 1.3 249.99 0.67 249.54
						 ZM0.45 251.66 L0 252.1 C0.63 252.58 1.13 253.03 1.49 253.46 L1.94 252.99 C1.55 252.54 1.05 252.1 0.45 251.66
						 ZM1.59 254.14 C1.19 255.22 0.7 256.27 0.17 257.3 L0.81 257.58 C1.31 256.58 1.77 255.52 2.16 254.38 L1.59
						 254.14 ZM2.6 250.92 L2.6 251.57 L4.94 251.57 L4.94 253.72 L2.84 253.72 L2.84 254.35 L4.94 254.35 L4.94 256.71
						 L2.38 256.71 L2.38 257.35 L8.09 257.35 L8.09 256.71 L5.6 256.71 L5.6 254.35 L7.67 254.35 L7.67 253.72 L5.6
						 253.72 L5.6 251.57 L7.92 251.57 L7.92 250.92 L5.24 250.92 L5.61 250.78 C5.47 250.35 5.27 249.88 5.02 249.36
						 L4.41 249.52 C4.64 249.97 4.85 250.44 5.02 250.92 L2.6 250.92 Z" class="st4"/>
		</g>
		<g id="shape9-13" v:mID="9" v:groupContext="shape" transform="translate(87.1515,-112.09)">
			<title>工作表.9</title>
			<path d="M2.02 250.58 L2.3 251.3 L0.14 251.3 L0.14 251.86 L7.95 251.86 L7.95 251.3 L5.72 251.3 L6.06 250.58 L7.53 250.58
						 L7.53 250.03 L4.36 250.03 C4.27 249.8 4.17 249.58 4.08 249.39 L3.39 249.5 C3.49 249.66 3.56 249.83 3.66
						 250.03 L0.56 250.03 L0.56 250.58 L2.02 250.58 ZM2.97 251.3 L2.69 250.58 L5.39 250.58 L5.03 251.3 L2.97 251.3
						 ZM1.17 252.39 L1.17 255.06 L6.92 255.06 L6.92 252.39 L1.17 252.39 ZM6.3 254.55 L1.8 254.55 L1.8 253.95 L6.3
						 253.95 L6.3 254.55 ZM1.8 253.49 L1.8 252.91 L6.3 252.91 L6.3 253.49 L1.8 253.49 ZM0.81 255.49 C0.64 256.08
						 0.36 256.63 0 257.11 L0.56 257.47 C0.94 256.94 1.22 256.33 1.44 255.61 L0.81 255.49 ZM5.28 257.58 C5.62
						 257.58 5.86 257.52 6.03 257.41 C6.21 257.27 6.33 256.89 6.39 256.27 L5.78 256.08 C5.75 256.52 5.67 256.8
						 5.56 256.89 C5.5 256.97 5.36 257 5.16 257 L3.27 257 C2.99 257 2.84 256.86 2.84 256.61 L2.84 255.57 L2.17
						 255.57 L2.17 256.75 C2.17 257.31 2.47 257.58 3.08 257.58 L5.28 257.58 ZM4.14 255.22 L3.59 255.57 C3.97 255.96
						 4.27 256.3 4.49 256.63 L5.02 256.25 C4.83 255.96 4.53 255.61 4.14 255.22 ZM6.97 255.39 L6.45 255.72 C6.94
						 256.32 7.31 256.86 7.61 257.35 L8.14 256.97 C7.87 256.52 7.47 256 6.97 255.39 Z" class="st4"/>
		</g>
		<g id="shape10-15" v:mID="10" v:groupContext="shape" transform="translate(96.2775,-111.949)">
			<title>工作表.10</title>
			<path d="M3.17 249.36 L3.17 250.27 C3.17 250.56 3.16 250.88 3.14 251.17 L0.47 251.17 L0.47 251.82 L3.08 251.82 C2.99
						 252.86 2.78 253.77 2.48 254.52 C2.02 255.55 1.19 256.41 0 257.03 L0.36 257.58 C1.56 256.97 2.42 256.11 2.97
						 255.02 C3.36 254.16 3.61 253.1 3.75 251.82 L6.59 251.82 C6.55 253.94 6.44 255.33 6.27 255.99 C6.11 256.61
						 5.78 256.92 5.26 256.92 C4.94 256.92 4.59 256.91 4.23 256.89 L4.41 257.53 L5.59 257.53 C6.06 257.49 6.39
						 257.3 6.61 256.94 C6.83 256.56 6.98 255.89 7.08 254.96 C7.16 253.99 7.22 252.74 7.25 251.17 L3.81 251.17
						 C3.83 250.88 3.83 250.58 3.84 250.27 L3.84 249.36 L3.17 249.36 Z" class="st4"/>
		</g>
		<g id="shape11-17" v:mID="11" v:groupContext="shape" transform="translate(51.0986,-138.639)">
			<title>工作表.11</title>
			<path d="M0 241.58 L62.2 241.58 L62.2 257.58 L0 257.58 L0 241.58 Z" class="st3"/>
		</g>
		<g id="shape12-19" v:mID="12" v:groupContext="shape" transform="translate(61.6046,-143.312)">
			<title>工作表.12</title>
			<path d="M6.98 251.41 L4.38 251.41 L4.38 257.44 L4.92 257.44 L4.92 256.89 L6.44 256.89 L6.44 257.44 L6.98 257.44 L6.98
						 251.41 ZM4.92 256.34 L4.92 251.96 L6.44 251.96 L6.44 256.34 L4.92 256.34 ZM1.44 250.24 L1.44 251.86 L0.16
						 251.86 L0.16 252.41 L1.44 252.41 C1.41 254.61 0.92 256.2 0 257.21 L0.42 257.58 C1.45 256.5 1.97 254.78 2
						 252.41 L3.08 252.41 C3.06 254.56 3.02 255.85 2.97 256.27 C2.91 256.72 2.67 256.95 2.27 256.95 C2.08 256.95
						 1.85 256.94 1.59 256.92 L1.73 257.46 C2.02 257.47 2.22 257.49 2.34 257.49 C3.05 257.49 3.44 257.14 3.52
						 256.49 C3.59 255.89 3.64 254.35 3.64 251.86 L2 251.86 L2 250.24 L1.44 250.24 Z" class="st4"/>
		</g>
		<g id="shape13-21" v:mID="13" v:groupContext="shape" transform="translate(71.8761,-144)">
			<title>工作表.13</title>
			<path d="M3.45 256.77 C3.22 257.02 2.97 257.21 2.7 257.35 C2.43 257.47 2.13 257.53 1.81 257.53 C1.22 257.53 0.76 257.34
						 0.42 256.94 C0.14 256.62 0 256.26 0 255.86 C0 255.51 0.11 255.19 0.34 254.91 C0.57 254.62 0.91 254.36 1.36
						 254.14 C1.11 253.85 0.94 253.61 0.84 253.42 C0.76 253.24 0.72 253.06 0.72 252.89 C0.72 252.55 0.85 252.25
						 1.13 252 C1.39 251.75 1.73 251.61 2.14 251.61 C2.53 251.61 2.85 251.73 3.09 251.97 C3.34 252.21 3.47 252.5
						 3.47 252.83 C3.47 253.39 3.11 253.85 2.39 254.24 L3.42 255.53 C3.53 255.31 3.62 255.04 3.69 254.74 L4.42
						 254.89 C4.29 255.39 4.13 255.81 3.92 256.13 C4.18 256.48 4.48 256.78 4.81 257.02 L4.34 257.58 C4.05 257.39
						 3.75 257.12 3.45 256.77 ZM2.03 253.78 C2.33 253.6 2.52 253.44 2.61 253.3 C2.7 253.17 2.75 253.02 2.75 252.86
						 C2.75 252.67 2.69 252.5 2.56 252.38 C2.44 252.25 2.3 252.19 2.11 252.19 C1.92 252.19 1.76 252.25 1.62 252.38
						 C1.5 252.5 1.44 252.66 1.44 252.83 C1.44 252.92 1.46 253.01 1.5 253.11 C1.55 253.21 1.62 253.31 1.72 253.41
						 L2.03 253.78 ZM3.01 256.21 L1.73 254.61 C1.35 254.84 1.08 255.06 0.95 255.25 C0.83 255.44 0.76 255.63 0.76
						 255.81 C0.76 256.05 0.85 256.28 1.03 256.54 C1.22 256.78 1.48 256.91 1.83 256.91 C2.03 256.91 2.25 256.85
						 2.47 256.72 C2.7 256.59 2.88 256.42 3.01 256.21 Z" class="st4"/>
		</g>
		<g id="shape14-23" v:mID="14" v:groupContext="shape" transform="translate(79.4493,-143.312)">
			<title>工作表.14</title>
			<path d="M0.2 251.38 L0.2 251.92 L1.36 251.92 L1.36 253.25 L0.09 253.25 L0.09 253.81 L1.33 253.81 C1.2 255.31 0.76 256.46
						 0 257.21 L0.42 257.58 C1.08 256.94 1.51 256.06 1.75 254.94 C2.06 255.28 2.44 255.75 2.89 256.36 L3.2 255.86
						 C2.75 255.31 2.28 254.83 1.83 254.41 C1.86 254.22 1.87 254.02 1.89 253.81 L3.11 253.81 L3.11 253.25 L1.92
						 253.25 L1.92 251.92 L3 251.92 L3 251.38 L1.92 251.38 L1.92 250.28 L1.36 250.28 L1.36 251.38 L0.2 251.38
						 ZM6.7 250.55 L3.47 250.55 L3.47 254.94 L4.02 254.94 L4.02 251.09 L6.16 251.09 L6.16 254.94 L6.7 254.94 L6.7
						 250.55 ZM6.48 257.46 C6.75 257.46 6.92 257.38 7.06 257.27 C7.19 257.13 7.28 256.72 7.33 256.06 L6.83 255.91
						 C6.8 256.39 6.75 256.71 6.69 256.81 C6.62 256.89 6.53 256.92 6.39 256.92 L5.99 256.92 C5.81 256.92 5.73
						 256.85 5.73 256.66 L5.73 254.99 L5.2 254.99 L5.2 256.78 C5.2 257.22 5.41 257.46 5.83 257.46 L6.48 257.46
						 ZM4.83 251.75 L4.83 253.17 C4.8 254.17 4.63 255 4.3 255.63 C3.94 256.24 3.33 256.72 2.45 257.09 L2.75 257.58
						 C3.66 257.21 4.3 256.67 4.7 256.02 C5.11 255.31 5.33 254.36 5.34 253.17 L5.34 251.75 L4.83 251.75 Z"
					class="st4"/>
		</g>
		<g id="shape15-25" v:mID="15" v:groupContext="shape" transform="translate(87.5734,-143.282)">
			<title>工作表.15</title>
			<path d="M0 250.9 L0 251.44 L1.89 251.44 L1.89 252.19 L2.47 252.19 L2.47 251.44 L4.56 251.44 L4.56 252.19 L5.14 252.19
						 L5.14 251.44 L7.03 251.44 L7.03 250.9 L5.14 250.9 L5.14 250.17 L4.56 250.17 L4.56 250.9 L2.47 250.9 L2.47
						 250.17 L1.89 250.17 L1.89 250.9 L0 250.9 ZM1.03 252.11 L0.64 252.49 C1.17 252.86 1.61 253.22 1.91 253.57
						 L2.3 253.17 C1.97 252.82 1.55 252.47 1.03 252.11 ZM0.53 253.47 L0.14 253.85 C0.67 254.22 1.1 254.57 1.41
						 254.91 L1.8 254.52 C1.45 254.16 1.03 253.82 0.53 253.47 ZM1.47 255.21 C1.16 255.89 0.75 256.6 0.23 257.3
						 L0.77 257.58 C1.27 256.9 1.66 256.17 1.95 255.44 L1.47 255.21 ZM5.78 252.99 L5.78 254.49 C5.78 254.67 5.67
						 254.79 5.46 254.79 C5.17 254.79 4.86 254.77 4.52 254.74 L4.66 255.28 C4.99 255.3 5.31 255.3 5.67 255.3 C6.11
						 255.28 6.35 255.08 6.35 254.66 L6.35 252.47 L2.89 252.47 L2.89 256.63 C2.89 257.13 3.14 257.38 3.66 257.38
						 L5.8 257.38 C6.22 257.38 6.5 257.3 6.66 257.16 C6.81 256.99 6.92 256.52 6.98 255.75 L6.44 255.57 C6.39 256.08
						 6.33 256.43 6.25 256.6 C6.17 256.75 5.97 256.83 5.66 256.83 L3.89 256.83 C3.61 256.83 3.47 256.69 3.47 256.44
						 L3.47 252.99 L5.78 252.99 Z" class="st4"/>
		</g>
		<g id="shape16-27" v:mID="16" v:groupContext="shape" transform="translate(95.3868,-143.329)">
			<title>工作表.16</title>
			<path d="M2.48 250.17 C1.97 251.44 1.14 252.57 0 253.54 L0.19 254.14 C0.61 253.78 1 253.41 1.36 253.02 L1.36 257.58 L1.94
						 257.58 L1.94 252.32 C2.38 251.72 2.73 251.1 3.01 250.43 L2.48 250.17 ZM6.17 257.44 C6.55 257.44 6.81 257.35
						 6.95 257.16 C7.09 256.96 7.19 256.39 7.25 255.49 L6.72 255.3 C6.67 256.1 6.62 256.57 6.53 256.69 C6.44 256.82
						 6.28 256.9 6.08 256.9 L4.78 256.9 C4.5 256.9 4.37 256.75 4.37 256.52 L4.37 253.82 C5.36 253.19 6.23 252.47
						 6.98 251.67 L6.58 251.22 C5.95 251.93 5.22 252.57 4.37 253.13 L4.37 250.27 L3.8 250.27 L3.8 253.49 C3.39
						 253.72 2.95 253.94 2.52 254.14 L2.77 254.69 C3.13 254.52 3.47 254.35 3.8 254.16 L3.8 256.6 C3.8 257.16 4.08
						 257.44 4.64 257.44 L6.17 257.44 Z" class="st4"/>
		</g>
		<g id="shape17-29" v:mID="17" v:groupContext="shape" transform="translate(51.0986,-27.838)">
			<title>工作表.17</title>
			<path d="M0 241.58 L62.2 241.58 L62.2 257.58 L0 257.58 L0 241.58 Z" class="st3"/>
		</g>
		<g id="shape18-31" v:mID="18" v:groupContext="shape" transform="translate(69.2921,-31.4355)">
			<title>工作表.18</title>
			<path d="M0 252.57 L0 253.15 L0.69 253.15 L0.69 257.49 L1.31 257.49 L1.31 257 L3.33 257 L3.33 253.15 L4 253.15 L4 252.57
						 L3.33 252.57 L3.33 251.67 L2.7 251.67 L2.7 252.57 L1.31 252.57 L1.31 251.66 L0.69 251.66 L0.69 252.57 L0
						 252.57 ZM1.31 256.41 L1.31 255.04 L2.7 255.04 L2.7 256.41 L1.31 256.41 ZM2.7 254.46 L1.31 254.46 L1.31 253.15
						 L2.7 253.15 L2.7 254.46 ZM3.59 249.36 L3.59 250.63 L1.25 250.63 L1.25 249.66 L0.59 249.66 L0.59 251.21 L7.19
						 251.21 L7.19 249.64 L6.53 249.64 L6.53 250.63 L4.25 250.63 L4.25 249.36 L3.59 249.36 ZM4.8 251.46 C4.66
						 252.64 4.31 253.58 3.8 254.24 L4.3 254.58 C4.63 254.18 4.89 253.64 5.08 253 L6.98 253 C6.88 253.5 6.72 253.96
						 6.55 254.36 L7.11 254.52 C7.31 253.97 7.49 253.39 7.63 252.82 L7.63 252.42 L5.24 252.42 C5.3 252.16 5.36
						 251.86 5.41 251.55 L4.8 251.46 ZM5.46 253.46 C5.46 254.29 5.36 254.97 5.17 255.5 C4.92 256.13 4.41 256.66
						 3.63 257.08 L4.02 257.58 C4.92 257.07 5.52 256.43 5.77 255.64 L5.78 255.58 C6.21 256.38 6.84 257.05 7.67
						 257.58 L8.08 257.1 C7.08 256.52 6.37 255.74 5.95 254.75 C6.02 254.35 6.05 253.92 6.05 253.46 L5.46 253.46
						 Z" class="st4"/>
		</g>
		<g id="shape19-33" v:mID="19" v:groupContext="shape" transform="translate(78.0431,-31.5586)">
			<title>工作表.19</title>
			<path d="M3.76 251.53 C3.19 253.92 1.94 255.77 0 257.02 L0.39 257.58 C2.28 256.34 3.53 254.58 4.12 252.28 C4.17 252.39
						 4.2 252.52 4.27 252.67 C5.19 255.05 6.37 256.69 7.84 257.56 L8.25 257.05 C6.81 256.16 5.69 254.63 4.84 252.49
						 C4.3 251.02 3.61 250 2.81 249.44 L2.28 249.78 C2.84 250.2 3.34 250.78 3.76 251.53 Z" class="st4"/>
		</g>
		<g id="shape20-35" v:mID="20" v:groupContext="shape" transform="translate(87.1222,-31.4648)">
			<title>工作表.20</title>
			<path d="M2.5 252.8 L2.5 253.38 L7.37 253.38 L7.37 252.8 L2.5 252.8 ZM1.86 254.27 L1.86 254.86 L3.83 254.86 C3.2 255.88
						 2.67 256.5 2.28 256.74 C2.23 256.75 2.2 256.78 2.14 256.8 L2.28 257.35 C3.98 257.24 5.55 257.08 6.97 256.89
						 C7.15 257.11 7.31 257.35 7.47 257.58 L7.98 257.22 C7.59 256.64 7.01 255.96 6.28 255.17 L5.79 255.47 C6.06
						 255.78 6.33 256.08 6.58 256.38 C5.42 256.55 4.25 256.67 3.06 256.75 C3.48 256.38 3.97 255.74 4.51 254.86
						 L7.97 254.86 L7.97 254.27 L1.86 254.27 ZM6.87 250.32 L6.87 251.36 L1.58 251.36 L1.58 250.32 L6.87 250.32
						 ZM1.58 251.94 L7.5 251.94 L7.5 249.71 L0.95 249.71 L0.95 252.69 C0.94 254.5 0.62 255.97 0 257.11 L0.47 257.55
						 C1.2 256.19 1.58 254.56 1.58 252.69 L1.58 251.94 Z" class="st4"/>
		</g>
		<g id="shape21-37" v:mID="21" v:groupContext="shape" transform="translate(51.0987,-169.84)">
			<title>工作表.21</title>
			<path d="M0 257.58 L62.2 257.58 L62.2 231.38 L0 231.38 L0 257.58 Z" class="st5"/>
		</g>
		<g id="shape22-39" v:mID="22" v:groupContext="shape" transform="translate(51.0986,-169.84)">
			<title>工作表.22</title>
			<path d="M0 231.38 L62.2 231.38 L62.2 257.58 L0 257.58 L0 231.38 Z" class="st3"/>
		</g>
		<g id="shape23-41" v:mID="23" v:groupContext="shape" transform="translate(58.6368,-179.628)">
			<title>工作表.23</title>
			<path d="M4.75 253.75 C4.05 254.41 3.17 254.93 2.16 255.28 L2.48 255.74 C3.36 255.41 4.12 254.94 4.81 254.32 C4.83 254.47
						 4.83 254.65 4.83 254.83 C4.81 255.33 4.75 255.63 4.64 255.72 C4.53 255.8 4.36 255.83 4.09 255.83 L3.47 255.83
						 L3.64 256.35 L4.02 256.35 C4.53 256.35 4.89 256.27 5.09 256.13 C5.26 255.97 5.36 255.55 5.38 254.83 C5.36
						 254.57 5.34 254.32 5.33 254.1 C5.77 254.46 6.3 254.94 6.92 255.57 L7.22 255.11 C6.55 254.49 5.89 253.94
						 5.25 253.46 C5.24 253.41 5.22 253.38 5.2 253.33 C5.86 252.99 6.42 252.55 6.88 252.04 L6.52 251.63 C6.13
						 252.11 5.64 252.52 5.06 252.85 C4.92 252.5 4.7 252.16 4.39 251.83 C4.7 251.6 4.97 251.35 5.17 251.1 L7.02
						 251.1 L7.02 250.57 L2.31 250.57 L2.31 251.1 L4.59 251.1 C4.05 251.63 3.19 252.05 2.03 252.4 L2.33 252.86
						 C2.94 252.64 3.47 252.4 3.94 252.13 C4.08 252.28 4.22 252.46 4.33 252.63 C3.81 253.08 3.09 253.47 2.17 253.78
						 L2.44 254.22 C3.31 253.92 4.02 253.54 4.55 253.05 C4.55 253.05 4.56 253.07 4.58 253.08 C4.66 253.29 4.7
						 253.5 4.75 253.75 ZM0.58 250.36 L0.17 250.74 C0.76 251.19 1.22 251.61 1.55 252 L1.97 251.61 C1.59 251.19
						 1.12 250.78 0.58 250.36 ZM5.25 257.43 L7.06 257.43 L7.2 256.85 C7 256.86 6.7 256.88 6.31 256.88 C5.92 256.9
						 5.53 256.9 5.17 256.9 C4.53 256.9 4.02 256.9 3.59 256.88 C3.11 256.86 2.75 256.8 2.48 256.69 C2.26 256.58
						 2.06 256.41 1.86 256.19 C1.8 256.11 1.73 256.05 1.67 256 L1.67 253 L0 253 L0 253.54 L1.12 253.54 L1.12 255.97
						 C0.8 256.11 0.42 256.52 0 257.19 L0.44 257.58 C0.88 256.85 1.19 256.49 1.39 256.49 C1.49 256.49 1.59 256.55
						 1.7 256.68 C1.95 256.97 2.24 257.18 2.55 257.27 C2.87 257.35 3.3 257.39 3.81 257.41 C4.33 257.41 4.81 257.43
						 5.25 257.43 Z" class="st4"/>
		</g>
		<g id="shape24-43" v:mID="24" v:groupContext="shape" transform="translate(66.4796,-179.628)">
			<title>工作表.24</title>
			<path d="M1.87 250.19 C1.49 251.43 0.86 252.52 0 253.49 L0.19 254.1 C0.5 253.77 0.8 253.43 1.06 253.07 L1.06 257.58 L1.63
						 257.58 L1.63 252.19 C1.94 251.65 2.2 251.05 2.41 250.44 L1.87 250.19 ZM2.36 251.52 L2.36 252.07 L7.19 252.07
						 L7.19 251.52 L5.09 251.52 C4.99 251.04 4.86 250.61 4.73 250.25 L4.12 250.35 C4.27 250.71 4.41 251.1 4.52
						 251.52 L2.36 251.52 ZM2.24 256.63 L2.24 257.19 L7.39 257.19 L7.39 256.63 L5.58 256.63 C5.97 255.5 6.31 254.21
						 6.59 252.74 L6.05 252.6 C5.75 254.21 5.39 255.55 4.99 256.63 L2.24 256.63 ZM3.35 252.68 L2.83 252.85 C3.16
						 253.97 3.44 255.16 3.66 256.36 L4.19 256.22 C3.94 254.89 3.66 253.71 3.35 252.68 Z" class="st4"/>
		</g>
		<g id="shape25-45" v:mID="25" v:groupContext="shape" transform="translate(74.6212,-179.628)">
			<title>工作表.25</title>
			<path d="M4.98 250.17 C4.8 250.55 4.59 250.9 4.36 251.24 L2.8 251.24 C2.63 250.86 2.45 250.52 2.28 250.22 L1.67 250.33
						 C1.86 250.6 2.03 250.9 2.19 251.24 L0 251.24 L0 251.8 L7.16 251.8 L7.16 251.24 L5 251.24 C5.19 250.97 5.38
						 250.69 5.53 250.36 L4.98 250.17 ZM2.77 257.52 C3.22 257.52 3.45 257.25 3.45 256.71 L3.45 252.44 L0.55 252.44
						 L0.55 257.58 L1.11 257.58 L1.11 255.83 L2.89 255.83 L2.89 256.58 C2.89 256.85 2.8 256.97 2.59 256.97 L1.98
						 256.96 L2.14 257.52 L2.77 257.52 ZM1.11 255.32 L1.11 254.41 L2.89 254.41 L2.89 255.32 L1.11 255.32 ZM1.11
						 253.9 L1.11 252.97 L2.89 252.97 L2.89 253.9 L1.11 253.9 ZM5.87 257.5 C6.36 257.5 6.59 257.25 6.59 256.75
						 L6.59 252.22 L6.01 252.22 L6.01 256.61 C6.01 256.86 5.91 256.99 5.69 256.99 C5.36 256.99 5.03 256.97 4.7
						 256.94 L4.81 257.5 L5.87 257.5 ZM4.36 252.82 L4.36 256.27 L4.91 256.27 L4.91 252.82 L4.36 252.82 Z"
					class="st4"/>
		</g>
		<g id="shape26-47" v:mID="26" v:groupContext="shape" transform="translate(82.4816,-179.596)">
			<title>工作表.26</title>
			<path d="M3.28 250.64 L3.28 252.21 L4.78 252.21 L4.78 252.71 L2.84 252.71 L2.84 253.21 L7.28 253.21 L7.28 252.71 L5.34
						 252.71 L5.34 252.21 L6.86 252.21 L6.86 250.64 L5.34 250.64 L5.34 250.19 L4.78 250.19 L4.78 250.64 L3.28
						 250.64 ZM6.34 251.75 L5.34 251.75 L5.34 251.11 L6.34 251.11 L6.34 251.75 ZM4.78 251.75 L3.8 251.75 L3.8
						 251.11 L4.78 251.11 L4.78 251.75 ZM6.76 253.74 L3.3 253.74 L3.3 256.11 L3.84 256.11 L3.84 254.22 L6.22 254.22
						 L6.22 256.11 L6.76 256.11 L6.76 253.74 ZM5.63 256.14 L5.33 256.56 C5.91 256.8 6.48 257.13 7.03 257.55 L7.34
						 257.07 C6.83 256.69 6.25 256.39 5.63 256.14 ZM4.72 254.53 L4.72 255.32 C4.7 255.77 4.55 256.14 4.27 256.44
						 C3.95 256.71 3.42 256.92 2.64 257.1 L2.95 257.58 C3.76 257.38 4.34 257.11 4.69 256.78 C5.06 256.41 5.25
						 255.93 5.28 255.32 L5.28 254.53 L4.72 254.53 ZM1.22 252.1 L2.23 252.1 C2.09 252.39 1.92 252.66 1.75 252.91
						 L2.17 253.24 C2.42 252.89 2.64 252.49 2.84 252 L2.84 251.57 L1.37 251.57 C1.47 251.19 1.56 250.78 1.62 250.35
						 L1.08 250.25 C0.87 251.53 0.53 252.55 0 253.3 L0.36 253.75 C0.7 253.3 0.98 252.75 1.22 252.1 ZM1.17 253.14
						 L1.17 256.55 C1.17 256.69 1.11 256.8 0.98 256.88 L1.22 257.36 C1.84 257.11 2.37 256.8 2.84 256.41 L2.75
						 255.88 C2.41 256.19 2.06 256.44 1.73 256.61 L1.73 253.14 L1.17 253.14 Z" class="st4"/>
		</g>
		<g id="shape27-49" v:mID="27" v:groupContext="shape" transform="translate(91.0128,-179.657)">
			<title>工作表.27</title>
			<path d="M2.95 255.78 L3.34 255.39 C3.01 254.91 2.7 254.44 2.39 254.03 C2.61 253.34 2.77 252.59 2.91 251.77 L2.37 251.67
						 C2.28 252.31 2.14 252.92 2 253.49 C1.66 253.03 1.34 252.66 1.05 252.35 L0.69 252.69 C1.05 253.11 1.42 253.58
						 1.81 254.09 C1.55 254.91 1.2 255.61 0.78 256.2 L1.14 256.64 C1.56 256.08 1.9 255.41 2.2 254.63 C2.44 254.99
						 2.7 255.38 2.95 255.78 ZM5.3 256.16 L5.69 255.77 C5.34 255.19 5.02 254.67 4.72 254.21 C4.95 253.49 5.14
						 252.69 5.3 251.8 L4.75 251.7 C4.64 252.39 4.5 253.03 4.33 253.64 C3.98 253.16 3.67 252.75 3.38 252.42 L3.01
						 252.77 C3.39 253.22 3.75 253.72 4.11 254.27 C3.81 255.08 3.44 255.78 3 256.39 L3.36 256.85 C3.8 256.28 4.17
						 255.61 4.48 254.83 C4.75 255.24 5.03 255.67 5.3 256.16 ZM5.67 257.55 C6.14 257.55 6.38 257.3 6.38 256.81
						 L6.38 250.6 L0 250.6 L0 257.58 L0.56 257.58 L0.56 251.14 L5.81 251.14 L5.81 256.69 C5.81 256.91 5.7 257.02
						 5.47 257.02 L4.7 256.99 L4.86 257.55 L5.67 257.55 Z" class="st4"/>
		</g>
		<g id="shape28-51" v:mID="28" v:groupContext="shape" transform="translate(98.6359,-179.689)">
			<title>工作表.28</title>
			<path d="M2.78 256.03 C2 256.33 1.08 256.58 0.03 256.75 L0.11 257.31 C1.11 257.13 2 256.89 2.78 256.58 L2.78 256.03 ZM1.36
						 250.28 C1.03 251.22 0.67 252.05 0.25 252.79 C0.17 252.89 0.09 252.96 0 253 L0.14 253.54 C0.59 253.46 1.02
						 253.39 1.45 253.32 C1.03 254.08 0.67 254.61 0.37 254.94 C0.31 255 0.22 255.05 0.13 255.1 L0.28 255.63 C1.03
						 255.52 1.81 255.32 2.64 255.04 L2.64 254.52 C2.06 254.72 1.5 254.88 0.96 255 C1.39 254.43 1.97 253.46 2.66
						 252.11 L2.16 251.92 C2.02 252.22 1.86 252.52 1.73 252.79 C1.38 252.85 1.03 252.91 0.69 252.96 C1.1 252.35
						 1.49 251.52 1.89 250.49 L1.36 250.28 ZM6.55 254.63 L3.27 254.63 L3.27 257.58 L3.81 257.58 L3.81 257.24 L6
						 257.24 L6 257.58 L6.55 257.58 L6.55 254.63 ZM3.81 256.71 L3.81 255.16 L6 255.16 L6 256.71 L3.81 256.71 ZM4.06
						 250.28 C3.8 251.13 3.33 251.85 2.61 252.42 L2.95 252.88 C3.21 252.66 3.45 252.42 3.67 252.18 C3.88 252.52
						 4.14 252.86 4.44 253.16 C3.89 253.56 3.22 253.89 2.46 254.19 L2.81 254.64 C3.59 254.35 4.28 253.97 4.86
						 253.54 C5.44 254 6.14 254.35 6.98 254.61 L7.31 254.13 C6.52 253.91 5.84 253.6 5.28 253.19 C5.83 252.67 6.27
						 252.1 6.55 251.43 L6.55 251.02 L4.39 251.02 C4.47 250.82 4.55 250.61 4.61 250.38 L4.06 250.28 ZM3.98 251.75
						 C4.03 251.69 4.08 251.61 4.12 251.53 L5.94 251.53 C5.67 252 5.31 252.44 4.85 252.83 C4.5 252.52 4.22 252.16
						 3.98 251.75 Z" class="st4"/>
		</g>
		<g id="shape29-53" v:mID="29" v:groupContext="shape" transform="translate(51.0986,-205.84)">
			<title>工作表.29</title>
			<path d="M0 241.58 L62.2 241.58 L62.2 257.58 L0 257.58 L0 241.58 Z" class="st3"/>
		</g>
		<g id="shape30-55" v:mID="30" v:groupContext="shape" transform="translate(61.6046,-210.513)">
			<title>工作表.30</title>
			<path d="M6.98 251.41 L4.38 251.41 L4.38 257.44 L4.92 257.44 L4.92 256.89 L6.44 256.89 L6.44 257.44 L6.98 257.44 L6.98
						 251.41 ZM4.92 256.35 L4.92 251.96 L6.44 251.96 L6.44 256.35 L4.92 256.35 ZM1.44 250.24 L1.44 251.86 L0.16
						 251.86 L0.16 252.41 L1.44 252.41 C1.41 254.61 0.92 256.21 0 257.21 L0.42 257.58 C1.45 256.5 1.97 254.78
						 2 252.41 L3.08 252.41 C3.06 254.57 3.02 255.85 2.97 256.27 C2.91 256.72 2.67 256.96 2.27 256.96 C2.08 256.96
						 1.85 256.94 1.59 256.92 L1.73 257.46 C2.02 257.47 2.22 257.49 2.34 257.49 C3.05 257.49 3.44 257.14 3.52
						 256.49 C3.59 255.89 3.64 254.35 3.64 251.86 L2 251.86 L2 250.24 L1.44 250.24 Z" class="st4"/>
		</g>
		<g id="shape31-57" v:mID="31" v:groupContext="shape" transform="translate(71.8761,-211.201)">
			<title>工作表.31</title>
			<path d="M3.45 256.77 C3.22 257.02 2.97 257.21 2.7 257.35 C2.43 257.47 2.13 257.53 1.81 257.53 C1.22 257.53 0.76 257.34
						 0.42 256.94 C0.14 256.62 0 256.26 0 255.86 C0 255.51 0.11 255.19 0.34 254.91 C0.57 254.62 0.91 254.36 1.36
						 254.14 C1.11 253.85 0.94 253.61 0.84 253.43 C0.76 253.24 0.72 253.06 0.72 252.89 C0.72 252.55 0.85 252.25
						 1.13 252 C1.39 251.75 1.73 251.61 2.14 251.61 C2.53 251.61 2.85 251.73 3.09 251.97 C3.34 252.21 3.47 252.5
						 3.47 252.83 C3.47 253.39 3.11 253.85 2.39 254.24 L3.42 255.54 C3.53 255.31 3.62 255.04 3.69 254.74 L4.42
						 254.89 C4.29 255.4 4.13 255.81 3.92 256.13 C4.18 256.49 4.48 256.78 4.81 257.02 L4.34 257.58 C4.05 257.39
						 3.75 257.12 3.45 256.77 ZM2.03 253.78 C2.33 253.6 2.52 253.44 2.61 253.3 C2.7 253.17 2.75 253.02 2.75 252.86
						 C2.75 252.67 2.69 252.5 2.56 252.38 C2.44 252.25 2.3 252.19 2.11 252.19 C1.92 252.19 1.76 252.25 1.62 252.38
						 C1.5 252.5 1.44 252.66 1.44 252.83 C1.44 252.92 1.46 253.01 1.5 253.11 C1.55 253.21 1.62 253.31 1.72 253.41
						 L2.03 253.78 ZM3.01 256.21 L1.73 254.61 C1.35 254.84 1.08 255.06 0.95 255.25 C0.83 255.44 0.76 255.63 0.76
						 255.82 C0.76 256.05 0.85 256.29 1.03 256.54 C1.22 256.78 1.48 256.91 1.83 256.91 C2.03 256.91 2.25 256.85
						 2.47 256.72 C2.7 256.59 2.88 256.42 3.01 256.21 Z" class="st4"/>
		</g>
		<g id="shape32-59" v:mID="32" v:groupContext="shape" transform="translate(79.4493,-210.513)">
			<title>工作表.32</title>
			<path d="M0.2 251.38 L0.2 251.92 L1.36 251.92 L1.36 253.25 L0.09 253.25 L0.09 253.82 L1.33 253.82 C1.2 255.32 0.76 256.46
						 0 257.21 L0.42 257.58 C1.08 256.94 1.51 256.07 1.75 254.94 C2.06 255.28 2.44 255.75 2.89 256.36 L3.2 255.86
						 C2.75 255.32 2.28 254.83 1.83 254.41 C1.86 254.22 1.87 254.02 1.89 253.82 L3.11 253.82 L3.11 253.25 L1.92
						 253.25 L1.92 251.92 L3 251.92 L3 251.38 L1.92 251.38 L1.92 250.28 L1.36 250.28 L1.36 251.38 L0.2 251.38
						 ZM6.7 250.55 L3.47 250.55 L3.47 254.94 L4.02 254.94 L4.02 251.1 L6.16 251.1 L6.16 254.94 L6.7 254.94 L6.7
						 250.55 ZM6.48 257.46 C6.75 257.46 6.92 257.38 7.06 257.27 C7.19 257.13 7.28 256.72 7.33 256.07 L6.83 255.91
						 C6.8 256.39 6.75 256.71 6.69 256.82 C6.62 256.89 6.53 256.92 6.39 256.92 L5.99 256.92 C5.81 256.92 5.73
						 256.85 5.73 256.66 L5.73 254.99 L5.2 254.99 L5.2 256.78 C5.2 257.22 5.41 257.46 5.83 257.46 L6.48 257.46
						 ZM4.83 251.75 L4.83 253.17 C4.8 254.17 4.63 255 4.3 255.63 C3.94 256.24 3.33 256.72 2.45 257.1 L2.75 257.58
						 C3.66 257.21 4.3 256.68 4.7 256.02 C5.11 255.32 5.33 254.36 5.34 253.17 L5.34 251.75 L4.83 251.75 Z"
					class="st4"/>
		</g>
		<g id="shape33-61" v:mID="33" v:groupContext="shape" transform="translate(87.5734,-210.48)">
			<title>工作表.33</title>
			<path d="M0 250.89 L0 251.44 L1.89 251.44 L1.89 252.19 L2.47 252.19 L2.47 251.44 L4.56 251.44 L4.56 252.19 L5.14 252.19
						 L5.14 251.44 L7.03 251.44 L7.03 250.89 L5.14 250.89 L5.14 250.17 L4.56 250.17 L4.56 250.89 L2.47 250.89
						 L2.47 250.17 L1.89 250.17 L1.89 250.89 L0 250.89 ZM1.03 252.11 L0.64 252.49 C1.17 252.86 1.61 253.22 1.91
						 253.56 L2.3 253.17 C1.97 252.81 1.55 252.47 1.03 252.11 ZM0.53 253.47 L0.14 253.85 C0.67 254.22 1.1 254.56
						 1.41 254.91 L1.8 254.52 C1.45 254.16 1.03 253.81 0.53 253.47 ZM1.47 255.21 C1.16 255.89 0.75 256.6 0.23
						 257.3 L0.77 257.58 C1.27 256.89 1.66 256.17 1.95 255.44 L1.47 255.21 ZM5.78 252.99 L5.78 254.49 C5.78 254.67
						 5.67 254.78 5.46 254.78 C5.17 254.78 4.86 254.77 4.52 254.74 L4.66 255.28 C4.99 255.3 5.31 255.3 5.67 255.3
						 C6.11 255.28 6.35 255.08 6.35 254.66 L6.35 252.47 L2.89 252.47 L2.89 256.63 C2.89 257.13 3.14 257.38 3.66
						 257.38 L5.8 257.38 C6.22 257.38 6.5 257.3 6.66 257.16 C6.81 256.99 6.92 256.52 6.98 255.75 L6.44 255.57
						 C6.39 256.08 6.33 256.42 6.25 256.6 C6.17 256.75 5.97 256.83 5.66 256.83 L3.89 256.83 C3.61 256.83 3.47
						 256.69 3.47 256.44 L3.47 252.99 L5.78 252.99 Z" class="st4"/>
		</g>
		<g id="shape34-63" v:mID="34" v:groupContext="shape" transform="translate(95.3868,-210.527)">
			<title>工作表.34</title>
			<path d="M2.48 250.17 C1.97 251.44 1.14 252.57 0 253.53 L0.19 254.14 C0.61 253.78 1 253.41 1.36 253.02 L1.36 257.58 L1.94
						 257.58 L1.94 252.31 C2.38 251.72 2.73 251.09 3.01 250.42 L2.48 250.17 ZM6.17 257.44 C6.55 257.44 6.81 257.35
						 6.95 257.16 C7.09 256.95 7.19 256.39 7.25 255.49 L6.72 255.3 C6.67 256.1 6.62 256.56 6.53 256.69 C6.44 256.81
						 6.28 256.89 6.08 256.89 L4.78 256.89 C4.5 256.89 4.37 256.75 4.37 256.52 L4.37 253.81 C5.36 253.19 6.23
						 252.47 6.98 251.67 L6.58 251.22 C5.95 251.92 5.22 252.57 4.37 253.13 L4.37 250.27 L3.8 250.27 L3.8 253.49
						 C3.39 253.72 2.95 253.94 2.52 254.14 L2.77 254.69 C3.13 254.52 3.47 254.35 3.8 254.16 L3.8 256.6 C3.8 257.16
						 4.08 257.44 4.64 257.44 L6.17 257.44 Z" class="st4"/>
		</g>
		<g id="shape35-65" v:mID="35" v:groupContext="shape" transform="translate(82.2002,-43.84)">
			<title>工作表.35</title>
			<path d="M0 257.58 L0 251.18 L0 257.58 Z" class="st6"/>
			<path d="M0 257.58 L0 251.18" class="st7"/>
		</g>
		<g id="shape36-68" v:mID="36" v:groupContext="shape" transform="translate(80.7002,-50.2413)">
			<title>工作表.36</title>
			<path d="M1.5 253.58 L1.5 257.58 L1.5 253.58 ZM0 257.58 L1.5 253.58 L3 257.58 L0 257.58 Z" class="st6"/>
			<path d="M1.5 253.58 L1.5 257.58M0 257.58 L1.5 253.58 L3 257.58" class="st8"/>
		</g>
		<g id="shape37-71" v:mID="37" v:groupContext="shape" transform="translate(82.2002,-72.1407)">
			<title>工作表.37</title>
			<path d="M0 257.58 L0 232.38 L0 257.58 Z" class="st6"/>
			<path d="M0 257.58 L0 232.38" class="st7"/>
		</g>
		<g id="shape38-74" v:mID="38" v:groupContext="shape" transform="translate(80.7002,-97.339)">
			<title>工作表.38</title>
			<path d="M1.5 253.58 L1.5 257.58 L1.5 253.58 ZM0 257.58 L1.5 253.58 L3 257.58 L0 257.58 Z" class="st6"/>
			<path d="M1.5 253.58 L1.5 257.58M0 257.58 L1.5 253.58 L3 257.58" class="st8"/>
		</g>
		<g id="shape39-77" v:mID="39" v:groupContext="shape" transform="translate(82.2002,-129.44)">
			<title>工作表.39</title>
			<path d="M0 257.58 L0 254.28 L0 257.58 Z" class="st6"/>
			<path d="M0 257.58 L0 254.28" class="st7"/>
		</g>
		<g id="shape40-80" v:mID="40" v:groupContext="shape" transform="translate(80.7002,-132.741)">
			<title>工作表.40</title>
			<path d="M1.5 253.58 L1.5 257.58 L1.5 253.58 ZM0 257.58 L1.5 253.58 L3 257.58 L0 257.58 Z" class="st6"/>
			<path d="M1.5 253.58 L1.5 257.58M0 257.58 L1.5 253.58 L3 257.58" class="st8"/>
		</g>
		<g id="shape41-83" v:mID="41" v:groupContext="shape" transform="translate(82.2002,-154.641)">
			<title>工作表.41</title>
			<path d="M0 257.58 L0 248.28 L0 257.58 Z" class="st6"/>
			<path d="M0 257.58 L0 248.28" class="st7"/>
		</g>
		<g id="shape42-86" v:mID="42" v:groupContext="shape" transform="translate(80.7002,-163.94)">
			<title>工作表.42</title>
			<path d="M1.5 253.58 L1.5 257.58 L1.5 253.58 ZM0 257.58 L1.5 253.58 L3 257.58 L0 257.58 Z" class="st6"/>
			<path d="M1.5 253.58 L1.5 257.58M0 257.58 L1.5 253.58 L3 257.58" class="st8"/>
		</g>
		<g id="shape43-89" v:mID="43" v:groupContext="shape" transform="translate(82.2002,-196.037)">
			<title>工作表.43</title>
			<path d="M0 257.58 L0 253.68 L0 257.58 Z" class="st6"/>
			<path d="M0 257.58 L0 253.68" class="st7"/>
		</g>
		<g id="shape44-92" v:mID="44" v:groupContext="shape" transform="translate(80.7002,-199.94)">
			<title>工作表.44</title>
			<path d="M1.5 253.58 L1.5 257.58 L1.5 253.58 ZM0 257.58 L1.5 253.58 L3 257.58 L0 257.58 Z" class="st6"/>
			<path d="M1.5 253.58 L1.5 257.58M0 257.58 L1.5 253.58 L3 257.58" class="st8"/>
		</g>
		<g id="shape78-95" v:mID="78" v:groupContext="shape" transform="translate(78.1368,-0.75)">
			<title>工作表.78</title>
			<path d="M0.59 249.52 L0.16 249.94 C0.84 250.44 1.37 250.91 1.78 251.33 L2.22 250.89 C1.78 250.44 1.23 249.99 0.59 249.52
						 ZM0.44 251.72 L0 252.14 C0.64 252.63 1.14 253.07 1.5 253.5 L1.94 253.05 C1.53 252.61 1.03 252.18 0.44 251.72
						 ZM1.49 254.16 C1.09 255.22 0.64 256.27 0.09 257.3 L0.7 257.57 C1.19 256.56 1.64 255.5 2.03 254.36 L1.49
						 254.16 ZM3.89 251.13 L3.89 254.29 L5.44 254.29 L5.44 256.68 C5.44 256.91 5.33 257.02 5.12 257.02 C4.91 257.02
						 4.69 257 4.45 256.97 L4.58 257.57 L5.34 257.57 C5.81 257.57 6.05 257.31 6.05 256.83 L6.05 254.29 L7.55 254.29
						 L7.55 251.13 L5.8 251.13 C5.89 250.86 5.97 250.58 6.03 250.28 L8.02 250.28 L8.02 249.69 L2.63 249.69 L2.63
						 252.91 C2.59 254.72 2.3 256.13 1.73 257.14 L2.22 257.58 C2.87 256.41 3.22 254.85 3.25 252.91 L3.25 250.28
						 L5.42 250.28 C5.36 250.56 5.28 250.85 5.17 251.13 L3.89 251.13 ZM6.97 253.77 L4.47 253.77 L4.47 252.96 L6.97
						 252.96 L6.97 253.77 ZM4.47 252.47 L4.47 251.64 L6.97 251.64 L6.97 252.47 L4.47 252.47 ZM4.11 254.92 C3.92
						 255.61 3.62 256.24 3.2 256.8 L3.72 257.13 C4.14 256.54 4.45 255.85 4.69 255.05 L4.11 254.92 ZM7.17 254.88
						 L6.64 255.06 C6.98 255.66 7.3 256.35 7.59 257.11 L8.14 256.88 C7.88 256.17 7.55 255.5 7.17 254.88 Z"
					class="st4"/>
		</g>
		<g id="shape85-97" v:mID="85" v:groupContext="shape" transform="translate(82.2002,-16.6408)">
			<title>工作表.85</title>
			<path d="M0 257.58 L0 252.28 L0 257.58 Z" class="st6"/>
			<path d="M0 257.58 L0 252.28" class="st7"/>
		</g>
		<g id="shape86-100" v:mID="86" v:groupContext="shape" transform="translate(80.7002,-21.9406)">
			<title>工作表.86</title>
			<path d="M1.5 253.58 L1.5 257.58 L1.5 253.58 ZM0 257.58 L1.5 253.58 L3 257.58 L0 257.58 Z" class="st6"/>
			<path d="M1.5 253.58 L1.5 257.58M0 257.58 L1.5 253.58 L3 257.58" class="st8"/>
		</g>
		<g id="shape87-103" v:mID="87" v:groupContext="shape" transform="translate(39.415,-92.253)">
			<title>工作表.87</title>
			<path d="M33.61 257.58 L4 257.58 C1.79 257.58 0 255.79 0 253.58 C0 253.58 0 253.57 0 253.56 L0.16 207.4 C0.16 205.21
						 1.94 203.43 4.13 203.42 L5.79 203.41 L33.61 257.58 Z" class="st6"/>
			<path d="M33.61 257.58 L4 257.58 C1.79 257.58 0 255.79 0 253.58 C0 253.58 0 253.57 0 253.56 L0.16 207.4 C0.16 205.21
						 1.94 203.43 4.13 203.42 L5.79 203.41" class="st7"/>
		</g>
		<g id="shape88-106" v:mID="88" v:groupContext="shape" transform="translate(45.1924,-144.926)">
			<title>工作表.88</title>
			<path d="M4.01 256.06 L0.01 256.08 L4.01 256.06 ZM0 254.58 L4.01 256.06 L0.01 257.58 L0 254.58 Z" class="st6"/>
			<path d="M4.01 256.06 L0.01 256.08M0 254.58 L4.01 256.06 L0.01 257.58" class="st8"/>
		</g>
		<g id="shape89-109" v:mID="89" v:groupContext="shape" transform="translate(39.6641,-160.222)">
			<title>工作表.89</title>
			<path d="M42.54 257.55 L4.45 257.58 C2.26 257.58 0.47 255.81 0.45 253.62 L0.02 208 C0 205.79 1.78 203.98 3.98 203.96
						 C4 203.96 4.01 203.96 4.03 203.96 L5.54 203.96 L42.54 257.55 Z" class="st6"/>
			<path d="M42.54 257.55 L4.45 257.58 C2.26 257.58 0.47 255.81 0.45 253.62 L0.02 208 C0 205.79 1.78 203.98 3.98 203.96
						 C4 203.96 4.01 203.96 4.03 203.96 L5.54 203.96" class="st7"/>
		</g>
		<g id="shape90-112" v:mID="90" v:groupContext="shape" transform="translate(45.2012,-212.338)">
			<title>工作表.90</title>
			<path d="M4 256.08 L0 256.08 L4 256.08 ZM0 254.58 L4 256.08 L0 257.58 L0 254.58 Z" class="st6"/>
			<path d="M4 256.08 L0 256.08M0 254.58 L4 256.08 L0 257.58" class="st8"/>
		</g>
		<g id="shape93-115" v:mID="93" v:groupContext="shape" transform="translate(82.3994,-92.253)">
			<title>工作表.93</title>
			<path d="M0 257.58 L12 257.58 C14.21 257.58 16 255.79 16 253.58 L16 252.5 L0 257.58 Z" class="st6"/>
			<path d="M0 257.58 L12 257.58 C14.21 257.58 16 255.79 16 253.58 L16 252.5" class="st7"/>
		</g>
		<g id="shape94-118" v:mID="94" v:groupContext="shape" transform="translate(96.8984,-97.339)">
			<title>工作表.94</title>
			<path d="M1.5 253.58 L1.5 257.58 L1.5 253.58 ZM0 257.58 L1.5 253.58 L3 257.58 L0 257.58 Z" class="st6"/>
			<path d="M1.5 253.58 L1.5 257.58M0 257.58 L1.5 253.58 L3 257.58" class="st8"/>
		</g>
		<g id="shape95-121" v:mID="95" v:groupContext="shape" transform="translate(66.2978,-92.253)">
			<title>工作表.95</title>
			<path d="M16.1 257.58 L4 257.58 C1.79 257.58 0 255.79 0 253.58 L0 252.5 L16.1 257.58 Z" class="st6"/>
			<path d="M16.1 257.58 L4 257.58 C1.79 257.58 0 255.79 0 253.58 L0 252.5" class="st7"/>
		</g>
		<g id="shape96-124" v:mID="96" v:groupContext="shape" transform="translate(64.7978,-97.339)">
			<title>工作表.96</title>
			<path d="M1.5 253.58 L1.5 257.58 L1.5 253.58 ZM0 257.58 L1.5 253.58 L3 257.58 L0 257.58 Z" class="st6"/>
			<path d="M1.5 253.58 L1.5 257.58M0 257.58 L1.5 253.58 L3 257.58" class="st8"/>
		</g>
		<g id="shape145-127" v:mID="145" v:groupContext="shape" transform="translate(10.2237,-154.263)">
			<title>工作表.145</title>
			<path d="M4.02 256.46 C3.95 256.54 3.89 256.61 3.83 256.69 C3.56 257.02 3.41 257.16 3.28 257.16 C3.17 257.16 3.14 257.08
						 3.14 257 C3.14 256.92 3.17 256.77 3.27 256.46 L3.76 254.63 C3.81 254.44 3.86 254.24 3.86 254.08 C3.86 253.75
						 3.66 253.54 3.27 253.54 C2.69 253.54 2.09 254.08 1.19 255.52 L1.8 253.55 L1.75 253.54 C1.28 253.63 1.03
						 253.68 0.3 253.82 L0.3 253.96 C0.75 253.97 0.89 254.02 0.89 254.21 C0.89 254.25 0.88 254.31 0.86 254.35
						 L0 257.5 L0.67 257.5 C1.09 256.08 1.17 255.88 1.58 255.27 C2.14 254.44 2.55 253.99 2.91 253.99 C3.05 253.99
						 3.13 254.1 3.13 254.25 C3.13 254.36 3.06 254.69 3 254.97 L2.61 256.42 C2.47 256.89 2.45 257 2.45 257.1 C2.45
						 257.44 2.66 257.58 2.87 257.58 C3.3 257.58 3.53 257.41 4.14 256.56 L4.02 256.46 Z" class="st4"/>
		</g>
		<g id="group146-129" transform="translate(17.1495,-154.465)" v:mID="146" v:groupContext="group">
			<title>clip2</title>
			<g id="shape147-130" v:mID="147" v:groupContext="shape">
				<title>工作表.147</title>
				<path d="M0 252.86 L4.5 252.86 L4.5 257.58 L0 257.58 L0 252.86 Z" class="st4"/>
			</g>
		</g>
		<g id="shape148-132" v:mID="148" v:groupContext="shape" transform="translate(69.0753,-248.534)">
			<title>工作表.148</title>
			<path d="M2.34 255.66 C1.7 255.99 0.95 256.24 0.11 256.42 L0.19 257.07 C1 256.86 1.72 256.6 2.34 256.27 L2.34 255.66
						 ZM1.42 249.3 C1.09 250.35 0.7 251.27 0.25 252.08 C0.19 252.19 0.09 252.27 0 252.32 L0.16 252.89 C0.64 252.81
						 1.11 252.74 1.59 252.64 C1.13 253.47 0.73 254.05 0.42 254.39 C0.34 254.47 0.23 254.53 0.12 254.58 L0.3 255.16
						 C1.03 255.05 1.8 254.86 2.61 254.6 L2.61 254.02 C2.09 254.21 1.58 254.35 1.06 254.46 C1.55 253.85 2.17 252.81
						 2.92 251.36 L2.36 251.14 C2.2 251.47 2.03 251.78 1.89 252.06 C1.51 252.14 1.13 252.21 0.73 252.27 C1.17
						 251.6 1.61 250.68 2.03 249.53 L1.42 249.3 ZM7.31 257.55 C7.72 257.55 7.92 257.33 7.92 256.92 L7.92 253.3
						 L3.81 253.3 L3.81 257.58 L4.34 257.58 L4.34 255.58 L5.04 255.58 L5.04 257.43 L5.53 257.43 L5.53 255.58 L6.19
						 255.58 L6.19 257.43 L6.66 257.43 L6.66 255.58 L7.39 255.58 L7.39 256.78 C7.39 256.97 7.29 257.07 7.14 257.07
						 L6.78 257.05 L6.92 257.55 L7.31 257.55 ZM4.34 255.04 L4.34 253.86 L5.04 253.86 L5.04 255.04 L4.34 255.04
						 ZM5.53 253.86 L6.19 253.86 L6.19 255.04 L5.53 255.04 L5.53 253.86 ZM6.66 253.86 L7.39 253.86 L7.39 255.04
						 L6.66 255.04 L6.66 253.86 ZM7.29 250.8 L7.29 251.96 L3.78 251.96 L3.78 250.8 L7.29 250.8 ZM3.78 252.52 L7.89
						 252.52 L7.89 250.24 L5.86 250.24 C5.75 249.88 5.64 249.55 5.51 249.28 L4.84 249.38 C4.98 249.64 5.11 249.93
						 5.23 250.24 L3.19 250.24 L3.19 252.42 C3.17 254.35 2.81 255.93 2.09 257.16 L2.56 257.57 C3.34 256.16 3.75
						 254.47 3.78 252.52 Z" class="st4"/>
		</g>
		<g id="shape149-134" v:mID="149" v:groupContext="shape" transform="translate(78.0109,-248.596)">
			<title>工作表.149</title>
			<path d="M3.09 252.55 L1.44 252.55 C1.67 251.91 1.85 251.24 1.97 250.52 L3.33 250.52 L3.33 249.89 L0.25 249.89 L0.25
						 250.52 L1.36 250.52 C1.14 251.86 0.69 253.05 0 254.09 L0.33 254.63 C0.55 254.31 0.74 254 0.92 253.67 L0.92
						 257.35 L1.53 257.35 L1.53 256.66 L2.5 256.66 L2.5 257.17 L3.09 257.17 L3.09 252.55 ZM1.53 256.06 L1.53 253.14
						 L2.5 253.14 L2.5 256.06 L1.53 256.06 ZM4.3 251 L3.81 253.92 L7.45 253.92 C7.45 255.36 7.38 256.24 7.24 256.53
						 C7.11 256.83 6.69 256.99 6 256.99 C5.83 256.99 5.56 256.95 5.16 256.92 L5.34 257.55 C5.62 257.58 5.89 257.58
						 6.16 257.58 C6.94 257.58 7.45 257.41 7.71 257.08 C7.94 256.75 8.06 255.5 8.06 253.32 L7.11 253.32 L7.61
						 249.77 L3.74 249.77 L3.74 250.38 L6.91 250.38 L6.45 253.32 L4.55 253.32 L4.94 251.05 L4.3 251 ZM3.55 255.06
						 L3.55 255.67 L6.83 255.67 L6.83 255.06 L3.55 255.06 Z" class="st4"/>
		</g>
		<g id="shape150-136" v:mID="150" v:groupContext="shape" transform="translate(87.0431,-248.534)">
			<title>工作表.150</title>
			<path d="M0.92 249.66 L0.92 251.85 L3.66 251.85 L3.66 249.66 L0.92 249.66 ZM3.06 251.3 L1.5 251.3 L1.5 250.22 L3.06 250.22
						 L3.06 251.3 ZM4.66 249.66 L4.66 251.85 L7.45 251.85 L7.45 249.66 L4.66 249.66 ZM6.88 251.3 L5.25 251.3 L5.25
						 250.22 L6.88 250.22 L6.88 251.3 ZM0.19 252.75 L0.19 253.33 L2.67 253.33 C2.05 253.86 1.16 254.31 0 254.64
						 L0.3 255.18 C0.56 255.1 0.8 255.02 1.05 254.92 L1.05 257.58 L1.61 257.58 L1.61 257.19 L3.14 257.19 L3.14
						 257.58 L3.72 257.58 L3.72 254.75 L1.47 254.75 C2.31 254.38 2.99 253.91 3.48 253.33 L5.02 253.33 C5.47 253.88
						 6.13 254.35 6.98 254.75 L4.59 254.75 L4.59 257.58 L5.17 257.58 L5.17 257.19 L6.84 257.19 L6.84 257.58 L7.42
						 257.58 L7.42 254.94 C7.63 255 7.83 255.1 8.05 255.16 L8.31 254.61 C7.16 254.3 6.28 253.86 5.69 253.33 L8.12
						 253.33 L8.12 252.75 L6.89 252.75 C6.74 252.47 6.58 252.21 6.39 251.96 L5.84 252.14 C5.99 252.32 6.13 252.52
						 6.25 252.75 L3.92 252.75 C4.05 252.53 4.17 252.32 4.25 252.08 L3.64 252.02 C3.53 252.27 3.39 252.52 3.22
						 252.75 L0.19 252.75 ZM1.61 256.64 L1.61 255.28 L3.14 255.28 L3.14 256.64 L1.61 256.64 ZM5.17 256.64 L5.17
						 255.28 L6.84 255.28 L6.84 256.64 L5.17 256.64 Z" class="st4"/>
		</g>
		<g id="shape154-138" v:mID="154" v:groupContext="shape" transform="translate(73.4199,-55.3595)">
			<title>工作表.154</title>
			<path d="M14.44 243.14 C17.56 246.27 17.56 251.33 14.44 254.46 C11.31 257.58 6.25 257.58 3.12 254.46 C0 251.33 0 246.27
						 3.12 243.14 C6.25 240.02 11.31 240.02 14.44 243.14 Z" class="st3"/>
		</g>
		<g id="shape155-140" v:mID="155" v:groupContext="shape" transform="translate(79.5548,-61.2656)">
			<title>工作表.155</title>
			<path d="M5.28 255.22 L5.28 254.63 L2.94 254.63 L2.94 252.28 L2.34 252.28 L2.34 254.63 L0 254.63 L0 255.22 L2.34 255.22
						 L2.34 257.58 L2.94 257.58 L2.94 255.22 L5.28 255.22 Z" class="st4"/>
		</g>
		<g id="shape156-142" v:mID="156" v:groupContext="shape" transform="translate(0.5,-51.0411)">
			<title>工作表.156</title>
			<path d="M0 231.38 L62.2 231.38 L62.2 257.58 L0 257.58 L0 231.38 Z" class="st3"/>
		</g>
		<g id="shape157-144" v:mID="157" v:groupContext="shape" transform="translate(13.9269,-59.7187)">
			<title>工作表.157</title>
			<path d="M2.09 249.25 C1.66 250.64 0.96 251.88 0 252.96 L0.21 253.66 C0.55 253.28 0.88 252.89 1.17 252.5 L1.17 257.58
						 L1.83 257.58 L1.83 251.52 C2.17 250.89 2.47 250.24 2.7 249.53 L2.09 249.25 ZM2.66 250.75 L2.66 251.38 L8.06
						 251.38 L8.06 250.75 L5.72 250.75 C5.6 250.22 5.46 249.74 5.31 249.33 L4.63 249.44 C4.8 249.83 4.95 250.28
						 5.08 250.75 L2.66 250.75 ZM2.5 256.5 L2.5 257.14 L8.3 257.14 L8.3 256.5 L6.27 256.5 C6.7 255.22 7.1 253.77
						 7.41 252.13 L6.8 251.96 C6.45 253.78 6.05 255.28 5.6 256.5 L2.5 256.5 ZM3.77 252.06 L3.16 252.24 C3.55 253.52
						 3.86 254.85 4.1 256.21 L4.71 256.05 C4.42 254.55 4.11 253.22 3.77 252.06 Z" class="st4"/>
		</g>
		<g id="shape158-146" v:mID="158" v:groupContext="shape" transform="translate(23.0851,-59.9531)">
			<title>工作表.158</title>
			<path d="M0.16 252.08 L0.16 252.58 L3.58 252.58 C3.54 252.75 3.52 252.93 3.48 253.1 L1.29 253.1 L1.29 257.07 L0 257.07
						 L0 257.58 L8.04 257.58 L8.04 257.07 L6.75 257.07 L6.75 253.1 L4.13 253.1 C4.17 252.94 4.2 252.77 4.23 252.58
						 L7.89 252.58 L7.89 252.08 L4.29 252.08 L4.36 251.57 L7.28 251.57 L7.28 249.88 L0.75 249.88 L0.75 251.57
						 L3.7 251.57 L3.66 252.08 L0.16 252.08 ZM1.92 257.07 L1.92 256.47 L6.11 256.47 L6.11 257.07 L1.92 257.07
						 ZM1.92 256.07 L1.92 255.5 L6.11 255.5 L6.11 256.07 L1.92 256.07 ZM1.92 255.08 L1.92 254.52 L6.11 254.52
						 L6.11 255.08 L1.92 255.08 ZM1.92 254.11 L1.92 253.55 L6.11 253.55 L6.11 254.11 L1.92 254.11 ZM6.66 251.11
						 L5.33 251.11 L5.33 250.36 L6.66 250.36 L6.66 251.11 ZM4.73 251.11 L3.3 251.11 L3.3 250.36 L4.73 250.36 L4.73
						 251.11 ZM2.72 251.11 L1.37 251.11 L1.37 250.36 L2.72 250.36 L2.72 251.11 Z" class="st4"/>
		</g>
		<g id="shape159-148" v:mID="159" v:groupContext="shape" transform="translate(31.9737,-59.7334)">
			<title>工作表.159</title>
			<path d="M2.34 255.66 C1.71 255.99 0.96 256.24 0.11 256.42 L0.19 257.07 C1 256.86 1.72 256.6 2.34 256.27 L2.34 255.66
						 ZM1.42 249.3 C1.1 250.34 0.7 251.27 0.25 252.08 C0.19 252.19 0.09 252.27 0 252.31 L0.16 252.89 C0.64 252.81
						 1.11 252.74 1.59 252.64 C1.13 253.47 0.74 254.05 0.42 254.39 C0.35 254.47 0.23 254.53 0.13 254.58 L0.3 255.16
						 C1.03 255.05 1.8 254.86 2.61 254.6 L2.61 254.02 C2.09 254.21 1.58 254.35 1.06 254.46 C1.55 253.85 2.17 252.81
						 2.92 251.36 L2.36 251.14 C2.2 251.47 2.03 251.78 1.89 252.06 C1.52 252.14 1.13 252.21 0.74 252.27 C1.17
						 251.6 1.61 250.67 2.03 249.53 L1.42 249.3 ZM7.31 257.55 C7.72 257.55 7.92 257.33 7.92 256.92 L7.92 253.3
						 L3.81 253.3 L3.81 257.58 L4.34 257.58 L4.34 255.58 L5.05 255.58 L5.05 257.42 L5.53 257.42 L5.53 255.58 L6.19
						 255.58 L6.19 257.42 L6.66 257.42 L6.66 255.58 L7.39 255.58 L7.39 256.78 C7.39 256.97 7.3 257.07 7.14 257.07
						 L6.78 257.05 L6.92 257.55 L7.31 257.55 ZM4.34 255.03 L4.34 253.86 L5.05 253.86 L5.05 255.03 L4.34 255.03
						 ZM5.53 253.86 L6.19 253.86 L6.19 255.03 L5.53 255.03 L5.53 253.86 ZM6.66 253.86 L7.39 253.86 L7.39 255.03
						 L6.66 255.03 L6.66 253.86 ZM7.3 250.8 L7.3 251.96 L3.78 251.96 L3.78 250.8 L7.3 250.8 ZM3.78 252.52 L7.89
						 252.52 L7.89 250.24 L5.86 250.24 C5.75 249.88 5.64 249.55 5.52 249.28 L4.85 249.38 C4.99 249.64 5.11 249.92
						 5.24 250.24 L3.19 250.24 L3.19 252.42 C3.17 254.35 2.81 255.92 2.09 257.16 L2.56 257.56 C3.35 256.16 3.75
						 254.47 3.78 252.52 Z" class="st4"/>
		</g>
		<g id="shape160-150" v:mID="160" v:groupContext="shape" transform="translate(40.9122,-59.7979)">
			<title>工作表.160</title>
			<path d="M3.09 252.55 L1.44 252.55 C1.67 251.91 1.84 251.24 1.97 250.52 L3.33 250.52 L3.33 249.89 L0.25 249.89 L0.25
						 250.52 L1.36 250.52 C1.14 251.86 0.69 253.05 0 254.1 L0.33 254.63 C0.55 254.32 0.74 254 0.92 253.68 L0.92
						 257.35 L1.53 257.35 L1.53 256.66 L2.5 256.66 L2.5 257.18 L3.09 257.18 L3.09 252.55 ZM1.53 256.07 L1.53 253.15
						 L2.5 253.15 L2.5 256.07 L1.53 256.07 ZM4.3 251 L3.81 253.92 L7.45 253.92 C7.45 255.36 7.37 256.24 7.23 256.54
						 C7.11 256.83 6.69 256.99 6 256.99 C5.83 256.99 5.56 256.96 5.16 256.92 L5.34 257.55 C5.62 257.58 5.89 257.58
						 6.16 257.58 C6.94 257.58 7.45 257.41 7.7 257.08 C7.94 256.75 8.06 255.5 8.06 253.32 L7.11 253.32 L7.61 249.77
						 L3.74 249.77 L3.74 250.38 L6.91 250.38 L6.45 253.32 L4.55 253.32 L4.94 251.05 L4.3 251 ZM3.55 255.07 L3.55
						 255.68 L6.83 255.68 L6.83 255.07 L3.55 255.07 Z" class="st4"/>
		</g>
		<g id="shape161-152" v:mID="161" v:groupContext="shape" transform="translate(62.7002,-64.1398)">
			<title>工作表.161</title>
			<path d="M0 257.58 L5.6 257.58 L0 257.58 Z" class="st6"/>
			<path d="M0 257.58 L5.6 257.58" class="st7"/>
		</g>
		<g id="shape162-155" v:mID="162" v:groupContext="shape" transform="translate(68.2988,-62.6398)">
			<title>工作表.162</title>
			<path d="M4 256.08 L0 256.08 L4 256.08 ZM0 254.58 L4 256.08 L0 257.58 L0 254.58 Z" class="st6"/>
			<path d="M4 256.08 L0 256.08M0 254.58 L4 256.08 L0 257.58" class="st8"/>
		</g>
		<g id="shape337-158" v:mID="337" v:groupContext="shape" transform="translate(81.462,-222.967)">
			<title>工作表.337</title>
			<path d="M0 257.58 L0 239.61 L0 257.58 Z" class="st6"/>
			<path d="M0 257.58 L0 239.61" class="st7"/>
		</g>
		<g id="shape338-161" v:mID="338" v:groupContext="shape" transform="translate(79.962,-241.191)">
			<title>工作表.338</title>
			<path d="M1.5 253.58 L1.5 257.58 L1.5 253.58 ZM0 257.58 L1.5 253.58 L3 257.58 L0 257.58 Z" class="st6"/>
			<path d="M1.5 253.58 L1.5 257.58M0 257.58 L1.5 253.58 L3 257.58" class="st8"/>
		</g>
	</g>
</svg>
